<?xml version="1.0" encoding="UTF-8" standalone="no"?>
<!-- Created with Inkscape (http://www.inkscape.org/) -->

<svg
   xmlns:dc="http://purl.org/dc/elements/1.1/"
   xmlns:cc="http://creativecommons.org/ns#"
   xmlns:rdf="http://www.w3.org/1999/02/22-rdf-syntax-ns#"
   xmlns:svg="http://www.w3.org/2000/svg"
   xmlns="http://www.w3.org/2000/svg"
   xmlns:sodipodi="http://sodipodi.sourceforge.net/DTD/sodipodi-0.dtd"
   xmlns:inkscape="http://www.inkscape.org/namespaces/inkscape"
   version="1.1"
   id="svg8519"
   xml:space="preserve"
   width="149.65334"
   height="491.51999"
   viewBox="0 0 149.65334 491.51999"
   sodipodi:docname="HotTemp.svg"
   inkscape:version="0.92.3 (2405546, 2018-03-11)"><metadata
     id="metadata8525"><rdf:RDF><cc:Work
         rdf:about=""><dc:format>image/svg+xml</dc:format><dc:type
           rdf:resource="http://purl.org/dc/dcmitype/StillImage" /><dc:title></dc:title></cc:Work></rdf:RDF></metadata><defs
     id="defs8523" /><sodipodi:namedview
     pagecolor="#ffffff"
     bordercolor="#666666"
     borderopacity="1"
     objecttolerance="10"
     gridtolerance="10"
     guidetolerance="10"
     inkscape:pageopacity="0"
     inkscape:pageshadow="2"
     inkscape:window-width="1853"
     inkscape:window-height="1025"
     id="namedview8521"
     showgrid="false"
     inkscape:zoom="1.920573"
     inkscape:cx="-69.540706"
     inkscape:cy="305.40297"
     inkscape:window-x="67"
     inkscape:window-y="27"
     inkscape:window-maximized="1"
     inkscape:current-layer="g8527" /><g
     id="g8527"
     inkscape:groupmode="layer"
     inkscape:label="ink_ext_XXXXXX"
     transform="matrix(1.3333333,0,0,-1.3333333,0,491.52)"><path
       inkscape:connector-curvature="0"
       id="path8531"
       style="fill:#bdbdbd;fill-opacity:1;fill-rule:evenodd;stroke:none;stroke-width:0.1"
       d="m 25.2051,338.427 c 0.3051,16.737 14.0289,30.213 30.9172,30.213 16.8879,0 30.6117,-13.476 30.9164,-30.213 L 88.1918,101.711 C 102.73,91.6152 112.244,74.8469 112.244,55.8645 112.244,25.0117 87.1168,0 56.1223,0 25.1266,0 0,25.0117 0,55.8645 0,74.8469 9.51367,91.6152 24.0523,101.711 l 1.1528,236.716" /><path
       inkscape:connector-curvature="0"
       id="path8533"
       style="fill:#e64a19;fill-opacity:1;fill-rule:evenodd;stroke:none;stroke-width:0.1"
       d="M 76.566,90.8469 C 88.4652,83.957 96.4711,71.0891 96.4711,56.3496 c 0,-22.0008 -17.8348,-39.8359 -39.8348,-39.8359 -22.0008,0 -39.8355,17.8351 -39.8355,39.8359 0,14.1406 7.3687,26.5598 18.475,33.6281 V 197.315 H 76.566 V 90.8469" /><rect
       style="fill:#d14519;fill-opacity:1;stroke-width:0.90169883"
       id="rect8582-3"
       width="20.840954"
       height="191.93533"
       x="55.770714"
       y="-331.34665"
       transform="scale(1,-1)" /><path
       inkscape:connector-curvature="0"
       id="path8535"
       style="fill:#d14519;fill-opacity:1;fill-rule:evenodd;stroke:none;stroke-width:0.1"
       d="M 76.566,90.8469 C 88.4652,83.957 96.4711,71.0891 96.4711,56.3496 c 0,-22.0008 -17.8348,-39.8359 -39.8348,-39.8359 -0.2394,0 -0.4769,0.0051 -0.7148,0.0097 V 197.315 H 76.566 V 90.8469" /><rect
       style="fill:#e64a19;fill-opacity:1;stroke-width:0.75354224"
       id="rect8582"
       width="20.6457"
       height="135.3116"
       x="35.275799"
       y="-331.35745"
       transform="scale(1,-1)" /><path
       inkscape:connector-curvature="0"
       id="path8537"
       style="fill:#616161;fill-opacity:1;fill-rule:evenodd;stroke:none;stroke-width:0.1"
       d="m 87.5551,232.472 0.0332,-6.956 H 48.2008 c -4.6953,0 -6.1031,1.557 -6.1031,3.478 0,1.921 1.4078,3.478 6.1031,3.478 h 39.3543" /><path
       inkscape:connector-curvature="0"
       id="path8539"
       style="fill:#616161;fill-opacity:1;fill-rule:evenodd;stroke:none;stroke-width:0.1"
       d="m 87.5551,264.701 0.0332,-6.957 H 48.2008 c -4.6953,0 -6.1031,1.558 -6.1031,3.479 0,1.921 1.4078,3.478 6.1031,3.478 h 39.3543" /><path
       inkscape:connector-curvature="0"
       id="path8541"
       style="fill:#616161;fill-opacity:1;fill-rule:evenodd;stroke:none;stroke-width:0.1"
       d="m 87.5551,296.929 0.0332,-6.956 H 48.2008 c -4.6953,0 -6.1031,1.557 -6.1031,3.478 0,1.921 1.4078,3.478 6.1031,3.478 h 39.3543" /><path
       inkscape:connector-curvature="0"
       id="path8543"
       style="fill:#616161;fill-opacity:1;fill-rule:evenodd;stroke:none;stroke-width:0.1"
       d="m 87.5551,329.158 0.0332,-6.957 H 48.2008 c -4.6953,0 -6.1031,1.558 -6.1031,3.479 0,1.921 1.4078,3.478 6.1031,3.478 h 39.3543" /><rect
       id="rect8578"
       width="41.48867"
       height="130.17661"
       x="35.275799"
       y="-327.49161"
       transform="scale(1,-1)"
       style="stroke-width:0.75;fill:#000000;fill-opacity:0" /></g></svg>