<?xml version="1.0" encoding="UTF-8" standalone="no"?>
<!-- Created with Inkscape (http://www.inkscape.org/) -->

<svg
   xmlns:dc="http://purl.org/dc/elements/1.1/"
   xmlns:cc="http://creativecommons.org/ns#"
   xmlns:rdf="http://www.w3.org/1999/02/22-rdf-syntax-ns#"
   xmlns:svg="http://www.w3.org/2000/svg"
   xmlns="http://www.w3.org/2000/svg"
   xmlns:sodipodi="http://sodipodi.sourceforge.net/DTD/sodipodi-0.dtd"
   xmlns:inkscape="http://www.inkscape.org/namespaces/inkscape"
   version="1.1"
   id="svg29"
   xml:space="preserve"
   width="313.83798"
   height="344.51385"
   viewBox="0 0 313.83798 344.51385"
   sodipodi:docname="LowHumidity.svg"
   inkscape:version="0.92.3 (2405546, 2018-03-11)"><metadata
     id="metadata35"><rdf:RDF><cc:Work
         rdf:about=""><dc:format>image/svg+xml</dc:format><dc:type
           rdf:resource="http://purl.org/dc/dcmitype/StillImage" /><dc:title></dc:title></cc:Work></rdf:RDF></metadata><defs
     id="defs33" /><sodipodi:namedview
     pagecolor="#ffffff"
     bordercolor="#666666"
     borderopacity="1"
     objecttolerance="10"
     gridtolerance="10"
     guidetolerance="10"
     inkscape:pageopacity="0"
     inkscape:pageshadow="2"
     inkscape:window-width="1853"
     inkscape:window-height="1025"
     id="namedview31"
     showgrid="false"
     inkscape:zoom="1.6951422"
     inkscape:cx="330.50885"
     inkscape:cy="188.45024"
     inkscape:window-x="67"
     inkscape:window-y="27"
     inkscape:window-maximized="1"
     inkscape:current-layer="g37"
     showguides="false"
     fit-margin-top="0"
     fit-margin-left="0"
     fit-margin-right="0"
     fit-margin-bottom="0" /><g
     id="g37"
     inkscape:groupmode="layer"
     inkscape:label="ink_ext_XXXXXX"
     transform="matrix(1.3333333,0,0,-1.3333333,-25.366604,420.02375)"><path
       inkscape:connector-curvature="0"
       id="path41"
       style="fill:#6bb2ee;fill-opacity:1;fill-rule:evenodd;stroke:none;stroke-width:0.07131463"
       d="m 130.06762,309.36063 c 13.15183,-13.24558 25.77749,-26.98594 37.5178,-41.32251 9.86647,-12.04835 19.14889,-24.56544 27.42202,-37.60199 12.52028,-19.72925 23.36931,-41.63022 28.30143,-64.14865 1.91319,-8.73764 2.94473,-17.66991 2.70874,-26.58846 -0.20557,-7.75148 -1.37515,-15.46439 -3.72247,-22.91523 C 218.0903,103.43693 210.34035,91.701909 199.30728,82.238807 180.35728,65.984746 154.08258,58.287936 128.50769,58.2866 102.93607,58.286058 76.661063,65.978852 57.71181,82.231612 46.678882,91.69389 38.930942,103.42837 34.727573,116.7744 c -2.34637,7.45084 -3.51434,15.16354 -3.719,22.91434 -0.23511,8.91992 0.79835,17.85218 2.7125,26.58914 4.934766,22.51981 15.786245,44.42215 28.308605,64.15139 8.274918,13.03793 17.558672,25.55571 27.42625,37.60542 11.741132,14.33727 24.368942,28.079 37.521512,41.32594 l 1.54509,1.55701 1.54509,-1.55701" /><rect
       style="fill:#ffffff;fill-opacity:1;fill-rule:evenodd;stroke-width:1.0567584"
       id="rect330"
       width="235.37849"
       height="214.32553"
       x="19.024954"
       y="-315.01782"
       transform="scale(1,-1)" /><path
       inkscape:connector-curvature="0"
       id="path43"
       style="fill:#013668;fill-opacity:1;fill-rule:nonzero;stroke:none;stroke-width:0.07165916"
       d="m 131.37598,312.91481 c 6.54325,-6.65372 13.00043,-13.4825 19.33664,-20.5071 6.33175,-7.02045 12.44755,-14.13293 18.29173,-21.33882 4.95513,-6.11054 9.76257,-12.33595 14.36371,-18.68037 4.58184,-6.31675 8.98854,-12.79541 13.17037,-19.44774 6.31098,-10.04217 12.19301,-20.6192 17.10658,-31.52352 4.92841,-10.93685 8.9069,-22.25357 11.40265,-33.75988 0.9692,-4.46926 1.71578,-8.98626 2.18925,-13.52264 0.47273,-4.5426 0.67458,-9.11427 0.5551,-13.68662 -0.10761,-4.07693 -0.46679,-8.12272 -1.10798,-12.10415 -0.61893,-3.84769 -1.50428,-7.67441 -2.68424,-11.45442 -2.15734,-6.91486 -5.22081,-13.40182 -9.15626,-19.373564 C 210.92737,91.57469 206.14145,86.127303 200.51767,81.257203 191.16475,73.157946 180.07379,67.125106 168.17021,63.059376 155.51041,58.735274 141.91629,56.63323 128.50769,56.632419 115.10058,56.631608 101.50578,58.732576 88.845981,63.055861 76.943365,67.120193 65.853072,73.151718 56.501192,81.250422 50.878753,86.119691 46.09298,91.566594 42.178305,97.50706 c -3.935232,5.97146 -6.998222,12.45843 -9.155294,19.37384 -1.178402,3.77918 -2.064306,7.60597 -2.682639,11.45269 -0.63979,3.98143 -0.998964,8.02861 -1.105644,12.10484 -0.119434,4.57305 0.08262,9.14402 0.557169,13.68732 0.473387,4.53637 1.220144,9.05337 2.190122,13.52194 2.496821,11.50701 6.476713,22.82442 11.406013,33.76126 4.914828,10.90571 10.798715,21.48274 17.111026,31.52422 4.18258,6.65372 8.589428,13.13307 13.17149,19.44981 4.602248,6.34511 9.409247,12.57121 14.366079,18.68245 5.844999,7.20658 11.961095,14.31906 18.294333,21.34089 6.28649,6.96925 12.74737,13.79942 19.33812,20.50157 l 1.5451,1.5721 c 0.66122,0.67326 1.78256,0.72031 2.50465,0.10379 0.0393,-0.0332 0.0772,-0.0678 0.11206,-0.10379 l 1.54138,-1.56795 z m 16.62271,-22.63413 c -6.19966,6.87375 -12.63086,13.67001 -19.23868,20.38947 l 0.004,0.003 -0.004,0.003 -0.23748,0.24149 -0.23748,-0.24149 c -6.56107,-6.6724 -12.99004,-13.46866 -19.2409,-20.39916 C 102.84011,283.4 96.77099,276.33665 90.87523,269.0671 85.964187,263.0126 81.194888,256.83494 76.620173,250.52788 72.025123,244.19315 67.652116,237.76984 63.560297,231.26005 57.350324,221.38188 51.54666,210.94115 46.671609,200.12402 41.811327,189.34009 37.897542,178.23026 35.4607,166.99934 c -0.944754,-4.35232 -1.672379,-8.75653 -2.134756,-13.18566 -0.46208,-4.4229 -0.65892,-8.86448 -0.543253,-13.29706 0.101752,-3.8984 0.451943,-7.80857 1.078105,-11.70213 0.599491,-3.73303 1.448868,-7.41382 2.571612,-11.01275 2.059349,-6.60314 4.996802,-12.81575 8.779306,-18.555898 3.754971,-5.697178 8.336069,-10.914633 13.710639,-15.568708 8.987797,-7.78387 19.668738,-13.587815 31.148124,-17.508362 12.275683,-4.191366 25.450883,-6.228542 38.437213,-6.228002 12.98633,0 26.1619,2.038525 38.43877,6.232361 11.47909,3.9211 22.16114,9.726084 31.15042,17.510438 5.37517,4.655251 9.95701,9.873191 13.71287,15.570923 3.78258,5.740428 6.72136,11.953518 8.78074,18.556728 1.12357,3.59893 1.9733,7.27944 2.57367,11.01295 0.62635,3.89426 0.97737,7.80442 1.07904,11.70145 0.11726,4.43327 -0.0794,8.87485 -0.541,13.29775 -0.4616,4.42912 -1.18962,8.83334 -2.13285,13.18496 -2.43638,11.23023 -6.34883,22.34076 -11.20748,33.12399 -4.87349,10.81645 -10.67611,21.25648 -16.88468,31.13465 -4.0913,6.5091 -8.4646,12.93241 -13.05905,19.26645 -4.57294,6.30636 -9.34179,12.48333 -14.25239,18.53783 -5.89539,7.26886 -11.96295,14.33152 -18.16706,21.20943" /><path
       inkscape:connector-curvature="0"
       id="path45"
       style="fill:#ffffff;fill-opacity:1;fill-rule:evenodd;stroke:none;stroke-width:0.07165916"
       d="m 113.77515,178.65373 c -2.81114,2.85841 -6.27387,4.16964 -10.42276,4.16964 -4.253893,0 -7.787045,-1.28424 -10.298968,-4.55436 -2.70235,-3.51715 -3.740426,-7.61829 -3.740426,-11.90487 0,-4.49417 0.75518,-9.82005 4.099908,-13.30814 2.701163,-2.81759 5.994314,-4.18486 10.046796,-4.18486 4.12321,0 7.48427,1.42609 10.25682,4.26513 3.33954,3.41889 4.2657,8.19675 4.2657,12.67708 0,4.46372 -0.85343,9.4291 -4.20707,12.84038" /><path
       inkscape:connector-curvature="0"
       id="path47"
       style="fill:#013668;fill-opacity:1;fill-rule:nonzero;stroke:none;stroke-width:0.07165916"
       d="m 112.4668,177.53071 c -1.23415,1.25587 -2.59668,2.16647 -4.08982,2.75531 -1.50279,0.5923 -3.17627,0.87669 -5.02459,0.87669 -1.88461,0 -3.588881,-0.27539 -5.072227,-0.9016 -1.443347,-0.6096 -2.713408,-1.57071 -3.77961,-2.95805 -1.229097,-1.60047 -2.078748,-3.32825 -2.619159,-5.13906 -0.548425,-1.8378 -0.787016,-3.78908 -0.787016,-5.79986 0,-2.14849 0.175956,-4.47687 0.739818,-6.64196 0.544121,-2.08828 1.446537,-4.04717 2.900644,-5.56391 1.180414,-1.23097 2.480828,-2.14156 3.918386,-2.7394 1.427164,-0.59438 3.023534,-0.88776 4.806474,-0.88776 1.81597,0 3.4464,0.30791 4.91134,0.9189 1.4694,0.61444 2.8067,1.54925 4.03045,2.80167 1.46717,1.50221 2.4104,3.32133 2.98851,5.26638 0.59741,2.01009 0.81039,4.17864 0.81039,6.29529 0,2.11527 -0.1974,4.33294 -0.78293,6.39286 -0.56327,1.9838 -1.48869,3.8382 -2.95066,5.3245 z m -2.71245,5.80401 c 1.97701,-0.77982 3.7529,-1.95612 5.32916,-3.55866 1.89091,-1.9236 3.07014,-4.25822 3.7707,-6.72637 0.67978,-2.38997 0.9091,-4.88719 0.9091,-7.23634 0,-2.36229 -0.2501,-4.82284 -0.94992,-7.17752 -0.71911,-2.41834 -1.91021,-4.69898 -3.78183,-6.61566 -1.54955,-1.58524 -3.27868,-2.78438 -5.21338,-3.59257 -1.9399,-0.81096 -4.05197,-1.21782 -6.35848,-1.21782 -2.26932,0 -4.346138,0.39164 -6.253605,1.1853 -1.897004,0.7902 -3.5946,1.97273 -5.115052,3.55797 -1.890102,1.97134 -3.038085,4.42013 -3.707476,6.99069 -0.649354,2.49169 -0.851358,5.07402 -0.851358,7.4204 0,2.2751 0.280595,4.51838 0.926461,6.68209 0.653732,2.18999 1.674738,4.27205 3.147621,6.19011 1.445721,1.8807 3.198382,3.19747 5.212789,4.04787 1.974183,0.8331 4.16462,1.20052 6.53331,1.20052 2.30027,0 4.43312,-0.37296 6.40196,-1.15001" /><path
       inkscape:connector-curvature="0"
       id="path49"
       style="fill:#ffffff;fill-opacity:1;fill-rule:evenodd;stroke:none;stroke-width:0.07165916"
       d="m 145.6714,184.81617 -42.06401,-75.56636 h 7.89094 l 41.92079,75.56636 h -7.74772" /><path
       inkscape:connector-curvature="0"
       id="path51"
       style="fill:#013668;fill-opacity:1;fill-rule:nonzero;stroke:none;stroke-width:0.07165916"
       d="m 146.74822,183.15551 -40.21466,-72.24476 h 3.88647 l 40.07663,72.24476 z m -44.71977,-73.14678 42.00361,75.45994 c 0.27236,0.593 0.90316,1.00816 1.63934,1.00816 h 7.74772 v -0.004 c 0.27459,0 0.55288,-0.0588 0.81411,-0.18406 0.87124,-0.41931 1.2141,-1.41848 0.76512,-2.23151 l -41.85994,-75.45738 c -0.27161,-0.5941 -0.90315,-1.01086 -1.64008,-1.01086 h -7.89094 v 0.004 c -0.27414,0 -0.55273,0.059 -0.81366,0.18434 -0.87229,0.41897 -1.21463,1.41848 -0.76528,2.23151" /><path
       inkscape:connector-curvature="0"
       id="path53"
       style="fill:#ffffff;fill-opacity:1;fill-rule:evenodd;stroke:none;stroke-width:0.07165916"
       d="m 153.08368,145.19484 c -4.26124,0 -7.82415,-1.26348 -10.35849,-4.52876 -2.72357,-3.50884 -3.73508,-7.65219 -3.73508,-11.93047 0,-4.50822 0.76216,-9.79189 4.10392,-13.29534 2.6924,-2.82264 5.9926,-4.19767 10.04309,-4.19767 4.14399,0 7.53918,1.40285 10.32658,4.26306 3.33879,3.42643 4.25011,8.21274 4.25011,12.69646 0,4.45126 -0.84305,9.41941 -4.19,12.82308 -2.8156,2.86256 -6.28723,4.16964 -10.44013,4.16964" /><path
       inkscape:connector-curvature="0"
       id="path55"
       style="fill:#013668;fill-opacity:1;fill-rule:nonzero;stroke:none;stroke-width:0.07165916"
       d="m 153.08368,143.53418 c -1.89685,0 -3.61263,-0.27124 -5.1028,-0.89053 -1.4553,-0.60545 -2.73842,-1.5631 -3.81598,-2.95044 -1.23488,-1.59216 -2.0809,-3.32271 -2.61671,-5.13837 -0.54471,-1.84402 -0.77625,-3.80637 -0.77625,-5.81923 0,-2.15402 0.17662,-4.47528 0.74286,-6.63539 0.54323,-2.07583 1.44787,-4.02683 2.90836,-5.55747 1.18071,-1.23844 2.47868,-2.15201 3.90651,-2.74861 1.42858,-0.5968 3.0271,-0.89136 4.80745,-0.89136 1.82487,0 3.47237,0.30404 4.95586,0.91627 1.4835,0.61272 2.83119,1.54553 4.05568,2.80237 1.46717,1.50601 2.40669,3.32645 2.98035,5.27067 0.59369,2.01064 0.80297,4.18576 0.80297,6.31003 0,2.10973 -0.19518,4.32533 -0.777,6.38248 -0.56104,1.9831 -1.48126,3.83543 -2.93953,5.31827 -1.23637,1.25726 -2.60186,2.16716 -4.09872,2.756 -1.50427,0.593 -3.1822,0.87531 -5.03305,0.87531 z m -6.54993,2.13257 c 1.98962,0.82756 4.18629,1.18876 6.54993,1.18876 2.30131,0 4.43713,-0.37088 6.41042,-1.14794 1.98072,-0.77982 3.75883,-1.95473 5.33806,-3.56073 1.88869,-1.92014 3.06273,-4.25337 3.75957,-6.71877 0.67607,-2.38927 0.90242,-4.88373 0.90242,-7.22595 0,-2.35953 -0.24564,-4.82021 -0.94175,-7.17932 -0.71614,-2.42554 -1.90279,-4.71303 -3.77441,-6.63262 -1.56068,-1.60281 -3.30614,-2.80292 -5.25272,-3.60647 -1.94583,-0.80411 -4.06903,-1.20198 -6.38815,-1.20198 -2.2694,0 -4.34733,0.39296 -6.25458,1.1898 -1.9065,0.79684 -3.60595,1.982 -5.1169,3.56565 -1.88202,1.97259 -3.02933,4.41598 -3.70243,6.98461 -0.6501,2.48393 -0.85418,5.05983 -0.85418,7.41382 0,2.26472 0.27384,4.51354 0.91651,6.68831 0.64936,2.20384 1.67125,4.29835 3.1592,6.21503 1.45752,1.87724 3.22377,3.18501 5.24901,4.0278" /><path
       inkscape:connector-curvature="0"
       id="path57"
       style="fill:#ffffff;fill-opacity:1;fill-rule:evenodd;stroke:none;stroke-width:0.07165916"
       d="m 108.04525,171.40771 c -1.22078,1.24134 -2.72431,1.81081 -4.52543,1.81081 -1.84766,0 -3.38206,-0.55701 -4.472604,-1.97757 -1.173512,-1.52712 -1.624274,-3.30818 -1.624274,-5.16951 0,-1.95127 0.328164,-4.26444 1.78049,-5.77841 1.172918,-1.22335 2.603208,-1.81773 4.362398,-1.81773 1.79073,0 3.24973,0.61929 4.45419,1.85233 1.4501,1.48491 1.85233,3.55935 1.85233,5.5044 0,1.93883 -0.37032,4.09492 -1.8271,5.57568" /><path
       inkscape:connector-curvature="0"
       id="path59"
       style="fill:#013668;fill-opacity:1;fill-rule:nonzero;stroke:none;stroke-width:0.07165916"
       d="m 106.73764,170.28607 c -0.44007,0.4463 -0.91503,0.76667 -1.42635,0.96802 -0.52022,0.20551 -1.11763,0.30446 -1.79147,0.30446 -0.68201,0 -1.28439,-0.0941 -1.7894,-0.30722 -0.46553,-0.19721 -0.88038,-0.51412 -1.23578,-0.97703 -0.46471,-0.60475 -0.785306,-1.25449 -0.987978,-1.93398 -0.210465,-0.70578 -0.302042,-1.47037 -0.302042,-2.26888 0,-0.87669 0.06872,-1.81565 0.289277,-2.66467 0.200892,-0.77013 0.523273,-1.48145 1.031473,-2.01147 0.41625,-0.43385 0.8688,-0.75284 1.36305,-0.95834 0.48386,-0.20205 1.04097,-0.301 1.67741,-0.301 0.65009,0 1.22227,0.10518 1.7232,0.31483 0.50686,0.21174 0.97737,0.54249 1.41596,0.99225 0.52245,0.53556 0.86234,1.19429 1.0731,1.90561 0.2308,0.77498 0.31318,1.63437 0.31318,2.48338 0,0.85248 -0.0772,1.73678 -0.30501,2.53805 -0.20706,0.72861 -0.53656,1.39911 -1.04565,1.91875 z m -0.049,4.01742 c 0.99593,-0.39303 1.8835,-0.9791 2.66421,-1.77345 l -0.003,-0.003 0.003,-0.003 c 0.94546,-0.96111 1.52876,-2.10835 1.87014,-3.31025 0.32133,-1.13133 0.43042,-2.29518 0.43042,-3.38153 0,-1.09465 -0.11948,-2.24604 -0.45195,-3.3663 -0.3525,-1.18391 -0.93952,-2.30486 -1.86642,-3.2542 -0.76513,-0.78259 -1.62673,-1.37766 -2.59816,-1.78383 -0.97737,-0.40825 -2.03044,-0.61306 -3.17107,-0.61306 -1.12283,0 -2.1612,0.19789 -3.12454,0.59922 -0.953997,0.39648 -1.803723,0.9874 -2.559719,1.77622 -0.944494,0.98463 -1.512067,2.18653 -1.838525,3.43964 -0.305827,1.17423 -0.400892,2.36714 -0.400892,3.44172 0,1.06283 0.133952,2.12012 0.441486,3.15111 0.316291,1.05867 0.808242,2.06268 1.516742,2.98504 0.734846,0.95696 1.632364,1.62883 2.668728,2.06683 0.99608,0.42001 2.08462,0.60545 3.25071,0.60545 1.12653,0 2.18182,-0.18682 3.16884,-0.57638" /><path
       inkscape:connector-curvature="0"
       id="path61"
       style="fill:#ffffff;fill-opacity:1;fill-rule:evenodd;stroke:none;stroke-width:0.07165916"
       d="m 157.74938,133.77918 c -1.22078,1.24134 -2.72431,1.8115 -4.52544,1.8115 -1.84713,0 -3.38109,-0.5577 -4.472,-1.97826 -1.17329,-1.52712 -1.6245,-3.30818 -1.6245,-5.16951 0,-1.95127 0.32802,-4.26416 1.78034,-5.77862 1.17329,-1.2239 2.60261,-1.81773 4.36218,-1.81773 1.79073,0 3.24973,0.6195 4.45419,1.85233 1.4501,1.48526 1.85233,3.55956 1.85233,5.5053 0,1.93744 -0.37032,4.09492 -1.8271,5.57499" /><path
       inkscape:connector-curvature="0"
       id="path63"
       style="fill:#013668;fill-opacity:1;fill-rule:nonzero;stroke:none;stroke-width:0.07165916"
       d="m 156.44177,132.65754 c -0.44008,0.44699 -0.91503,0.76667 -1.42635,0.96802 -0.51948,0.20551 -1.11763,0.30377 -1.79148,0.30377 -0.682,0 -1.2846,-0.0941 -1.78924,-0.30653 -0.46531,-0.19721 -0.88016,-0.51343 -1.23563,-0.97703 -0.46531,-0.60406 -0.78516,-1.25518 -0.98776,-1.93328 -0.21076,-0.70648 -0.30278,-1.47107 -0.30278,-2.26958 0,-0.876 0.069,-1.81635 0.28942,-2.66404 0.20112,-0.77034 0.5232,-1.48201 1.03155,-2.01183 0.41633,-0.43461 0.86902,-0.75325 1.36327,-0.95868 0.48312,-0.20136 1.04119,-0.30086 1.67719,-0.30086 0.64935,0 1.22227,0.10545 1.7232,0.3149 0.50612,0.21167 0.97662,0.54276 1.41596,0.99197 0.52245,0.53515 0.86234,1.19471 1.07384,1.90554 0.23006,0.77519 0.31169,1.63389 0.31169,2.48428 0,0.85179 -0.0764,1.73609 -0.30427,2.53667 -0.20556,0.72515 -0.53506,1.39426 -1.04861,1.91668 z m -0.0482,4.01742 c 0.99518,-0.39234 1.8835,-0.9791 2.66347,-1.77345 0.94397,-0.95834 1.52728,-2.10835 1.87013,-3.31648 0.32208,-1.13064 0.43043,-2.29518 0.43043,-3.38084 0,-1.09603 -0.11874,-2.24673 -0.45195,-3.36678 -0.3525,-1.18385 -0.93952,-2.30472 -1.86642,-3.25428 -0.76513,-0.78307 -1.62673,-1.37765 -2.5989,-1.78389 -0.97589,-0.40818 -2.02896,-0.61306 -3.17033,-0.61306 -1.12209,0 -2.16031,0.19761 -3.12432,0.59901 -0.95437,0.39731 -1.80335,0.98706 -2.55957,1.77629 -0.94397,0.9847 -1.51169,2.18667 -1.83897,3.43943 -0.30501,1.17451 -0.40074,2.36811 -0.40074,3.442 0,1.06214 0.13432,2.12012 0.44156,3.15111 0.3154,1.05867 0.80816,2.06268 1.51689,2.98573 0.73469,0.95558 1.63266,1.62814 2.66866,2.06545 0.99592,0.4207 2.08535,0.60614 3.25047,0.60614 1.12728,0 2.18258,-0.18751 3.16959,-0.57638" /><rect
       style="fill:#ffffff;fill-opacity:1;fill-rule:evenodd;stroke-width:0.75"
       id="rect332"
       width="8.406374"
       height="12.830783"
       x="135.38689"
       y="-293.33823"
       transform="scale(1,-1)" /></g></svg>