<?xml version="1.0" encoding="UTF-8" standalone="no"?>
<!-- Created with Inkscape (http://www.inkscape.org/) -->

<svg
   xmlns:dc="http://purl.org/dc/elements/1.1/"
   xmlns:cc="http://creativecommons.org/ns#"
   xmlns:rdf="http://www.w3.org/1999/02/22-rdf-syntax-ns#"
   xmlns:svg="http://www.w3.org/2000/svg"
   xmlns="http://www.w3.org/2000/svg"
   xmlns:sodipodi="http://sodipodi.sourceforge.net/DTD/sodipodi-0.dtd"
   xmlns:inkscape="http://www.inkscape.org/namespaces/inkscape"
   version="1.1"
   id="svg8519"
   xml:space="preserve"
   width="149.65334"
   height="491.51999"
   viewBox="0 0 149.65334 491.51999"
   sodipodi:docname="MildTemp.svg"
   inkscape:version="0.92.3 (2405546, 2018-03-11)"><metadata
     id="metadata8525"><rdf:RDF><cc:Work
         rdf:about=""><dc:format>image/svg+xml</dc:format><dc:type
           rdf:resource="http://purl.org/dc/dcmitype/StillImage" /><dc:title></dc:title></cc:Work></rdf:RDF></metadata><defs
     id="defs8523" /><sodipodi:namedview
     pagecolor="#ffffff"
     bordercolor="#666666"
     borderopacity="1"
     objecttolerance="10"
     gridtolerance="10"
     guidetolerance="10"
     inkscape:pageopacity="0"
     inkscape:pageshadow="2"
     inkscape:window-width="1853"
     inkscape:window-height="1025"
     id="namedview8521"
     showgrid="false"
     inkscape:zoom="0.48014324"
     inkscape:cx="74.826668"
     inkscape:cy="245.75999"
     inkscape:window-x="67"
     inkscape:window-y="27"
     inkscape:window-maximized="1"
     inkscape:current-layer="g8527" /><g
     id="g8527"
     inkscape:groupmode="layer"
     inkscape:label="ink_ext_XXXXXX"
     transform="matrix(1.3333333,0,0,-1.3333333,0,491.52)"><g
       id="g8529"
       transform="scale(0.1)"><path
         d="m 252.051,3384.27 c 3.051,167.37 140.289,302.13 309.172,302.13 168.879,0 306.117,-134.76 309.164,-302.13 L 881.918,1017.11 C 1027.3,916.152 1122.44,748.469 1122.44,558.645 1122.44,250.117 871.168,0 561.223,0 251.266,0 0,250.117 0,558.645 0,748.469 95.1367,916.152 240.523,1017.11 l 11.528,2367.16"
         style="fill:#bdbdbd;fill-opacity:1;fill-rule:evenodd;stroke:none"
         id="path8531"
         inkscape:connector-curvature="0" /><path
         d="M 765.66,908.469 C 884.652,839.57 964.711,710.891 964.711,563.496 c 0,-220.008 -178.348,-398.359 -398.348,-398.359 -220.008,0 -398.355,178.351 -398.355,398.359 0,141.406 73.687,265.598 184.75,336.281 V 1973.15 H 765.66 V 908.469"
         style="fill:#e64a19;fill-opacity:1;fill-rule:evenodd;stroke:none"
         id="path8533"
         inkscape:connector-curvature="0" /><path
         d="M 765.66,908.469 C 884.652,839.57 964.711,710.891 964.711,563.496 c 0,-220.008 -178.348,-398.359 -398.348,-398.359 -2.394,0 -4.769,0.051 -7.148,0.097 V 1973.15 H 765.66 V 908.469"
         style="fill:#d14519;fill-opacity:1;fill-rule:evenodd;stroke:none"
         id="path8535"
         inkscape:connector-curvature="0" /><path
         d="m 875.551,2324.72 0.332,-69.56 H 482.008 c -46.953,0 -61.031,15.57 -61.031,34.78 0,19.21 14.078,34.78 61.031,34.78 h 393.543"
         style="fill:#616161;fill-opacity:1;fill-rule:evenodd;stroke:none"
         id="path8537"
         inkscape:connector-curvature="0" /><path
         d="m 875.551,2647.01 0.332,-69.57 H 482.008 c -46.953,0 -61.031,15.58 -61.031,34.79 0,19.21 14.078,34.78 61.031,34.78 h 393.543"
         style="fill:#616161;fill-opacity:1;fill-rule:evenodd;stroke:none"
         id="path8539"
         inkscape:connector-curvature="0" /><path
         d="m 875.551,2969.29 0.332,-69.56 H 482.008 c -46.953,0 -61.031,15.57 -61.031,34.78 0,19.21 14.078,34.78 61.031,34.78 h 393.543"
         style="fill:#616161;fill-opacity:1;fill-rule:evenodd;stroke:none"
         id="path8541"
         inkscape:connector-curvature="0" /><path
         d="m 875.551,3291.58 0.332,-69.57 H 482.008 c -46.953,0 -61.031,15.58 -61.031,34.79 0,19.21 14.078,34.78 61.031,34.78 h 393.543"
         style="fill:#616161;fill-opacity:1;fill-rule:evenodd;stroke:none"
         id="path8543"
         inkscape:connector-curvature="0" /></g></g></svg>