<?xml version="1.0" encoding="UTF-8" standalone="no"?>
<!-- Created with Inkscape (http://www.inkscape.org/) -->

<svg
   xmlns:dc="http://purl.org/dc/elements/1.1/"
   xmlns:cc="http://creativecommons.org/ns#"
   xmlns:rdf="http://www.w3.org/1999/02/22-rdf-syntax-ns#"
   xmlns:svg="http://www.w3.org/2000/svg"
   xmlns="http://www.w3.org/2000/svg"
   xmlns:sodipodi="http://sodipodi.sourceforge.net/DTD/sodipodi-0.dtd"
   xmlns:inkscape="http://www.inkscape.org/namespaces/inkscape"
   width="70.442665mm"
   height="38.015297mm"
   viewBox="0 0 70.442665 38.015297"
   version="1.1"
   id="svg2070"
   inkscape:version="0.92.3 (2405546, 2018-03-11)"
   sodipodi:docname="strongWind.svg">
  <defs
     id="defs2064">
    <clipPath
       clipPathUnits="userSpaceOnUse"
       id="clipPath660">
      <path
         d="M 0,612 H 792 V 0 H 0 Z"
         id="path658"
         inkscape:connector-curvature="0" />
    </clipPath>
    <clipPath
       clipPathUnits="userSpaceOnUse"
       id="clipPath668">
      <path
         d="M 76.7998,236.76 H 276.48 V 129 H 76.7998 Z"
         id="path666"
         inkscape:connector-curvature="0" />
    </clipPath>
  </defs>
  <sodipodi:namedview
     id="base"
     pagecolor="#ffffff"
     bordercolor="#666666"
     borderopacity="1.0"
     inkscape:pageopacity="0.0"
     inkscape:pageshadow="2"
     inkscape:zoom="0.35"
     inkscape:cx="701.69144"
     inkscape:cy="214.69708"
     inkscape:document-units="mm"
     inkscape:current-layer="layer1"
     showgrid="false"
     fit-margin-top="0"
     fit-margin-left="0"
     fit-margin-right="0"
     fit-margin-bottom="0"
     inkscape:window-width="1853"
     inkscape:window-height="1025"
     inkscape:window-x="67"
     inkscape:window-y="27"
     inkscape:window-maximized="1" />
  <metadata
     id="metadata2067">
    <rdf:RDF>
      <cc:Work
         rdf:about="">
        <dc:format>image/svg+xml</dc:format>
        <dc:type
           rdf:resource="http://purl.org/dc/dcmitype/StillImage" />
        <dc:title></dc:title>
      </cc:Work>
    </rdf:RDF>
  </metadata>
  <g
     inkscape:label="Layer 1"
     inkscape:groupmode="layer"
     id="layer1"
     transform="translate(79.822528,-167.62331)">
    <g
       transform="matrix(0.35277777,0,0,-0.35277777,-106.91579,251.14697)"
       id="g654">
      <g
         id="g656"
         clip-path="url(#clipPath660)">
        <g
           id="g662">
          <g
             id="g664" />
          <g
             id="g752">
            <g
               clip-path="url(#clipPath668)"
               id="g750">
              <g
                 transform="translate(205.1997,234.5996)"
                 id="g672">
                <path
                   d="M 0,0 C 0.259,0.397 2.141,0.397 2.4,0 Z"
                   style="fill:#595d9b;fill-opacity:1;fill-rule:evenodd;stroke:none"
                   id="path670"
                   inkscape:connector-curvature="0" />
              </g>
              <g
                 transform="translate(142.7998,219.2402)"
                 id="g676">
                <path
                   d="m 0,0 c -2.087,-4.864 -0.122,-10.408 1.2,-14.641 -5.09,-2.429 -10.952,-4.088 -14.16,-8.399 -4.737,-1.226 -8.79,-11.22 -9.36,-17.761 -0.148,-1.692 -0.212,-4.349 0.24,-5.519 0.467,-1.211 2.305,-1.978 3.84,-3.12 2.636,-1.963 4.755,-3.091 9.36,-2.64 -3.923,-14.826 4.239,-23.29 13.92,-26.881 1.269,-12.838 -20.845,-11.729 -19.92,0 -3.992,1.828 -4.612,-2.621 -7.44,-3.119 -7.294,-1.286 -15.714,9.945 -11.76,18.239 -0.543,0.818 -1.841,0.88 -3.12,0.96 -2.117,-4.79 -11.52,-4.662 -14.16,-0.72 -2.306,3.444 -1.698,10.901 0.48,14.64 0.877,1.507 2.569,1.959 2.88,3.841 -2.646,3.046 -4.383,-0.697 -8.88,-0.24 -4.069,0.413 -7.422,4.645 -6.96,9.12 0.67,6.494 8.495,13.824 16.56,13.2 0.854,-0.066 5.304,-1.939 5.76,0.479 0.318,1.689 -2.214,2.025 -2.88,3.121 -2.927,4.816 2.114,10.814 5.04,12.719 3.225,2.101 9.051,3.012 13.2,1.441 1.422,-0.539 2.295,-2.563 4.08,-2.401 3.476,0.318 -0.367,6.501 2.64,8.401 3.461,1.533 7.94,4.13 12.72,2.639 C -4.402,2.637 -2.218,0.297 0,0"
                   style="fill:#629ea5;fill-opacity:1;fill-rule:evenodd;stroke:none"
                   id="path674"
                   inkscape:connector-curvature="0" />
              </g>
              <g
                 transform="translate(223.4399,216.3594)"
                 id="g680">
                <path
                   d="M 0,0 C 0.398,-0.649 0.398,-2.95 0,-3.6 Z"
                   style="fill:#595d9b;fill-opacity:1;fill-rule:evenodd;stroke:none"
                   id="path678"
                   inkscape:connector-curvature="0" />
              </g>
              <g
                 transform="translate(226.3198,213.2402)"
                 id="g684">
                <path
                   d="M 0,0 C 0.397,-0.337 0.397,-2.305 0,-2.641 Z"
                   style="fill:#595d9b;fill-opacity:1;fill-rule:evenodd;stroke:none"
                   id="path682"
                   inkscape:connector-curvature="0" />
              </g>
              <g
                 transform="translate(96.48,198.5996)"
                 id="g688">
                <path
                   d="m 0,0 c 0.279,-0.04 0.26,-0.379 0.24,-0.72 h -1.92 c 0.103,0.536 1.182,0.097 1.68,0.241 z"
                   style="fill:#595d9b;fill-opacity:1;fill-rule:evenodd;stroke:none"
                   id="path686"
                   inkscape:connector-curvature="0" />
              </g>
              <g
                 transform="translate(226.5596,188.5195)"
                 id="g692">
                <path
                   d="M 0,0 H 3.36 C 2.79,-0.398 0.571,-0.398 0,0"
                   style="fill:#75b4bc;fill-opacity:1;fill-rule:evenodd;stroke:none"
                   id="path690"
                   inkscape:connector-curvature="0" />
              </g>
              <g
                 transform="translate(226.5596,180.8398)"
                 id="g696">
                <path
                   d="M 0,0 C 0.808,-0.152 2.229,0.31 2.64,-0.24 1.832,-0.088 0.411,-0.549 0,0"
                   style="fill:#595d9b;fill-opacity:1;fill-rule:evenodd;stroke:none"
                   id="path694"
                   inkscape:connector-curvature="0" />
              </g>
              <g
                 transform="translate(231.1196,180.5996)"
                 id="g700">
                <path
                   d="M 0,0 C 0.411,0.55 1.832,0.088 2.64,0.24 2.229,-0.309 0.808,0.152 0,0"
                   style="fill:#595d9b;fill-opacity:1;fill-rule:evenodd;stroke:none"
                   id="path698"
                   inkscape:connector-curvature="0" />
              </g>
              <g
                 transform="translate(203.52,178.6797)"
                 id="g704">
                <path
                   d="M 0,0 C 0.414,0.398 2.466,0.398 2.88,0 Z"
                   style="fill:#595d9b;fill-opacity:1;fill-rule:evenodd;stroke:none"
                   id="path702"
                   inkscape:connector-curvature="0" />
              </g>
              <g
                 transform="translate(122.8799,177.96)"
                 id="g708">
                <path
                   d="M 0,0 V -2.641 C -0.398,-2.304 -0.398,-0.336 0,0"
                   style="fill:#595d9b;fill-opacity:1;fill-rule:evenodd;stroke:none"
                   id="path706"
                   inkscape:connector-curvature="0" />
              </g>
              <g
                 transform="translate(247.9199,177.7197)"
                 id="g712">
                <path
                   d="M 0,0 C 0.398,-0.729 0.398,-3.111 0,-3.84 Z"
                   style="fill:#595d9b;fill-opacity:1;fill-rule:evenodd;stroke:none"
                   id="path710"
                   inkscape:connector-curvature="0" />
              </g>
              <g
                 transform="translate(228.48,155.8799)"
                 id="g716">
                <path
                   d="M 0,0 C -0.571,-0.398 -2.79,-0.398 -3.36,0 Z"
                   style="fill:#595d9b;fill-opacity:1;fill-rule:evenodd;stroke:none"
                   id="path714"
                   inkscape:connector-curvature="0" />
              </g>
              <g
                 transform="translate(245.2798,154.2002)"
                 id="g720">
                <path
                   d="M 0,0 C 0.398,-0.414 0.398,-2.467 0,-2.881 Z"
                   style="fill:#595d9b;fill-opacity:1;fill-rule:evenodd;stroke:none"
                   id="path718"
                   inkscape:connector-curvature="0" />
              </g>
              <g
                 transform="translate(221.7598,150.8398)"
                 id="g724">
                <path
                   d="M 0,0 C 0.398,-0.414 0.398,-2.466 0,-2.88 Z"
                   style="fill:#595d9b;fill-opacity:1;fill-rule:evenodd;stroke:none"
                   id="path722"
                   inkscape:connector-curvature="0" />
              </g>
              <g
                 transform="translate(198.96,136.6797)"
                 id="g728">
                <path
                   d="M 0,0 C 0.647,0.553 2.314,0.085 3.36,0.24 2.713,-0.313 1.045,0.155 0,0"
                   style="fill:#629ea5;fill-opacity:1;fill-rule:evenodd;stroke:none"
                   id="path726"
                   inkscape:connector-curvature="0" />
              </g>
              <g
                 transform="translate(122.8799,177.96)"
                 id="g732">
                <path
                   d="m 0,0 c 0.221,8.099 4.241,12.399 7.68,17.28 3.619,0.742 5.588,4.54 9.12,5.76 2.551,0.881 5.762,0.091 8.4,1.68 -0.863,4.358 -3.029,5.342 -3.36,9.84 -0.884,12.022 9.433,20.368 22.08,20.4 4.272,0.011 9.874,-0.85 13.44,-3.601 1.338,-1.031 3.818,-6.025 6,-6 1.538,0.019 2.42,2.519 3.36,3.601 3.471,3.995 9.088,7.544 15.6,7.68 h 2.4 c 5.009,-0.473 8.833,-1.355 11.04,-4.56 1.243,-1.806 1.461,-5.163 2.64,-8.16 0.769,-1.955 2.382,-2.63 2.16,-5.521 V 34.8 c 0.391,-2.471 -0.438,-3.722 -1.2,-5.04 0.315,-3.766 6.116,-3.323 6.72,-6 -4.961,-1.644 -10.068,-3.439 -15.6,-3.84 1.835,-3.208 5.124,-3.452 10.08,-3.12 3.807,0.255 8.451,2.14 10.56,1.679 2.23,-0.487 3.307,-4.354 5.04,-4.799 -7.939,-1.674 -18.791,-1.883 -26.16,0.96 -1.625,0.627 -3.229,1.505 -4.8,2.16 -1.785,0.745 -3.719,0.986 -5.28,1.679 -1.854,0.824 -3.127,2.671 -4.8,3.361 -6.392,2.634 -14.6,-0.204 -17.28,-4.32 -1.622,-2.492 -2.888,-6.099 -2.64,-9.84 0.434,-6.538 8.084,-11.559 14.64,-7.92 1.125,0.625 1.69,1.419 2.16,3.12 -2.156,1.417 -2.956,-1.286 -5.04,-0.96 -4.621,0.722 -3.299,9.954 0.48,11.519 6.287,0.247 9.488,-1.808 13.92,-4.559 4.39,-2.726 8.049,-4.543 12,-6.72 0.115,-0.063 0.462,-0.233 0.48,-0.24 7.647,-2.801 18.36,-1.231 26.64,0.24 3.374,-2.936 2.134,-14.045 -2.4,-14.16 -1.94,-0.05 -3.83,3.578 -6.72,5.04 -1.184,0.599 -2.494,0.558 -3.36,0.96 -1.026,0.476 -1.655,1.558 -2.4,1.92 -1.406,0.684 -3.588,0.935 -5.28,1.439 -4.964,1.48 -10.933,3.439 -16.8,3.361 -0.414,0.398 -2.466,0.398 -2.88,0 -2.015,-0.225 -3.616,-0.865 -4.32,-2.401 0.707,-2.004 3.137,-1.091 4.56,-1.199 8.225,-0.624 13.937,-4.238 20.16,-7.2 3.975,-1.893 7.915,-4.114 10.08,-7.441 -2.771,-2.015 -5.948,-3.365 -10.32,-2.879 -3.083,0.342 -6.464,2.89 -8.88,0.96 -0.185,-3.084 2.757,-2.993 3.84,-4.32 1.581,-1.939 1.494,-4.482 0.48,-7.2 -1.024,-2.745 -1.924,-4.497 -4.32,-6.24 -3.275,-2.383 -8.439,-3.8 -12.48,-3.84 -1.045,-0.155 -2.713,0.312 -3.36,-0.24 -5.578,-0.201 -9.565,2.413 -13.68,2.88 -1.845,3.115 -5.589,4.331 -5.28,9.6 -0.974,0.677 -2.116,-0.185 -3.36,0 -4.275,-10.66 -24.34,-12.201 -33.6,-4.56 -4.716,3.89 -10.267,11.55 -6.96,20.88 0.261,0.737 2.469,2.84 2.16,4.08 C 14.71,-5.794 10.198,-9.386 6.72,-8.88 3.342,-8.39 0.03,-5.819 0,-2.641 Z"
                   style="fill:#75b4bc;fill-opacity:1;fill-rule:evenodd;stroke:none"
                   id="path730"
                   inkscape:connector-curvature="0" />
              </g>
              <g
                 transform="translate(229.9199,188.5195)"
                 id="g736">
                <path
                   d="m 0,0 c 7.743,-0.284 16.263,2.733 21.6,6 1.932,1.183 4.23,2.202 5.76,3.36 1.707,1.292 3.533,4.191 5.52,6.48 3.197,3.684 8.946,10.881 5.76,17.761 -1.125,2.429 -6.409,4.808 -10.08,4.319 -2.382,-0.316 -3.045,-2.074 -4.8,-2.64 -0.144,4.064 2.313,5.527 4.32,7.441 7.894,1.416 13.921,-2.835 15.6,-8.641 0.064,-0.223 0.24,-0.721 0.24,-0.72 C 45.71,20.878 39.137,11.37 32.16,4.8 24.557,-2.358 15.322,-7.238 3.84,-7.68 3.032,-7.832 1.611,-7.37 1.2,-7.92 h -1.92 c -0.411,0.55 -1.832,0.088 -2.64,0.24 -6.088,-0.322 -10.155,2.831 -14.16,4.8 -1.094,0.538 -2.669,0.515 -3.84,1.2 -1.268,0.742 -2.055,2.284 -3.36,3.12 -2.745,1.758 -7.17,3.809 -10.56,4.32 -7.595,1.145 -12.002,-5.514 -10.8,-13.44 -7.621,6.01 0.755,20.648 11.52,17.281 1.074,-0.337 1.878,-1.604 3.12,-2.161 1.159,-0.519 2.568,-0.486 3.6,-0.96 1.18,-0.542 2.103,-1.666 3.36,-2.16 1.459,-0.573 3.367,-0.914 5.04,-1.44 C -14.989,1.48 -9.266,0.01 -3.36,0 -2.79,-0.398 -0.571,-0.398 0,0"
                   style="fill:#aac9ea;fill-opacity:1;fill-rule:evenodd;stroke:none"
                   id="path734"
                   inkscape:connector-curvature="0" />
              </g>
              <g
                 transform="translate(220.5596,196.2002)"
                 id="g740">
                <path
                   d="m 0,0 c 6.185,1.982 14.202,4.607 18.96,8.399 2.409,1.92 3.632,4.527 3.12,7.92 3.503,0.232 5.377,-2.451 4.8,-5.04 C 26.163,8.059 20.299,4.656 15.84,3.119 10.42,1.251 4.906,0.005 0,0"
                   style="fill:#aac9ea;fill-opacity:1;fill-rule:evenodd;stroke:none"
                   id="path738"
                   inkscape:connector-curvature="0" />
              </g>
              <g
                 transform="translate(232.3198,140.7598)"
                 id="g744">
                <path
                   d="M 0,0 C -0.985,1.319 -1.767,3.352 -1.2,5.52 -0.087,6.27 0.058,4.308 1.2,4.32 3,5.162 4.765,4.986 6.24,5.76 12.286,8.93 6.229,19.57 3.6,22.8 c -2.977,0.383 -3.777,2.943 -5.76,4.32 -2.837,-0.546 -3.631,2.184 -5.28,3.12 -2.776,1.575 -6.375,1.212 -8.88,3.36 5.667,-0.413 12.548,-1.692 15.84,-5.28 C 11.969,27.859 18.815,-2.459 0,0"
                   style="fill:#aac9ea;fill-opacity:1;fill-rule:evenodd;stroke:none"
                   id="path742"
                   inkscape:connector-curvature="0" />
              </g>
              <g
                 transform="translate(231.8398,169.0801)"
                 id="g748">
                <path
                   d="m 0,0 c -3.292,3.588 -10.173,4.866 -15.84,5.279 2.505,-2.147 6.104,-1.784 8.88,-3.359 1.649,-0.937 2.443,-3.666 5.28,-3.12 1.983,-1.377 2.783,-3.938 5.76,-4.321 2.628,-3.229 8.686,-13.87 2.64,-17.04 -1.475,-0.773 -3.24,-0.597 -5.04,-1.439 -1.142,-0.013 -1.287,1.949 -2.4,1.199 -0.567,-2.168 0.215,-4.2 1.2,-5.519 C 19.295,-30.779 12.449,-0.461 0,0 m 4.56,30.239 c 4.459,1.537 10.323,4.94 11.04,8.16 0.576,2.589 -1.298,5.272 -4.8,5.04 0.512,-3.393 -0.712,-6 -3.12,-7.919 -4.758,-3.792 -12.776,-6.417 -18.96,-8.4 4.906,0.005 10.42,1.251 15.84,3.119 M -95.76,53.52 c -4.78,1.49 -9.259,-1.107 -12.72,-2.64 -3.007,-1.9 0.836,-8.083 -2.64,-8.401 -1.785,-0.162 -2.658,1.862 -4.08,2.401 -4.149,1.571 -9.975,0.66 -13.2,-1.441 -2.926,-1.905 -7.967,-7.903 -5.04,-12.719 0.666,-1.096 3.198,-1.432 2.88,-3.12 -0.456,-2.418 -4.906,-0.546 -5.76,-0.48 -8.065,0.624 -15.89,-6.706 -16.56,-13.2 -0.462,-4.475 2.891,-8.707 6.96,-9.12 4.497,-0.457 6.233,3.286 8.88,0.24 -0.311,-1.882 -2.003,-2.334 -2.88,-3.841 -2.178,-3.739 -2.786,-11.196 -0.48,-14.639 2.64,-3.943 12.043,-4.071 14.16,0.719 1.279,-0.08 2.577,-0.142 3.12,-0.96 -3.954,-8.294 4.466,-19.525 11.76,-18.239 2.828,0.498 3.448,4.947 7.44,3.119 -0.925,-11.729 21.189,-12.838 19.92,0 -9.681,3.591 -17.843,12.055 -13.92,26.881 -4.605,-0.451 -6.724,0.677 -9.36,2.64 -1.535,1.142 -3.373,1.909 -3.84,3.12 -0.452,1.17 -0.388,3.827 -0.24,5.519 0.57,6.541 4.623,16.536 9.36,17.761 3.208,4.312 9.07,5.97 14.16,8.4 -1.322,4.232 -3.287,9.776 -1.2,14.64 -2.218,0.297 -4.402,2.637 -6.72,3.36 M 1.92,11.76 c 11.482,0.441 20.717,5.321 28.32,12.479 6.977,6.571 13.55,16.078 11.76,28.561 0,-10e-4 -0.176,0.497 -0.24,0.72 -1.678,5.805 -7.706,10.056 -15.6,8.64 -2.007,-1.914 -4.464,-3.377 -4.32,-7.44 1.755,0.565 2.418,2.323 4.8,2.639 3.671,0.49 8.955,-1.889 10.08,-4.319 3.186,-6.88 -2.563,-14.076 -5.76,-17.761 -1.987,-2.289 -3.813,-5.187 -5.52,-6.479 -1.53,-1.158 -3.828,-2.178 -5.76,-3.361 -5.337,-3.266 -13.857,-6.284 -21.6,-6 h -3.36 c -5.906,0.01 -11.629,1.481 -16.08,2.88 -1.673,0.527 -3.58,0.868 -5.04,1.441 -1.257,0.494 -2.18,1.617 -3.36,2.16 -1.032,0.474 -2.441,0.44 -3.6,0.96 -1.242,0.557 -2.046,1.823 -3.12,2.16 -10.765,3.367 -19.141,-11.27 -11.52,-17.28 -1.202,7.926 3.205,14.585 10.8,13.439 3.39,-0.511 7.815,-2.561 10.56,-4.319 1.305,-0.836 2.092,-2.378 3.36,-3.12 1.171,-0.686 2.746,-0.662 3.84,-1.2 4.005,-1.969 8.072,-5.122 14.16,-4.8 0.411,-0.549 1.832,-0.088 2.64,-0.24 h 1.92 c 0.808,0.152 2.229,-0.309 2.64,0.24 m -28.56,53.76 c -6.512,-0.136 -12.129,-3.685 -15.6,-7.68 -0.94,-1.082 -1.822,-3.582 -3.36,-3.601 -2.182,-0.025 -4.662,4.969 -6,6 -3.566,2.751 -9.168,3.612 -13.44,3.601 -12.647,-0.032 -22.964,-8.378 -22.08,-20.401 0.331,-4.498 2.497,-5.481 3.36,-9.839 -2.638,-1.589 -5.849,-0.799 -8.4,-1.68 -3.532,-1.22 -5.501,-5.018 -9.12,-5.76 -3.439,-4.881 -7.459,-9.181 -7.68,-17.28 -0.398,-0.336 -0.398,-2.304 0,-2.641 0.03,-3.178 3.342,-5.749 6.72,-6.239 3.478,-0.506 7.99,3.086 8.64,0.479 0.309,-1.239 -1.899,-3.342 -2.16,-4.08 -3.307,-9.329 2.244,-16.989 6.96,-20.879 9.26,-7.641 29.325,-6.1 33.6,4.56 1.244,-0.185 2.386,0.677 3.36,0 -0.309,-5.269 3.435,-6.485 5.28,-9.601 4.115,-0.466 8.102,-3.081 13.68,-2.879 1.045,0.155 2.713,-0.313 3.36,0.24 4.041,0.04 9.205,1.457 12.48,3.84 2.396,1.743 3.296,3.495 4.32,6.24 1.014,2.718 1.101,5.261 -0.48,7.2 -1.083,1.327 -4.025,1.235 -3.84,4.319 2.416,1.931 5.797,-0.617 8.88,-0.96 4.372,-0.485 7.549,0.865 10.32,2.88 -2.165,3.327 -6.105,5.548 -10.08,7.441 -6.223,2.962 -11.934,6.576 -20.16,7.2 -1.423,0.107 -3.853,-0.805 -4.56,1.199 0.704,1.536 2.305,2.176 4.32,2.401 h 2.88 C -19.573,9.678 -13.604,7.719 -8.64,6.239 -6.948,5.735 -4.766,5.483 -3.36,4.8 -2.615,4.438 -1.986,3.355 -0.96,2.88 -0.094,2.478 1.216,2.519 2.4,1.92 5.29,0.458 7.18,-3.17 9.12,-3.12 13.654,-3.005 14.894,8.104 11.52,11.04 3.24,9.569 -7.473,7.999 -15.12,10.8 c -0.018,0.007 -0.365,0.177 -0.48,0.24 -3.951,2.177 -7.61,3.994 -12,6.72 -4.432,2.751 -7.633,4.805 -13.92,4.559 -3.779,-1.565 -5.101,-10.798 -0.48,-11.519 2.084,-0.326 2.884,2.377 5.04,0.96 -0.47,-1.701 -1.035,-2.495 -2.16,-3.12 -6.556,-3.639 -14.206,1.381 -14.64,7.92 -0.248,3.741 1.018,7.348 2.64,9.839 2.68,4.117 10.888,6.955 17.28,4.321 1.673,-0.69 2.946,-2.537 4.8,-3.361 1.561,-0.693 3.495,-0.934 5.28,-1.679 1.571,-0.656 3.175,-1.534 4.8,-2.16 7.369,-2.843 18.221,-2.634 26.16,-0.96 -1.733,0.445 -2.81,4.312 -5.04,4.799 -2.109,0.461 -6.753,-1.424 -10.56,-1.679 -4.956,-0.332 -8.245,-0.088 -10.08,3.12 5.532,0.401 10.639,2.196 15.6,3.84 -0.604,2.676 -6.405,2.234 -6.72,6 0.762,1.318 1.591,2.569 1.2,5.04 0.399,0.649 0.399,2.95 0,3.599 0.222,2.891 -1.391,3.566 -2.16,5.521 -1.179,2.997 -1.397,6.354 -2.64,8.16 -2.207,3.205 -6.03,4.087 -11.04,4.56 -0.259,0.397 -2.141,0.397 -2.4,0 m 0.24,2.16 h 5.52 C -9.632,65.967 -7.759,54.881 -5.52,44.16 v -2.64 c 0.115,-1.475 -0.241,-2.479 -0.48,-3.6 2.759,-1.241 5.598,-2.402 8.16,-3.84 2.632,1.768 6.205,2.595 6.24,6.96 -0.716,1.044 -3.746,-0.226 -4.08,1.199 2.939,7.466 17.534,3.84 14.64,-4.559 -1.577,-4.576 -9.716,-7.502 -13.68,-9.6 0.694,-0.973 2.343,-1.128 3.6,-2.4 0.724,-0.733 0.981,-2.139 1.92,-2.401 1.885,-0.524 4.118,1.88 6.48,3.12 1.65,0.867 3.59,1.39 4.8,2.161 5.166,3.29 12.368,11.663 12.96,17.28 0.423,4.017 -1.27,6.218 -3.12,7.68 -2.073,0.43 -3.97,1.427 -5.76,0.959 -2.895,-0.755 -2.483,-5.398 -5.28,-6 -6.499,8.638 4.239,19.578 13.92,16.081 1.674,-0.605 2.87,-2.232 4.8,-2.88 1.643,-3.318 4.135,-5.785 5.04,-9.84 V 48 C 43.539,43.332 42.384,37.416 40.32,33.6 39.243,31.608 37.144,29.525 35.52,27.359 33.934,25.244 32.408,22.52 30.72,21.12 29.869,20.414 28.579,19.982 27.6,19.199 26.57,18.377 25.725,17.419 24.72,16.8 21.742,14.964 18.152,14.176 15.36,12 15.908,11.188 16.054,9.974 16.08,8.64 V 4.8 C 15.809,-0.369 12.984,-2.984 10.56,-6 c 1.627,-2.294 2.784,-5.056 2.88,-8.88 v -2.881 c -0.426,-3.733 -0.227,-6.196 -1.92,-8.639 -3.085,-4.451 -11.978,-4.929 -14.4,-1.68 -2.275,3.051 0.377,9.292 3.84,8.88 1.722,-0.205 1.139,-2.717 3.36,-2.64 3.917,0.135 2.413,9.72 0.48,11.52 -2.285,-1.395 -4.008,-3.352 -8.16,-2.88 h -3.36 -4.56 c 0.36,-1.721 1.142,-3.019 1.2,-5.04 v -2.88 c 0.21,-2.673 -1.281,-3.016 -2.4,-4.561 -0.95,-1.31 -1.184,-2.464 -1.92,-3.12 -3.028,-2.694 -9.91,-4.932 -14.88,-5.279 -5.785,-0.403 -8.982,1.682 -13.68,2.399 -1.08,0.165 -2.114,-0.057 -3.12,0.241 -2.601,0.769 -3.74,3.366 -6,3.839 -0.012,2.069 -1.587,2.574 -2.16,4.08 -5.656,-4.781 -15.729,-10.051 -25.92,-6.479 -1.309,-5.571 -4.975,-8.785 -10.56,-10.08 h -3.6 c -5.419,1.221 -10.109,3.171 -12,7.92 -2.624,0.25 -3.896,-1.632 -6.24,-1.68 -3.139,-0.065 -7.404,2.314 -9.6,4.56 -2.944,3.01 -4.238,7.77 -4.56,12 -8.113,-2.145 -14.738,-0.57 -16.8,5.519 -1.466,4.328 0.213,9.65 1.2,14.16 -2.18,0.724 -4.47,-0.04 -6.24,0.721 -0.776,0.333 -1.164,1.446 -2.16,2.159 -2.129,1.526 -4.102,1.757 -4.32,4.561 v 4.32 c 1.81,8.52 8.537,13.895 18,14.64 h 1.92 c 0.02,0.341 0.039,0.679 -0.24,0.72 -0.051,2.091 -1.973,3.294 -1.92,5.28 0.063,2.372 3.151,6.364 5.28,8.16 4.987,4.207 12.006,5.231 18.72,3.84 0.849,6.759 12.572,10.891 19.92,8.16 2.238,-0.833 3.056,-2.671 5.04,-3.12 4.349,8.157 14.52,16.723 27.84,14.16 4.549,-0.876 7.738,-3.547 12.24,-4.801 0.878,-1.041 0.882,-2.958 2.4,-3.359 3.335,1.752 5.102,5.2 8.64,6.96 3.139,1.561 6.778,1.742 10.8,2.88"
                   style="fill:#2c4197;fill-opacity:1;fill-rule:evenodd;stroke:none"
                   id="path746"
                   inkscape:connector-curvature="0" />
              </g>
            </g>
          </g>
        </g>
      </g>
    </g>
  </g>
</svg>
