<?xml version="1.0" encoding="UTF-8" standalone="no"?>
<!-- Created with Inkscape (http://www.inkscape.org/) -->

<svg
   xmlns:dc="http://purl.org/dc/elements/1.1/"
   xmlns:cc="http://creativecommons.org/ns#"
   xmlns:rdf="http://www.w3.org/1999/02/22-rdf-syntax-ns#"
   xmlns:svg="http://www.w3.org/2000/svg"
   xmlns="http://www.w3.org/2000/svg"
   xmlns:sodipodi="http://sodipodi.sourceforge.net/DTD/sodipodi-0.dtd"
   xmlns:inkscape="http://www.inkscape.org/namespaces/inkscape"
   width="89.934341mm"
   height="90.219742mm"
   viewBox="0 0 89.934341 90.219742"
   version="1.1"
   id="svg16392"
   inkscape:version="0.92.3 (2405546, 2018-03-11)"
   sodipodi:docname="SunnyOutlook.svg">
  <defs
     id="defs16386">
    <clipPath
       clipPathUnits="userSpaceOnUse"
       id="clipPath10205">
      <path
         d="M 0,780 H 1096 V 0 H 0 Z"
         id="path10203"
         inkscape:connector-curvature="0" />
    </clipPath>
    <clipPath
       clipPathUnits="userSpaceOnUse"
       id="clipPath10213">
      <path
         d="m 141.518,607.879 h 24.824 v -26.875 h -24.824 z"
         id="path10211"
         inkscape:connector-curvature="0" />
    </clipPath>
    <clipPath
       clipPathUnits="userSpaceOnUse"
       id="clipPath10181">
      <path
         d="m 125.232,558.013 c 0,-34.202 27.835,-62.166 61.979,-62.166 v 0 c 34.141,0 61.978,27.964 61.978,62.166 v 0 c 0,34.254 -27.837,62.166 -61.978,62.166 v 0 c -34.144,0 -61.979,-27.912 -61.979,-62.166"
         id="path10179"
         inkscape:connector-curvature="0" />
    </clipPath>
    <radialGradient
       fx="0"
       fy="0"
       cx="0"
       cy="0"
       r="1"
       gradientUnits="userSpaceOnUse"
       gradientTransform="matrix(99.987015,0,0,-99.987015,174.10722,578.52527)"
       spreadMethod="pad"
       id="radialGradient10195">
      <stop
         style="stop-opacity:1;stop-color:#fee217"
         offset="0"
         id="stop10187" />
      <stop
         style="stop-opacity:1;stop-color:#fee217"
         offset="0.22712604"
         id="stop10189" />
      <stop
         style="stop-opacity:1;stop-color:#ee841c"
         offset="0.725275"
         id="stop10191" />
      <stop
         style="stop-opacity:1;stop-color:#f3a21a"
         offset="1"
         id="stop10193" />
    </radialGradient>
    <clipPath
       clipPathUnits="userSpaceOnUse"
       id="clipPath10161">
      <path
         d="m 172.697,653.337 c -8.596,-7.472 -4.67,-17.635 1.283,-25.837 v 0 c -2.788,-0.558 -5.512,-1.294 -8.17,-2.176 v 0 c -5.624,4.263 -8.829,11.655 -4.375,25.173 v 0 c 8.338,25.303 -24.234,26.324 -24.234,26.324 v 0 c 0,0 19.53,-7.493 4.524,-34.34 v 0 c -5.522,-9.878 1.486,-18.071 9.795,-23.769 v 0 c -2.111,-1.288 -4.141,-2.694 -6.098,-4.193 v 0 c -6.624,2.259 -11.956,8.236 -12.119,22.345 v 0 c -0.308,26.639 -31.456,17.055 -31.456,17.055 v 0 c 0,0 20.906,-0.763 15.405,-31.023 v 0 c -2.014,-11.077 7.165,-16.56 16.816,-19.276 v 0 c -1.591,-1.911 -3.079,-3.909 -4.463,-5.984 v 0 c -6.93,0.067 -13.822,4.05 -18.503,17.218 v 0 c -8.92,25.104 -35.283,5.947 -35.283,5.947 v 0 c 0,0 20.025,6.051 24.623,-24.361 v 0 c 1.673,-11.065 12.014,-13.318 21.969,-12.799 v 0 c -0.885,-2.333 -1.658,-4.721 -2.293,-7.164 v 0 c -6.536,-2.087 -14.282,-0.472 -22.89,10.363 v 0 c -16.569,20.862 -35.307,-5.803 -35.307,-5.803 v 0 c 0,0 16.987,12.211 31.187,-15.073 v 0 c 5.146,-9.886 15.598,-8.716 24.822,-5.033 v 0 c -0.021,-0.683 -0.052,-1.361 -0.052,-2.049 v 0 c 0,-1.846 0.093,-3.67 0.234,-5.482 v 0 c -5.505,-4.045 -13.335,-4.986 -24.935,2.442 v 0 C 70.744,570.212 61.653,538.915 61.653,538.915 v 0 c 0,0 12.116,17.055 34.388,-4.157 v 0 c 8.043,-7.66 17.514,-3.223 25.035,3.212 v 0 c 0.756,-2.411 1.65,-4.761 2.653,-7.051 v 0 c -3.906,-5.58 -11.005,-8.976 -24.345,-5.716 v 0 c -25.877,6.329 -24.34,-26.225 -24.34,-26.225 v 0 c 0,0 5.938,20.059 33.88,7.204 v 0 c 10.096,-4.644 17.622,2.631 22.652,11.161 v 0 c 1.493,-2.021 3.095,-3.957 4.793,-5.805 v 0 c -1.883,-6.552 -7.497,-12.073 -21.187,-13.311 v 0 C 88.649,495.832 100.648,465.53 100.648,465.53 v 0 c 0,0 -0.878,20.903 29.721,17.792 v 0 c 11.066,-1.124 15.829,8.214 17.82,17.921 v 0 c 2.062,-1.424 4.197,-2.748 6.409,-3.95 v 0 c 0.348,-6.813 -3.171,-13.861 -15.733,-19.471 v 0 C 114.54,466.961 135.706,442.18 135.706,442.18 v 0 c 0,0 -7.601,19.491 22.356,26.46 v 0 c 10.861,2.526 12.322,12.949 11.046,22.8 v 0 c 2.389,-0.663 4.826,-1.207 7.309,-1.614 v 0 c 2.596,-6.354 1.594,-14.202 -8.535,-23.637 v 0 c -19.495,-18.155 8.557,-34.744 8.557,-34.744 v 0 c 0,0 -13.506,15.978 12.58,32.275 v 0 c 9.52,5.949 7.438,16.386 2.975,25.334 v 0 c 2.485,0.155 4.933,0.445 7.342,0.856 v 0 c 4.651,-5.171 6.381,-12.959 -0.234,-25.328 v 0 c -12.563,-23.491 19.35,-30.1 19.35,-30.1 v 0 c 0,0 -17.954,10.743 1.447,34.611 v 0 c 7.154,8.802 1.617,18.096 -5.612,25.145 v 0 c 2.249,0.938 4.444,1.981 6.568,3.142 v 0 c 6.247,-3.323 10.594,-10.121 8.306,-24.205 v 0 c -4.277,-26.295 28.055,-22.21 28.055,-22.21 v 0 c 0,0 -20.464,4.348 -9.841,33.213 v 0 c 3.966,10.782 -4.548,17.82 -13.808,22.133 v 0 c 1.796,1.581 3.51,3.247 5.136,5.001 v 0 c 7.15,-0.988 13.669,-5.928 16.112,-20.271 v 0 c 4.471,-26.263 33.738,-11.925 33.738,-11.925 v 0 c 0,0 -20.771,-2.516 -20.07,28.235 v 0 c 0.263,11.591 -10.268,15.458 -20.515,16.496 v 0 c 1.185,2.043 2.27,4.15 3.249,6.315 v 0 c 7.158,1.502 15.034,-0.967 22.081,-13.909 v 0 c 12.738,-23.4 35.781,-0.353 35.781,-0.353 v 0 c 0,0 -18.834,-9.108 -28.133,20.211 v 0 c -3.525,11.111 -14.846,11.302 -24.919,8.923 v 0 c 0.462,2.289 0.81,4.618 1.044,6.98 v 0 c 6.302,3.826 14.602,4.119 25.548,-5.922 v 0 c 19.631,-18.011 33.966,11.256 33.966,11.256 v 0 c 0,0 -14.869,-14.717 -33.164,10.01 v 0 c -6.964,9.411 -17.8,5.853 -26.58,0.297 v 0 c -0.294,2.351 -0.706,4.664 -1.229,6.936 v 0 c 4.719,5.713 12.487,8.733 26.159,2.752 v 0 c 24.407,-10.681 28.49,21.651 28.49,21.651 v 0 c 0,0 -9.302,-18.741 -34.619,-1.273 v 0 c -9.635,6.648 -18.733,-0.225 -25.239,-8.324 v 0 c -1.032,2.125 -2.171,4.185 -3.404,6.182 v 0 c 2.619,6.922 8.991,12.284 23.847,11.054 v 0 c 26.552,-2.199 19.941,29.713 19.941,29.713 v 0 c 0,0 -2.729,-20.743 -32.34,-12.417 v 0 c -11.239,3.159 -17.615,-6.231 -21.154,-15.972 v 0 c -1.665,1.696 -3.41,3.311 -5.24,4.83 v 0 c 0.295,7.339 4.624,14.397 18.971,18.019 v 0 c 25.832,6.52 9.242,34.57 9.242,34.57 v 0 c 0,0 4.135,-20.509 -26.576,-22.223 v 0 c -11.57,-0.647 -14.6,-11.438 -14.833,-21.729 v 0 c -2.142,1.081 -4.343,2.057 -6.603,2.916 v 0 c -1.969,6.974 -0.054,14.946 12.185,22.915 v 0 c 22.328,14.537 -2.455,35.7 -2.455,35.7 v 0 c 0,0 10.557,-18.064 -17.942,-29.634 v 0 c -10.644,-4.322 -10.122,-15.356 -7.078,-25.107 v 0 c -2.385,0.322 -4.808,0.52 -7.262,0.593 v 0 c -3.985,5.94 -4.627,14.04 4.258,25.399 v 0 c 16.416,20.985 -13.886,32.98 -13.886,32.98 v 0 c 0,0 15.839,-13.67 -7.377,-33.849"
         id="path10159"
         inkscape:connector-curvature="0" />
    </clipPath>
    <radialGradient
       fx="0"
       fy="0"
       cx="0"
       cy="0"
       r="1"
       gradientUnits="userSpaceOnUse"
       gradientTransform="matrix(155.38901,0,0,-155.38901,192.19783,553.95447)"
       spreadMethod="pad"
       id="radialGradient10171">
      <stop
         style="stop-opacity:1;stop-color:#f3a41a"
         offset="0"
         id="stop10167" />
      <stop
         style="stop-opacity:1;stop-color:#fee217"
         offset="1"
         id="stop10169" />
    </radialGradient>
  </defs>
  <sodipodi:namedview
     id="base"
     pagecolor="#ffffff"
     bordercolor="#666666"
     borderopacity="1.0"
     inkscape:pageopacity="0.0"
     inkscape:pageshadow="2"
     inkscape:zoom="0.35"
     inkscape:cx="209.95466"
     inkscape:cy="104.7797"
     inkscape:document-units="mm"
     inkscape:current-layer="layer1"
     showgrid="false"
     fit-margin-top="0"
     fit-margin-left="0"
     fit-margin-right="0"
     fit-margin-bottom="0"
     inkscape:window-width="1853"
     inkscape:window-height="1025"
     inkscape:window-x="67"
     inkscape:window-y="27"
     inkscape:window-maximized="1" />
  <metadata
     id="metadata16389">
    <rdf:RDF>
      <cc:Work
         rdf:about="">
        <dc:format>image/svg+xml</dc:format>
        <dc:type
           rdf:resource="http://purl.org/dc/dcmitype/StillImage" />
        <dc:title></dc:title>
      </cc:Work>
    </rdf:RDF>
  </metadata>
  <g
     inkscape:label="Layer 1"
     inkscape:groupmode="layer"
     id="layer1"
     transform="translate(-50.282829,-86.336555)">
    <g
       transform="matrix(0.35277777,0,0,-0.35277777,28.533021,328.7605)"
       id="g10155">
      <g
         id="g10157"
         clip-path="url(#clipPath10161)">
        <g
           id="g10163">
          <g
             id="g10165">
            <path
               d="m 172.697,653.337 c -8.596,-7.472 -4.67,-17.635 1.283,-25.837 v 0 c -2.788,-0.558 -5.512,-1.294 -8.17,-2.176 v 0 c -5.624,4.263 -8.829,11.655 -4.375,25.173 v 0 c 8.338,25.303 -24.234,26.324 -24.234,26.324 v 0 c 0,0 19.53,-7.493 4.524,-34.34 v 0 c -5.522,-9.878 1.486,-18.071 9.795,-23.769 v 0 c -2.111,-1.288 -4.141,-2.694 -6.098,-4.193 v 0 c -6.624,2.259 -11.956,8.236 -12.119,22.345 v 0 c -0.308,26.639 -31.456,17.055 -31.456,17.055 v 0 c 0,0 20.906,-0.763 15.405,-31.023 v 0 c -2.014,-11.077 7.165,-16.56 16.816,-19.276 v 0 c -1.591,-1.911 -3.079,-3.909 -4.463,-5.984 v 0 c -6.93,0.067 -13.822,4.05 -18.503,17.218 v 0 c -8.92,25.104 -35.283,5.947 -35.283,5.947 v 0 c 0,0 20.025,6.051 24.623,-24.361 v 0 c 1.673,-11.065 12.014,-13.318 21.969,-12.799 v 0 c -0.885,-2.333 -1.658,-4.721 -2.293,-7.164 v 0 c -6.536,-2.087 -14.282,-0.472 -22.89,10.363 v 0 c -16.569,20.862 -35.307,-5.803 -35.307,-5.803 v 0 c 0,0 16.987,12.211 31.187,-15.073 v 0 c 5.146,-9.886 15.598,-8.716 24.822,-5.033 v 0 c -0.021,-0.683 -0.052,-1.361 -0.052,-2.049 v 0 c 0,-1.846 0.093,-3.67 0.234,-5.482 v 0 c -5.505,-4.045 -13.335,-4.986 -24.935,2.442 v 0 C 70.744,570.212 61.653,538.915 61.653,538.915 v 0 c 0,0 12.116,17.055 34.388,-4.157 v 0 c 8.043,-7.66 17.514,-3.223 25.035,3.212 v 0 c 0.756,-2.411 1.65,-4.761 2.653,-7.051 v 0 c -3.906,-5.58 -11.005,-8.976 -24.345,-5.716 v 0 c -25.877,6.329 -24.34,-26.225 -24.34,-26.225 v 0 c 0,0 5.938,20.059 33.88,7.204 v 0 c 10.096,-4.644 17.622,2.631 22.652,11.161 v 0 c 1.493,-2.021 3.095,-3.957 4.793,-5.805 v 0 c -1.883,-6.552 -7.497,-12.073 -21.187,-13.311 v 0 C 88.649,495.832 100.648,465.53 100.648,465.53 v 0 c 0,0 -0.878,20.903 29.721,17.792 v 0 c 11.066,-1.124 15.829,8.214 17.82,17.921 v 0 c 2.062,-1.424 4.197,-2.748 6.409,-3.95 v 0 c 0.348,-6.813 -3.171,-13.861 -15.733,-19.471 v 0 C 114.54,466.961 135.706,442.18 135.706,442.18 v 0 c 0,0 -7.601,19.491 22.356,26.46 v 0 c 10.861,2.526 12.322,12.949 11.046,22.8 v 0 c 2.389,-0.663 4.826,-1.207 7.309,-1.614 v 0 c 2.596,-6.354 1.594,-14.202 -8.535,-23.637 v 0 c -19.495,-18.155 8.557,-34.744 8.557,-34.744 v 0 c 0,0 -13.506,15.978 12.58,32.275 v 0 c 9.52,5.949 7.438,16.386 2.975,25.334 v 0 c 2.485,0.155 4.933,0.445 7.342,0.856 v 0 c 4.651,-5.171 6.381,-12.959 -0.234,-25.328 v 0 c -12.563,-23.491 19.35,-30.1 19.35,-30.1 v 0 c 0,0 -17.954,10.743 1.447,34.611 v 0 c 7.154,8.802 1.617,18.096 -5.612,25.145 v 0 c 2.249,0.938 4.444,1.981 6.568,3.142 v 0 c 6.247,-3.323 10.594,-10.121 8.306,-24.205 v 0 c -4.277,-26.295 28.055,-22.21 28.055,-22.21 v 0 c 0,0 -20.464,4.348 -9.841,33.213 v 0 c 3.966,10.782 -4.548,17.82 -13.808,22.133 v 0 c 1.796,1.581 3.51,3.247 5.136,5.001 v 0 c 7.15,-0.988 13.669,-5.928 16.112,-20.271 v 0 c 4.471,-26.263 33.738,-11.925 33.738,-11.925 v 0 c 0,0 -20.771,-2.516 -20.07,28.235 v 0 c 0.263,11.591 -10.268,15.458 -20.515,16.496 v 0 c 1.185,2.043 2.27,4.15 3.249,6.315 v 0 c 7.158,1.502 15.034,-0.967 22.081,-13.909 v 0 c 12.738,-23.4 35.781,-0.353 35.781,-0.353 v 0 c 0,0 -18.834,-9.108 -28.133,20.211 v 0 c -3.525,11.111 -14.846,11.302 -24.919,8.923 v 0 c 0.462,2.289 0.81,4.618 1.044,6.98 v 0 c 6.302,3.826 14.602,4.119 25.548,-5.922 v 0 c 19.631,-18.011 33.966,11.256 33.966,11.256 v 0 c 0,0 -14.869,-14.717 -33.164,10.01 v 0 c -6.964,9.411 -17.8,5.853 -26.58,0.297 v 0 c -0.294,2.351 -0.706,4.664 -1.229,6.936 v 0 c 4.719,5.713 12.487,8.733 26.159,2.752 v 0 c 24.407,-10.681 28.49,21.651 28.49,21.651 v 0 c 0,0 -9.302,-18.741 -34.619,-1.273 v 0 c -9.635,6.648 -18.733,-0.225 -25.239,-8.324 v 0 c -1.032,2.125 -2.171,4.185 -3.404,6.182 v 0 c 2.619,6.922 8.991,12.284 23.847,11.054 v 0 c 26.552,-2.199 19.941,29.713 19.941,29.713 v 0 c 0,0 -2.729,-20.743 -32.34,-12.417 v 0 c -11.239,3.159 -17.615,-6.231 -21.154,-15.972 v 0 c -1.665,1.696 -3.41,3.311 -5.24,4.83 v 0 c 0.295,7.339 4.624,14.397 18.971,18.019 v 0 c 25.832,6.52 9.242,34.57 9.242,34.57 v 0 c 0,0 4.135,-20.509 -26.576,-22.223 v 0 c -11.57,-0.647 -14.6,-11.438 -14.833,-21.729 v 0 c -2.142,1.081 -4.343,2.057 -6.603,2.916 v 0 c -1.969,6.974 -0.054,14.946 12.185,22.915 v 0 c 22.328,14.537 -2.455,35.7 -2.455,35.7 v 0 c 0,0 10.557,-18.064 -17.942,-29.634 v 0 c -10.644,-4.322 -10.122,-15.356 -7.078,-25.107 v 0 c -2.385,0.322 -4.808,0.52 -7.262,0.593 v 0 c -3.985,5.94 -4.627,14.04 4.258,25.399 v 0 c 16.416,20.985 -13.886,32.98 -13.886,32.98 v 0 c 0,0 15.839,-13.67 -7.377,-33.849"
               style="fill:url(#radialGradient10171);stroke:none"
               id="path10173"
               inkscape:connector-curvature="0" />
          </g>
        </g>
      </g>
    </g>
    <g
       transform="matrix(0.35277777,0,0,-0.35277777,28.533021,328.7605)"
       id="g10175">
      <g
         id="g10177"
         clip-path="url(#clipPath10181)">
        <g
           id="g10183">
          <g
             id="g10185">
            <path
               d="m 125.232,558.013 c 0,-34.202 27.835,-62.166 61.979,-62.166 v 0 c 34.141,0 61.978,27.964 61.978,62.166 v 0 c 0,34.254 -27.837,62.166 -61.978,62.166 v 0 c -34.144,0 -61.979,-27.912 -61.979,-62.166"
               style="fill:url(#radialGradient10195);stroke:none"
               id="path10197"
               inkscape:connector-curvature="0" />
          </g>
        </g>
      </g>
    </g>
    <g
       transform="matrix(0.35277777,0,0,-0.35277777,28.533021,328.7605)"
       id="g10199">
      <g
         id="g10201"
         clip-path="url(#clipPath10205)">
        <g
           id="g10207">
          <g
             id="g10209" />
          <g
             id="g10221">
            <g
               clip-path="url(#clipPath10213)"
               id="g10219"
               style="opacity:0.41000402">
              <g
                 transform="translate(161.0201,588.4299)"
                 id="g10217">
                <path
                   d="m 0,0 c -5.626,-6.635 -13.36,-9.323 -17.276,-6.003 -3.916,3.32 -2.53,11.391 3.095,18.026 5.626,6.635 13.361,9.323 17.277,6.003 C 7.011,14.706 5.626,6.635 0,0"
                   style="fill:#ffffff;fill-opacity:1;fill-rule:evenodd;stroke:none"
                   id="path10215"
                   inkscape:connector-curvature="0" />
              </g>
            </g>
          </g>
        </g>
      </g>
    </g>
  </g>
</svg>
