<?xml version="1.0" encoding="UTF-8" standalone="no"?>
<!-- Generator: Adobe Illustrator 18.0.0, SVG Export Plug-In . SVG Version: 6.00 Build 0)  -->

<svg
   xmlns:dc="http://purl.org/dc/elements/1.1/"
   xmlns:cc="http://creativecommons.org/ns#"
   xmlns:rdf="http://www.w3.org/1999/02/22-rdf-syntax-ns#"
   xmlns:svg="http://www.w3.org/2000/svg"
   xmlns="http://www.w3.org/2000/svg"
   xmlns:sodipodi="http://sodipodi.sourceforge.net/DTD/sodipodi-0.dtd"
   xmlns:inkscape="http://www.inkscape.org/namespaces/inkscape"
   version="1.1"
   id="Layer_1"
   x="0px"
   y="0px"
   width="271.39999"
   height="290.5"
   viewBox="0 0 271.39999 290.5"
   enable-background="new 0 0 1400 980"
   xml:space="preserve"
   sodipodi:docname="TennisBall.svg"
   inkscape:version="0.92.3 (2405546, 2018-03-11)"><metadata
   id="metadata7461"><rdf:RDF><cc:Work
       rdf:about=""><dc:format>image/svg+xml</dc:format><dc:type
         rdf:resource="http://purl.org/dc/dcmitype/StillImage" /><dc:title></dc:title></cc:Work></rdf:RDF></metadata><defs
   id="defs7459">
	
	
	
	
	
	
	
	
</defs><sodipodi:namedview
   pagecolor="#ffffff"
   bordercolor="#666666"
   borderopacity="1"
   objecttolerance="10"
   gridtolerance="10"
   guidetolerance="10"
   inkscape:pageopacity="0"
   inkscape:pageshadow="2"
   inkscape:window-width="1853"
   inkscape:window-height="1025"
   id="namedview7457"
   showgrid="false"
   fit-margin-top="0"
   fit-margin-left="0"
   fit-margin-right="0"
   fit-margin-bottom="0"
   inkscape:zoom="0.86122449"
   inkscape:cx="151.08753"
   inkscape:cy="278.85213"
   inkscape:window-x="67"
   inkscape:window-y="27"
   inkscape:window-maximized="1"
   inkscape:current-layer="Layer_1" />
<radialGradient
   id="SVGID_1_"
   cx="583.3277"
   cy="231.5311"
   r="642.56628"
   gradientUnits="userSpaceOnUse"
   gradientTransform="translate(348.34123,286.80095)">
	<stop
   offset="0"
   style="stop-color:#FBFBFB"
   id="stop5607" />
	<stop
   offset="1"
   style="stop-color:#DADBDC"
   id="stop5609" />
</radialGradient>

<g
   id="g5880"
   transform="translate(-59.7,-139.3)">
		
			<radialGradient
   gradientUnits="userSpaceOnUse"
   gradientTransform="matrix(1,0,0,0.1938,0,312.9609)"
   r="79.248398"
   cy="503.2164"
   cx="192.1543"
   id="SVGID_17_">
			<stop
   id="stop5775"
   style="stop-color:#000000;stop-opacity:0.5447"
   offset="0" />
			<stop
   id="stop5777"
   style="stop-color:#000000;stop-opacity:0"
   offset="1" />
		</radialGradient>
		<ellipse
   style="fill:url(#SVGID_17_)"
   id="ellipse5780"
   ry="19.299999"
   rx="94.900002"
   cy="410.5"
   cx="192.2" />
		<radialGradient
   gradientUnits="userSpaceOnUse"
   r="148.04269"
   cy="239.25549"
   cx="162.09151"
   id="SVGID_18_">
			<stop
   id="stop5782"
   style="stop-color:#E2E419"
   offset="0" />
			<stop
   id="stop5784"
   style="stop-color:#DBE020"
   offset="0.2103" />
			<stop
   id="stop5786"
   style="stop-color:#C8D62C"
   offset="0.5288" />
			<stop
   id="stop5788"
   style="stop-color:#A8C838"
   offset="0.914" />
			<stop
   id="stop5790"
   style="stop-color:#A0C53B"
   offset="1" />
		</radialGradient>
		<path
   inkscape:connector-curvature="0"
   style="fill:url(#SVGID_18_)"
   id="path5793"
   d="m 109,329.5 c 23.2,2.6 44.6,13.3 66.2,22.2 21.6,8.9 45.2,16.1 68.1,11.5 32.3,-6.6 56.5,-37.5 59.7,-70.3 3.2,-32.8 -12.5,-65.7 -36.9,-87.8 -24.4,-22.1 -56.6,-34.2 -89.2,-38.9 -19.7,-2.9 -39.7,-3.2 -59.6,-2.2 -34.8,24.5 -57.6,65.1 -57.6,110.9 0,21.1 4.8,41.1 13.4,58.9 11.3,-4.3 24,-5.7 35.9,-4.3 z" />
		<g
   id="g5808">
			<radialGradient
   gradientUnits="userSpaceOnUse"
   r="261.35699"
   cy="165.00571"
   cx="143.7863"
   id="SVGID_19_">
				<stop
   id="stop5795"
   style="stop-color:#FFF56D"
   offset="0" />
				<stop
   id="stop5797"
   style="stop-color:#F9ED68"
   offset="0.156" />
				<stop
   id="stop5799"
   style="stop-color:#E0DD59"
   offset="0.3924" />
				<stop
   id="stop5801"
   style="stop-color:#BBC845"
   offset="0.6798" />
				<stop
   id="stop5803"
   style="stop-color:#8DAF33"
   offset="1" />
			</radialGradient>
			<path
   inkscape:connector-curvature="0"
   style="fill:url(#SVGID_19_)"
   id="path5806"
   d="M 266.2,205.1 C 241.8,183 209.6,170.9 177,166.2 157.3,163.3 137.3,163 117.4,164 c -1,0.7 -2,1.4 -2.9,2.1 19.3,-0.7 44.2,-0.8 61.9,1.7 32.4,4.6 64.5,16.4 88.8,38 24.3,21.6 39.9,53.7 36.7,85.8 -3.2,32 -27.3,62.2 -59.4,68.6 -22.8,4.6 -46.2,-2.6 -67.8,-11.2 -21.5,-8.7 -42.8,-19.1 -65.9,-21.7 -11,-1.2 -25.3,0.2 -36.3,4.7 0.3,0.6 0.5,1.1 0.8,1.7 11.2,-4.3 23.9,-5.7 35.8,-4.3 23.2,2.6 44.6,13.3 66.2,22.2 21.6,8.9 45.2,16.1 68.1,11.5 32.3,-6.6 56.5,-37.5 59.7,-70.3 3.1,-32.7 -12.5,-65.6 -36.9,-87.7 z" />
		</g>
		<radialGradient
   gradientUnits="userSpaceOnUse"
   r="150.6985"
   cy="239.6853"
   cx="162.04601"
   id="SVGID_20_">
			<stop
   id="stop5810"
   style="stop-color:#E2E419"
   offset="0" />
			<stop
   id="stop5812"
   style="stop-color:#DBE020"
   offset="0.2103" />
			<stop
   id="stop5814"
   style="stop-color:#C8D62C"
   offset="0.5288" />
			<stop
   id="stop5816"
   style="stop-color:#A8C838"
   offset="0.914" />
			<stop
   id="stop5818"
   style="stop-color:#A0C53B"
   offset="1" />
		</radialGradient>
		<path
   inkscape:connector-curvature="0"
   style="fill:url(#SVGID_20_)"
   id="path5821"
   d="m 195.4,139.3 c -18.5,0 -36.1,3.7 -52.2,10.4 10.6,0.4 21.2,1.3 31.7,2.8 36.9,5.4 73.4,19.1 101,44.1 27.6,25.1 45.4,62.4 41.8,99.6 -3.6,37.2 -31.1,72.3 -67.6,79.7 -25.9,5.3 -50.8,0.3 -74.5,-11.4 -48.1,-23.8 -77.5,-26.3 -96.4,-19.9 23.7,39.4 66.9,65.8 116.3,65.8 74.9,0 135.6,-60.7 135.6,-135.6 0,-74.9 -60.8,-135.5 -135.7,-135.5 z" />
		
			<radialGradient
   gradientUnits="userSpaceOnUse"
   gradientTransform="matrix(1,0,0,0.6972,0,88.6374)"
   r="171.73351"
   cy="292.76651"
   cx="197.4472"
   id="SVGID_21_">
			<stop
   id="stop5823"
   style="stop-color:#A0C53B"
   offset="0.6912" />
			<stop
   id="stop5825"
   style="stop-color:#A2C63A"
   offset="0.84" />
			<stop
   id="stop5827"
   style="stop-color:#A8C838"
   offset="0.8936" />
			<stop
   id="stop5829"
   style="stop-color:#B3CD35"
   offset="0.9318" />
			<stop
   id="stop5831"
   style="stop-color:#C3D42E"
   offset="0.9626" />
			<stop
   id="stop5833"
   style="stop-color:#D7DE23"
   offset="0.9888" />
			<stop
   id="stop5835"
   style="stop-color:#E2E419"
   offset="1" />
		</radialGradient>
		<path
   inkscape:connector-curvature="0"
   style="fill:url(#SVGID_21_)"
   id="path5838"
   d="m 116,384.8 c 22.3,16.2 49.8,25.7 79.4,25.7 29.7,0 57.1,-9.5 79.4,-25.7 z" />
		<g
   id="g5853">
			
				<radialGradient
   gradientUnits="userSpaceOnUse"
   gradientTransform="rotate(-0.04098955,1151.7988,9.1234407e-4)"
   r="273.6022"
   cy="150.7083"
   cx="159.8777"
   id="SVGID_22_">
				<stop
   id="stop5840"
   style="stop-color:#FFF56D"
   offset="0" />
				<stop
   id="stop5842"
   style="stop-color:#F9ED68"
   offset="0.156" />
				<stop
   id="stop5844"
   style="stop-color:#E0DD59"
   offset="0.3924" />
				<stop
   id="stop5846"
   style="stop-color:#BBC845"
   offset="0.6798" />
				<stop
   id="stop5848"
   style="stop-color:#8DAF33"
   offset="1" />
			</radialGradient>
			<path
   inkscape:connector-curvature="0"
   style="fill:url(#SVGID_22_)"
   id="path5851"
   d="m 175.1,366.2 c 24,11.8 49.6,17.2 75.8,11.8 37,-7.6 64.6,-43.9 68.2,-81.5 3.6,-37.6 -14.4,-75.4 -42.3,-100.8 -28,-25.3 -64.9,-39.2 -102.2,-44.6 -9.4,-1.4 -18.9,-2.2 -28.4,-2.6 -1,0.4 -2,0.8 -3,1.2 10.6,0.4 21.2,1.3 31.7,2.8 36.9,5.3 73.4,19 101,44.1 27.7,25 45.4,62.4 41.8,99.6 -3.6,37.2 -31,72.3 -67.6,79.8 -25.9,5.3 -50.8,0.4 -74.5,-11.3 -48.2,-23.8 -77.5,-26.2 -96.4,-19.8 0.3,0.4 0.5,0.9 0.8,1.3 19.2,-5.7 48.2,-3.1 95.1,20 z" />
		</g>
		
			<radialGradient
   gradientUnits="userSpaceOnUse"
   gradientTransform="matrix(-0.2943,0.9557,-0.3849,-0.1186,269.6442,28.4345)"
   r="555.37402"
   cy="162.2003"
   cx="160.08749"
   id="SVGID_23_">
			<stop
   id="stop5855"
   style="stop-color:#EFF0F1"
   offset="0" />
			<stop
   id="stop5857"
   style="stop-color:#E3E4E5"
   offset="1" />
		</radialGradient>
		<path
   inkscape:connector-curvature="0"
   style="fill:url(#SVGID_23_)"
   id="path5860"
   d="m 175.6,364.6 c 23.7,11.7 48.6,16.7 74.5,11.4 36.5,-7.4 64,-42.6 67.6,-79.7 3.6,-37.2 -14.1,-74.5 -41.8,-99.6 -27.6,-25.1 -64.1,-38.8 -101,-44.1 -10.5,-1.5 -21.1,-2.4 -31.7,-2.8 -4.4,1.8 -6.8,5.4 -10.9,7.7 -4.5,2.5 -10.7,3.7 -14.9,6.6 19.9,-1 39.9,-0.7 59.6,2.2 32.6,4.7 64.8,16.8 89.2,38.9 24.4,22.1 40.1,55 36.9,87.8 -3.2,32.8 -27.5,63.7 -59.7,70.3 -22.9,4.7 -46.5,-2.6 -68.1,-11.5 -21.6,-8.9 -43,-19.6 -66.2,-22.2 -11.9,-1.3 -24.6,0 -35.8,4.3 0.9,1.9 3.5,3.1 4.5,4.9 1,1.8 0.4,4.2 1.4,6 18.9,-6.5 48.2,-4 96.4,19.8 z" />
		<g
   id="g5869">
			
				<radialGradient
   gradientUnits="userSpaceOnUse"
   gradientTransform="matrix(-0.2943,0.9557,-0.3849,-0.1186,269.6442,28.4345)"
   r="555.37402"
   cy="162.2003"
   cx="160.08749"
   id="SVGID_24_">
				<stop
   id="stop5862"
   style="stop-color:#D8D9DA"
   offset="0" />
				<stop
   id="stop5864"
   style="stop-color:#B3B5B8"
   offset="1" />
			</radialGradient>
			<path
   inkscape:connector-curvature="0"
   style="fill:url(#SVGID_24_)"
   id="path5867"
   d="m 274.6,198 c 25.7,22.8 43,55.7 43.5,89.4 0.3,-34.2 -16.7,-67.7 -42.2,-90.8 -27.6,-25.1 -64.1,-38.8 -101,-44.1 -10.5,-1.5 -21.1,-2.4 -31.7,-2.8 -0.7,0.3 -1.4,0.7 -2,1 9.8,0.5 19.5,1.3 29.2,2.7 38.1,5.4 75.7,19.3 104.2,44.6 z" />
		</g>
		<g
   id="g5878">
			
				<radialGradient
   gradientUnits="userSpaceOnUse"
   gradientTransform="matrix(-0.2943,0.9557,-0.3849,-0.1186,269.6442,28.4345)"
   r="555.37402"
   cy="162.2003"
   cx="160.08749"
   id="SVGID_25_">
				<stop
   id="stop5871"
   style="stop-color:#D8D9DA"
   offset="0" />
				<stop
   id="stop5873"
   style="stop-color:#B3B5B8"
   offset="1" />
			</radialGradient>
			<path
   inkscape:connector-curvature="0"
   style="fill:url(#SVGID_25_)"
   id="path5876"
   d="m 106.2,335.2 c 23.2,2.6 44.6,13.3 66.2,22.2 21.6,8.9 45.2,16.1 68.1,11.5 23.3,-4.7 42.4,-22.2 52.5,-43.9 -10.6,19 -28.3,33.9 -49.6,38.2 -22.9,4.7 -46.5,-2.6 -68.1,-11.5 -21.6,-8.9 -43,-19.6 -66.2,-22.2 -11.9,-1.3 -24.6,0 -35.8,4.3 0.7,1.4 2.3,2.4 3.5,3.6 9.4,-2.6 19.6,-3.3 29.4,-2.2 z" />
		</g>
	</g>
</svg>