<?xml version="1.0" encoding="UTF-8" standalone="no"?>
<!-- Created with Inkscape (http://www.inkscape.org/) -->

<svg
   xmlns:dc="http://purl.org/dc/elements/1.1/"
   xmlns:cc="http://creativecommons.org/ns#"
   xmlns:rdf="http://www.w3.org/1999/02/22-rdf-syntax-ns#"
   xmlns:svg="http://www.w3.org/2000/svg"
   xmlns="http://www.w3.org/2000/svg"
   xmlns:sodipodi="http://sodipodi.sourceforge.net/DTD/sodipodi-0.dtd"
   xmlns:inkscape="http://www.inkscape.org/namespaces/inkscape"
   width="71.20459mm"
   height="37.084mm"
   viewBox="0 0 71.20459 37.084"
   version="1.1"
   id="svg745"
   inkscape:version="0.92.3 (2405546, 2018-03-11)"
   sodipodi:docname="WeakWind.svg">
  <defs
     id="defs739">
    <clipPath
       clipPathUnits="userSpaceOnUse"
       id="clipPath1452">
      <path
         d="M 0,612 H 792 V 0 H 0 Z"
         id="path1450"
         inkscape:connector-curvature="0" />
    </clipPath>
    <clipPath
       clipPathUnits="userSpaceOnUse"
       id="clipPath1460">
      <path
         d="M 85.2002,466.2 H 287.04 V 361.08 H 85.2002 Z"
         id="path1458"
         inkscape:connector-curvature="0" />
    </clipPath>
  </defs>
  <sodipodi:namedview
     id="base"
     pagecolor="#ffffff"
     bordercolor="#666666"
     borderopacity="1.0"
     inkscape:pageopacity="0.0"
     inkscape:pageshadow="2"
     inkscape:zoom="0.7"
     inkscape:cx="193.83367"
     inkscape:cy="56.33966"
     inkscape:document-units="mm"
     inkscape:current-layer="g1812"
     showgrid="false"
     fit-margin-top="0"
     fit-margin-left="0"
     fit-margin-right="0"
     fit-margin-bottom="0"
     inkscape:window-width="1853"
     inkscape:window-height="1025"
     inkscape:window-x="67"
     inkscape:window-y="27"
     inkscape:window-maximized="1" />
  <metadata
     id="metadata742">
    <rdf:RDF>
      <cc:Work
         rdf:about="">
        <dc:format>image/svg+xml</dc:format>
        <dc:type
           rdf:resource="http://purl.org/dc/dcmitype/StillImage" />
        <dc:title></dc:title>
      </cc:Work>
    </rdf:RDF>
  </metadata>
  <g
     inkscape:label="Layer 1"
     inkscape:groupmode="layer"
     id="layer1"
     transform="translate(-72.120917,-103.45502)">
    <g
       id="g650"
       transform="matrix(0.26458333,0,0,0.26458333,62.506446,-8.725091)">
      <g
         clip-path="url(#clipPath1452)"
         id="g1448"
         transform="matrix(1.3333333,0,0,-1.3333333,-42.976389,1121.3021)">
        <g
           id="g1456" />
        <g
           id="g1812">
          <g
             clip-path="url(#clipPath1460)"
             id="g1810"
             transform="translate(-25.714287,56.785716)">
            <g
               transform="translate(241.9204,463.0801)"
               id="g1464">
              <path
                 d="M 0,0 C 0.492,0.398 2.627,0.398 3.12,0 Z"
                 style="fill:#9ba3b9;fill-opacity:1;fill-rule:evenodd;stroke:none"
                 id="path1462"
                 inkscape:connector-curvature="0" />
            </g>
            <g
               transform="translate(137.52,449.8804)"
               id="g1468">
              <path
                 d="M 0,0 C 0.571,0.398 2.79,0.398 3.36,0 Z"
                 style="fill:#8985b4;fill-opacity:1;fill-rule:evenodd;stroke:none"
                 id="path1466"
                 inkscape:connector-curvature="0" />
            </g>
            <g
               transform="translate(151.2002,449.1602)"
               id="g1472">
              <path
                 d="M 0,0 C 0.492,0.398 2.628,0.398 3.12,0 Z"
                 style="fill:#8c94b7;fill-opacity:1;fill-rule:evenodd;stroke:none"
                 id="path1470"
                 inkscape:connector-curvature="0" />
            </g>
            <g
               transform="translate(139.9204,440.04)"
               id="g1476">
              <path
                 d="M 0,0 H 2.4 C 2.141,-0.397 0.259,-0.397 0,0"
                 style="fill:#8c94b7;fill-opacity:1;fill-rule:evenodd;stroke:none"
                 id="path1474"
                 inkscape:connector-curvature="0" />
            </g>
            <g
               transform="translate(236.8804,426.3604)"
               id="g1480">
              <path
                 d="M 0,0 H 2.4 C 2.141,-0.397 0.259,-0.397 0,0"
                 style="fill:#90b1d4;fill-opacity:1;fill-rule:evenodd;stroke:none"
                 id="path1478"
                 inkscape:connector-curvature="0" />
            </g>
            <g
               transform="translate(98.8804,422.2803)"
               id="g1484">
              <path
                 d="M 0,0 C 0.399,-1.125 0.399,-3.915 0,-5.04 Z"
                 style="fill:#8c94b7;fill-opacity:1;fill-rule:evenodd;stroke:none"
                 id="path1482"
                 inkscape:connector-curvature="0" />
            </g>
            <g
               transform="translate(236.6401,408.3604)"
               id="g1488">
              <path
                 d="M 0,0 H 3.6 C 2.951,-0.399 0.649,-0.399 0,0"
                 style="fill:#8c94b7;fill-opacity:1;fill-rule:evenodd;stroke:none"
                 id="path1486"
                 inkscape:connector-curvature="0" />
            </g>
            <g
               transform="translate(242.4004,406.4404)"
               id="g1492">
              <path
                 d="M 0,0 C 0.808,0.398 3.272,0.398 4.08,0 Z"
                 style="fill:#9ba3b9;fill-opacity:1;fill-rule:evenodd;stroke:none"
                 id="path1490"
                 inkscape:connector-curvature="0" />
            </g>
            <g
               transform="translate(233.04,406.2002)"
               id="g1496">
              <path
                 d="M 0,0 H 3.84 C 3.112,-0.399 0.729,-0.399 0,0"
                 style="fill:#90b1d4;fill-opacity:1;fill-rule:evenodd;stroke:none"
                 id="path1494"
                 inkscape:connector-curvature="0" />
            </g>
            <g
               transform="translate(118.8003,404.52)"
               id="g1500">
              <path
                 d="M 0,0 C 0.414,0.398 2.466,0.398 2.88,0 Z"
                 style="fill:#8c94b7;fill-opacity:1;fill-rule:evenodd;stroke:none"
                 id="path1498"
                 inkscape:connector-curvature="0" />
            </g>
            <g
               transform="translate(237.1201,388.2002)"
               id="g1504">
              <path
                 d="M 0,0 H 2.88 V -0.24 C 1.993,-0.087 0.489,-0.551 0,0"
                 style="fill:#8c94b7;fill-opacity:1;fill-rule:evenodd;stroke:none"
                 id="path1502"
                 inkscape:connector-curvature="0" />
            </g>
            <g
               transform="translate(234.48,385.8003)"
               id="g1508">
              <path
                 d="M 0,0 C -0.966,0.154 -2.552,-0.312 -3.12,0.24 H 0 Z"
                 style="fill:#7b99ca;fill-opacity:1;fill-rule:evenodd;stroke:none"
                 id="path1506"
                 inkscape:connector-curvature="0" />
            </g>
            <path
               d="m 234.48,386.04 h 4.08 v -0.24 h -4.08 z"
               style="fill:#8c94b7;fill-opacity:1;fill-rule:evenodd;stroke:none"
               id="path1510"
               inkscape:connector-curvature="0" />
            <g
               transform="translate(238.5601,385.8003)"
               id="g1514">
              <path
                 d="M 0,0 V 0.24 H 3.12 C 2.552,-0.312 0.966,0.154 0,0"
                 style="fill:#7b99ca;fill-opacity:1;fill-rule:evenodd;stroke:none"
                 id="path1512"
                 inkscape:connector-curvature="0" />
            </g>
            <g
               transform="translate(261.8403,459)"
               id="g1518">
              <path
                 d="M 0,0 C 0.9,-0.699 1.7,-1.5 2.4,-2.4 1.5,-1.7 0.699,-0.9 0,0"
                 style="fill:#8c94b7;fill-opacity:1;fill-rule:evenodd;stroke:none"
                 id="path1516"
                 inkscape:connector-curvature="0" />
            </g>
            <g
               transform="translate(195.3604,437.6401)"
               id="g1522">
              <path
                 d="M 0,0 C 2.87,-1.69 6.011,-3.108 9.36,-4.32 9.213,-4.544 8.801,-5.205 9.6,-5.04 9.561,-5.321 9.162,-5.242 8.88,-5.28 V -6 c 0.388,-0.067 0.413,0.227 0.72,0.24 -0.691,0.007 0.491,-2.784 -0.48,-2.4 0.106,-0.214 0.211,-0.429 0.48,-0.48 -1.054,-0.057 0.482,-0.584 -0.48,-0.96 0.026,-0.85 0.793,0.51 0.72,-0.24 0.043,-0.92 -0.196,-0.087 -0.72,-0.24 0.105,-0.295 0.307,-0.493 0.72,-0.48 -0.159,-1.058 0.039,-0.983 -0.48,-1.68 0.234,-0.245 0.474,-0.486 0.72,-0.72 -0.085,-0.376 -0.423,0.21 -0.48,-0.24 -3.016,0.985 -5.915,2.085 -9.12,2.88 -0.146,0.984 0.782,1.005 -0.24,1.68 0.861,1.265 -0.381,0.415 0.48,1.68 -0.105,0.356 -0.307,-0.095 -0.72,0 0.134,0.346 0.374,0.585 0.72,0.72 -0.085,0.336 -0.423,0.021 -0.48,-0.24 0.219,0.624 -0.401,2.227 0.24,2.88 C 0.266,-3.707 0.051,-3.811 0,-4.08 c -0.304,0.532 -0.227,0.606 0.48,0.72 -0.105,0.295 -0.307,0.493 -0.72,0.48 0.4,0.477 -0.022,0.305 0,0.96 0.193,0.127 0.389,0.251 0.72,0.24 -0.234,0.245 -0.475,0.486 -0.72,0.72 C -0.106,-0.471 0.482,-0.489 0,0"
                 style="fill:#6a81c0;fill-opacity:1;fill-rule:evenodd;stroke:none"
                 id="path1520"
                 inkscape:connector-curvature="0" />
            </g>
            <g
               transform="translate(258.2402,426.8403)"
               id="g1526">
              <path
                 d="M 0,0 C 0.82,0.619 1.541,1.339 2.16,2.16 2.293,1.695 0.464,-0.133 0,0"
                 style="fill:#8c94b7;fill-opacity:1;fill-rule:evenodd;stroke:none"
                 id="path1524"
                 inkscape:connector-curvature="0" />
            </g>
            <g
               transform="translate(254.1602,460.9204)"
               id="g1530">
              <path
                 d="m 0,0 c -0.125,-0.355 -0.355,-0.605 -0.48,-0.96 0.279,-0.039 0.427,0.053 0.48,0.24 0.145,0.144 0.244,-1.661 -0.48,-1.44 0.176,-0.224 0.437,-0.364 0.72,-0.48 -0.843,-1.165 0.463,-2.259 -0.72,-2.4 0.149,-0.099 1.231,-0.274 0.24,-0.72 0.176,-0.224 0.436,-0.364 0.72,-0.48 C 0.235,-6.556 0.245,-7.125 0,-7.44 c 0.104,-0.356 0.307,0.094 0.72,0 C 0.615,-7.735 0.413,-7.933 0,-7.92 c 0.278,-0.355 0.278,-0.605 0,-0.96 0.214,0.106 0.429,0.211 0.48,0.48 -0.35,-0.685 0.452,-0.812 -0.24,-1.2 0.649,0.173 0.066,-0.778 0.48,-0.48 0.301,-0.482 -0.706,-0.281 -0.48,-0.96 -1.249,0.991 -2.219,2.26 -3.6,3.12 -4.021,0.379 -5.805,2.995 -10.8,2.4 -0.28,0.78 -0.627,-0.008 -0.96,0.72 0.176,0.427 0.436,0.034 0.72,0 -0.864,0.914 -0.045,2.342 -0.72,3.12 -0.446,-1.355 -0.745,-0.164 0,0.96 -0.224,-0.136 -0.363,-0.667 -0.48,-0.24 0.044,0.204 -0.093,0.226 -0.24,0.24 0.433,0.903 1.232,-0.138 1.2,0.72 -0.762,-0.132 -1.451,1.197 0,1.2 -0.065,0.494 -1.063,0.057 -0.96,0.72 1.367,-0.167 1.994,0.407 3.36,0.24 h 3.12 C -5.467,2.053 -2.637,1.123 0,0"
                 style="fill:#69a7da;fill-opacity:1;fill-rule:evenodd;stroke:none"
                 id="path1528"
                 inkscape:connector-curvature="0" />
            </g>
            <g
               transform="translate(254.1602,460.9204)"
               id="g1534">
              <path
                 d="M 0,0 C 5.82,-3.637 12.841,-9.866 12,-19.44 11.53,-24.796 9,-28.38 6.24,-31.92 5.621,-32.741 4.9,-33.461 4.08,-34.08 3.347,-34.307 3.328,-35.248 2.4,-35.28 H 2.16 c 0.232,0.928 -1.06,0.823 0,1.68 -0.298,0.247 -0.926,-0.031 -0.48,0.96 0.537,-1.039 0.192,2.589 -0.48,3.36 0.105,0.295 0.307,0.493 0.72,0.48 -0.188,0.166 -0.534,1.339 0,1.44 -0.217,0.655 -0.537,-0.73 -0.96,0 4.396,3.937 3.254,12.655 -0.72,16.32 -0.226,0.679 0.781,0.478 0.48,0.96 -0.414,-0.298 0.169,0.653 -0.48,0.48 0.692,0.388 -0.11,0.515 0.24,1.2 C 0.429,-8.669 0.214,-8.774 0,-8.88 c 0.278,0.355 0.278,0.605 0,0.96 0.413,-0.013 0.615,0.185 0.72,0.48 -0.413,0.094 -0.616,-0.356 -0.72,0 0.245,0.315 0.235,0.884 0.48,1.2 -0.284,0.116 -0.544,0.256 -0.72,0.48 0.991,0.446 -0.091,0.621 -0.24,0.72 1.183,0.141 -0.123,1.235 0.72,2.4 -0.283,0.116 -0.544,0.256 -0.72,0.48 C 0.244,-2.381 0.145,-0.576 0,-0.72 -0.053,-0.907 -0.201,-0.999 -0.48,-0.96 -0.355,-0.605 -0.125,-0.355 0,0"
                 style="fill:#6ab3e3;fill-opacity:1;fill-rule:evenodd;stroke:none"
                 id="path1532"
                 inkscape:connector-curvature="0" />
            </g>
            <g
               transform="translate(238.5601,462.8403)"
               id="g1538">
              <path
                 d="m 0,0 c -0.103,-0.663 0.895,-0.226 0.96,-0.72 -1.451,-0.003 -0.762,-1.332 0,-1.2 0.032,-0.858 -0.767,0.183 -1.2,-0.72 0.147,-0.014 0.284,-0.036 0.24,-0.24 0.117,-0.427 0.256,0.104 0.48,0.24 -0.745,-1.124 -0.446,-2.315 0,-0.96 0.675,-0.778 -0.144,-2.206 0.72,-3.12 -0.283,0.034 -0.544,0.427 -0.72,0 0.333,-0.728 0.68,0.06 0.96,-0.72 -2.981,0.656 -3.082,-1.845 -5.04,-1.68 -1.78,0.149 -2.791,2.56 -2.4,4.56 0.351,1.792 4.119,4.644 6,4.56"
                 style="fill:#699cd3;fill-opacity:1;fill-rule:evenodd;stroke:none"
                 id="path1536"
                 inkscape:connector-curvature="0" />
            </g>
            <g
               transform="translate(255.1201,433.5601)"
               id="g1542">
              <path
                 d="M 0,0 C 0.423,-0.73 0.743,0.655 0.96,0 0.426,-0.101 0.772,-1.273 0.96,-1.44 0.547,-1.427 0.345,-1.625 0.24,-1.92 0.912,-2.691 1.257,-6.318 0.72,-5.28 0.274,-6.271 0.902,-5.993 1.2,-6.24 0.14,-7.097 1.432,-6.992 1.2,-7.92 h 0.24 c -3.693,-3.267 -9.11,-4.809 -14.88,-6 -0.148,0.771 0.864,0.329 0.24,0.96 -0.224,-0.176 -0.363,-0.436 -0.48,-0.72 -0.376,0.085 0.21,0.423 -0.24,0.48 -0.21,0.771 0.623,0.498 0.72,0.96 -0.067,0.504 -0.641,-0.348 -0.96,0.24 0.046,0.272 0.241,0.133 0.24,0 0.571,0.333 -0.545,1.801 0,2.16 0.281,-0.038 0.203,-0.437 0.24,-0.72 0.52,-0.04 0.109,0.852 0.24,1.2 -0.315,-0.085 -0.377,-0.422 -0.72,-0.48 0.692,0.816 -0.009,1.879 0.24,2.64 v 0.24 C -7.557,-6.363 -1.89,-5.069 0,0"
                 style="fill:#69a7da;fill-opacity:1;fill-rule:evenodd;stroke:none"
                 id="path1540"
                 inkscape:connector-curvature="0" />
            </g>
            <g
               transform="translate(145.4404,449.6401)"
               id="g1546">
              <path
                 d="M 0,0 C 0.044,-0.204 -0.094,-0.227 -0.24,-0.24 -0.195,-0.434 0,-0.479 0,-0.72 0.233,-0.713 0.186,-0.426 0.24,-0.24 0.827,-0.267 0.291,-1.033 0,-0.96 0.156,-1.204 0.552,-1.208 0.48,-1.68 -0.799,-0.964 1.344,-2.459 0,-2.4 0.026,-2.591 0.793,-3.127 0.72,-2.64 0.466,-3.089 0.934,-4.676 0,-4.56 0.778,-5.157 -0.089,-5.915 0.96,-6.24 0.724,-6.976 0.319,-5.964 0,-6 0.332,-6.756 1.019,-7.296 0.24,-8.16 0.496,-8.977 0.314,-7.492 0.96,-7.92 0.77,-8.475 0.758,-8.715 0.72,-9.84 c -0.323,0.048 -0.447,0.997 -0.48,0 -1.325,-0.125 -2.263,0.137 -3.36,0.24 h -2.4 c -5.426,0.145 -10.376,-0.185 -14.88,-0.96 -0.068,0.429 0.227,0.493 0.24,0.24 0.641,-0.071 -0.638,0.931 0.48,0.72 -1.142,1.413 -0.799,1.848 -0.48,3.84 -0.951,-0.074 0.268,-0.833 -0.72,-0.72 -0.114,0.753 0.646,0.634 0.72,1.2 -0.105,0.356 -0.307,-0.095 -0.72,0 0.166,0.194 0.373,0.657 0,0.72 0.377,0.877 0.359,-0.558 0.96,-0.24 -0.568,0.543 -0.528,1.501 -0.96,1.2 -0.268,0.299 0.085,1.229 0.48,0.72 0.242,0.722 -0.535,0.425 -0.96,0.48 0.046,0.194 0.24,0.239 0.24,0.48 4.24,0.88 8.172,2.068 13.2,2.16 h 3.36 C -2.785,0.416 -1.629,-0.029 0,0"
                 style="fill:#6756a5;fill-opacity:1;fill-rule:evenodd;stroke:none"
                 id="path1544"
                 inkscape:connector-curvature="0" />
            </g>
            <g
               transform="translate(145.6802,439.8003)"
               id="g1550">
              <path
                 d="M 0,0 C 0.033,0.997 0.158,0.048 0.48,0 0.519,1.125 0.53,1.365 0.72,1.92 0.075,2.348 0.256,0.863 0,1.68 0.779,2.544 0.092,3.084 -0.24,3.84 0.08,3.875 0.484,2.864 0.72,3.6 -0.329,3.925 0.538,4.683 -0.24,5.28 0.694,5.164 0.226,6.75 0.48,7.2 0.553,6.712 -0.213,7.249 -0.24,7.44 1.104,7.381 -1.039,8.875 0.24,8.16 0.312,8.632 -0.084,8.636 -0.24,8.88 0.051,8.807 0.587,9.573 0,9.6 -0.054,9.414 -0.006,9.126 -0.24,9.12 -0.239,9.361 -0.435,9.406 -0.48,9.6 -0.333,9.613 -0.196,9.636 -0.24,9.84 1.666,9.666 3.647,9.567 5.52,9.36 H 8.64 C 11.232,9.152 13.867,8.987 16.56,8.88 16.475,8.565 16.138,8.502 16.08,8.16 16.916,8.642 16.06,8.054 16.56,7.92 16.454,7.571 16.349,7.944 16.08,7.92 V 7.44 c 0.62,0.276 0.501,-1.263 -0.24,-0.72 0.186,-0.214 0.258,-0.542 0.24,-0.96 0.224,0.176 0.364,0.436 0.48,0.72 0.402,0.664 0.063,-1.294 -0.48,-1.2 C 16.32,4.95 16.476,5.382 16.8,4.8 16.761,4.519 16.362,4.598 16.08,4.56 17.209,3.857 16.356,1.874 16.32,1.44 17.065,1.16 16.192,0.747 17.04,0.72 16.4,0.03 17.488,-0.897 16.32,-0.96 c 0.105,-0.356 0.307,0.095 0.72,0 -0.125,-0.355 -0.355,-0.605 -0.48,-0.96 1.145,0.372 0.319,0.084 0.48,-0.96 C 11.556,-1.725 5.792,-0.848 0,0"
                 style="fill:#6763ad;fill-opacity:1;fill-rule:evenodd;stroke:none"
                 id="path1548"
                 inkscape:connector-curvature="0" />
            </g>
            <g
               transform="translate(128.4004,398.52)"
               id="g1554">
              <path
                 d="m 0,0 c -3.558,-1.158 -8.883,-3.183 -13.92,-2.64 -3.658,0.394 -7.658,2.457 -11.28,4.08 -8.063,3.614 -13.742,8.995 -14.64,19.2 -0.435,4.945 0.929,9.366 3.36,12.24 5.118,6.052 16.001,14.08 25.68,15.84 1.85,0.337 4.37,0.051 6.72,0.48 0,-0.241 -0.194,-0.285 -0.24,-0.48 0.425,-0.054 1.202,0.242 0.96,-0.48 -0.395,0.509 -0.748,-0.421 -0.48,-0.72 0.432,0.301 0.392,-0.657 0.96,-1.2 -0.601,-0.318 -0.583,1.118 -0.96,0.24 0.373,-0.062 0.166,-0.526 0,-0.72 0.413,-0.094 0.615,0.356 0.72,0 -0.074,-0.566 -0.834,-0.446 -0.72,-1.2 0.988,-0.113 -0.231,0.646 0.72,0.72 -0.318,-1.992 -0.662,-2.426 0.48,-3.84 -1.118,0.211 0.161,-0.791 -0.48,-0.72 -0.013,0.253 -0.308,0.189 -0.24,-0.24 -5.781,-0.768 -14.066,-3.706 -19.44,-6.72 -3.925,-2.201 -6.76,-4.173 -6.72,-10.08 V 18.72 17.76 C -25.144,11.576 -19.142,7.018 -9.6,6 h 2.88 c 2.019,0.061 3.663,0.497 5.28,0.96 0.006,-0.233 0.294,-0.186 0.48,-0.24 0.266,-0.928 -0.849,-0.854 -0.24,-1.44 0.693,1.351 0.898,-1.716 0.24,-0.24 -0.443,-0.644 1.77,-1.869 0,-2.16 0.006,0.234 0.293,0.186 0.48,0.24 C -1.146,4 -1.311,2.37 -1.68,2.16 -1.203,2.163 -1.375,2.815 -0.72,2.64 -0.794,2.074 -1.554,2.194 -1.44,1.44 -1.216,1.616 -1.077,1.876 -0.96,2.16 -0.742,1.338 -0.323,0.717 0,0"
                 style="fill:#6751a2;fill-opacity:1;fill-rule:evenodd;stroke:none"
                 id="path1552"
                 inkscape:connector-curvature="0" />
            </g>
            <g
               transform="translate(162.7202,436.9204)"
               id="g1558">
              <path
                 d="m 0,0 c -0.161,1.044 0.665,1.332 -0.48,0.96 0.125,0.355 0.355,0.604 0.48,0.96 -0.413,0.095 -0.615,-0.357 -0.72,0 1.168,0.062 0.08,0.99 0.72,1.68 -0.848,0.026 0.025,0.44 -0.72,0.72 0.036,0.434 0.889,2.417 -0.24,3.12 0.282,0.038 0.681,-0.042 0.72,0.24 -0.324,0.582 -0.48,0.15 -0.72,0.48 0.543,-0.095 0.882,1.864 0.48,1.2 -0.116,-0.284 -0.256,-0.544 -0.48,-0.72 0.018,0.418 -0.054,0.746 -0.24,0.96 0.741,-0.543 0.86,0.996 0.24,0.72 v 0.48 c 0.269,0.024 0.374,-0.349 0.48,0 -0.5,0.134 0.356,0.722 -0.48,0.24 0.058,0.342 0.395,0.405 0.48,0.72 C 2.922,11.402 5.712,10.432 8.64,9.6 8.789,8.709 8.25,7.129 9.12,6.96 9.014,6.611 8.909,6.984 8.64,6.96 8.596,6.436 8.836,6.196 9.36,6.24 9.184,6.016 8.923,5.876 8.64,5.76 8.688,5.438 9.637,5.313 8.64,5.28 9.168,4.775 9.168,4.344 8.64,3.84 9.048,3.751 9.093,4.027 9.12,4.32 9.988,3.885 8.696,3.658 8.88,3.12 9.308,2.842 9.793,0.089 8.88,-0.24 8.919,-0.521 9.317,-0.443 9.6,-0.48 8.47,-1.433 9.353,-0.54 9.6,-1.68 9.406,-1.635 9.361,-1.439 9.12,-1.44 8.747,-2.293 9.935,-1.585 9.84,-2.16 6.66,-1.34 3.316,-0.684 0,0"
                 style="fill:#686ab1;fill-opacity:1;fill-rule:evenodd;stroke:none"
                 id="path1556"
                 inkscape:connector-curvature="0" />
            </g>
            <g
               transform="translate(171.3604,446.52)"
               id="g1562">
              <path
                 d="M 0,0 C 2.867,-0.653 5.71,-1.33 8.4,-2.16 8.439,-2.439 8.347,-2.587 8.16,-2.64 8.23,-2.853 8.809,-3.69 8.88,-3.12 9.444,-3.123 8.792,-3.774 8.4,-3.6 8.639,-3.92 9.048,-4.071 9.12,-4.56 9.645,-5.14 8.665,-4.185 8.4,-4.08 8.668,-4.375 8.609,-4.573 8.16,-4.56 8.532,-5.245 8.82,-4.643 9.12,-5.52 7.98,-5.89 9.704,-6.386 9.12,-6.72 8.701,-7.291 9.299,-6.453 8.88,-6.24 8.558,-6.288 8.433,-7.237 8.4,-6.24 7.997,-7.134 9.092,-7.503 9.36,-8.16 9.314,-8.432 9.119,-8.293 9.12,-8.16 8.667,-8.187 8.953,-8.953 8.4,-8.88 c 0.305,-0.438 1.173,0.169 0.24,-0.48 0.443,-0.087 1.043,-2.202 0,-2.4 0.036,-0.597 0.813,-0.07 0.96,0 0.444,0.65 -0.062,-0.549 -0.48,-0.48 0.647,-0.531 0.811,-1.292 0.24,-2.16 -3.068,0.532 -5.67,1.53 -8.16,2.64 0.095,0.575 -1.093,-0.133 -0.72,0.72 0.241,10e-4 0.286,-0.194 0.48,-0.24 -0.247,1.14 -1.13,0.248 0,1.2 -0.283,0.038 -0.681,-0.041 -0.72,0.24 0.913,0.33 0.427,3.083 0,3.36 -0.184,0.538 1.108,0.765 0.24,1.2 C 0.453,-5.573 0.408,-5.848 0,-5.76 c 0.528,0.505 0.528,0.936 0,1.44 0.997,0.033 0.048,0.158 0,0.48 0.283,0.116 0.544,0.256 0.72,0.48 -0.524,-0.043 -0.764,0.196 -0.72,0.72 0.269,0.025 0.374,-0.349 0.48,0 C -0.39,-2.47 0.149,-0.891 0,0"
                 style="fill:#6871b5;fill-opacity:1;fill-rule:evenodd;stroke:none"
                 id="path1560"
                 inkscape:connector-curvature="0" />
            </g>
            <g
               transform="translate(128.4004,398.52)"
               id="g1566">
              <path
                 d="M 0,0 C -0.323,0.717 -0.742,1.338 -0.96,2.16 -1.077,1.876 -1.216,1.616 -1.44,1.44 -1.554,2.194 -0.794,2.074 -0.72,2.64 -1.375,2.815 -1.203,2.163 -1.68,2.16 -1.311,2.37 -1.146,4 -0.48,3.12 -0.667,3.066 -0.954,3.114 -0.96,2.88 c 1.77,0.291 -0.443,1.516 0,2.16 0.658,-1.476 0.453,1.591 -0.24,0.24 -0.609,0.586 0.506,0.512 0.24,1.44 -0.186,0.054 -0.474,0.007 -0.48,0.24 4.607,1.446 4.896,11.276 -0.72,11.76 0.147,0.214 0.29,0.429 0,0.48 0.085,0.337 0.422,0.021 0.48,-0.24 0.165,0.293 0.32,1.543 -0.48,1.92 0.134,0.346 0.374,0.586 0.72,0.72 -0.782,0.257 0.139,1.044 -0.96,1.2 0.074,0.326 0.601,0.2 0.96,0.24 -0.399,0.532 -1.296,-0.045 -0.72,0.96 0.715,-0.899 0.157,0.317 0.72,0.96 C 4.346,24.491 11.085,20.11 11.52,14.16 11.965,8.062 5.491,1.703 0,0"
                 style="fill:#6756a5;fill-opacity:1;fill-rule:evenodd;stroke:none"
                 id="path1564"
                 inkscape:connector-curvature="0" />
            </g>
            <g
               transform="translate(180.7202,432.1201)"
               id="g1570">
              <path
                 d="m 0,0 c 0.571,0.868 0.407,1.629 -0.24,2.16 0.418,-0.069 0.925,1.13 0.48,0.48 -0.147,-0.07 -0.924,-0.597 -0.96,0 1.043,0.198 0.443,2.313 0,2.4 0.933,0.649 0.065,0.042 -0.24,0.48 0.553,-0.073 0.267,0.693 0.72,0.72 -0.001,-0.133 0.195,-0.272 0.24,0 -0.268,0.657 -1.363,1.026 -0.96,1.92 0.033,-0.997 0.158,-0.048 0.48,0 0.419,-0.213 -0.179,-1.051 0.24,-0.48 0.584,0.334 -1.139,0.83 0,1.2 -0.3,0.877 -0.588,0.275 -0.96,0.96 0.449,-0.013 0.508,0.185 0.24,0.48 0.265,-0.105 1.245,-1.06 0.72,-0.48 -0.072,0.489 -0.481,0.639 -0.72,0.96 0.392,-0.175 1.044,0.477 0.48,0.48 -0.071,-0.571 -0.649,0.267 -0.72,0.48 0.187,0.053 0.279,0.201 0.24,0.48 C 1.243,11.243 3.865,10.666 5.76,9.36 5.551,8.724 6.346,7.904 6.48,8.4 7.077,7.326 5.334,8.585 6.72,6.96 6.114,7.09 6.114,6.11 6.72,6.24 6.615,5.945 6.413,5.747 6,5.76 6.217,4.952 6.537,5.732 6.96,5.28 6.721,4.959 6.312,4.809 6.24,4.32 7.826,5.157 6.449,3.687 7.2,2.88 7.024,2.453 6.764,2.846 6.48,2.88 6.465,2.069 6.913,1.856 6.24,1.44 6.449,0.731 6.599,1.997 7.2,1.68 6.697,1.209 6.623,0.48 6.48,0.24 6.528,-0.082 7.477,-0.207 6.48,-0.24 6.582,-0.698 7.166,-0.674 6.96,-1.44 4.665,-0.935 2.189,-0.61 0,0"
                 style="fill:#6975b8;fill-opacity:1;fill-rule:evenodd;stroke:none"
                 id="path1568"
                 inkscape:connector-curvature="0" />
            </g>
            <g
               transform="translate(186.48,441.48)"
               id="g1574">
              <path
                 d="M 0,0 C 3.345,-0.895 4.925,-3.555 8.88,-3.84 9.362,-4.329 8.774,-4.311 8.64,-4.8 8.886,-5.034 9.126,-5.274 9.36,-5.52 9.03,-5.509 8.833,-5.633 8.64,-5.76 c -0.021,-0.655 0.4,-0.483 0,-0.96 0.413,0.013 0.615,-0.185 0.72,-0.48 -0.706,-0.113 -0.783,-0.188 -0.48,-0.72 0.051,0.27 0.266,0.374 0.48,0.48 -0.64,-0.653 -0.02,-2.256 -0.24,-2.88 0.058,0.261 0.396,0.576 0.48,0.24 -0.346,-0.134 -0.585,-0.374 -0.72,-0.72 0.413,-0.095 0.616,0.357 0.72,0 -0.86,-1.265 0.381,-0.415 -0.48,-1.68 1.022,-0.675 0.094,-0.696 0.24,-1.68 -3.042,0.798 -5.423,2.257 -8.16,3.36 0.206,0.766 -0.378,0.742 -0.48,1.2 0.997,0.033 0.049,0.158 0,0.48 0.143,0.241 0.217,0.969 0.72,1.44 -0.601,0.317 -0.751,-0.948 -0.96,-0.24 0.673,0.416 0.226,0.629 0.24,1.44 0.284,-0.034 0.544,-0.427 0.72,0 -0.751,0.807 0.626,2.277 -0.96,1.44 0.072,0.489 0.481,0.64 0.72,0.96 -0.423,0.452 -0.743,-0.328 -0.96,0.48 0.413,-0.013 0.615,0.185 0.72,0.48 -0.606,-0.13 -0.606,0.85 0,0.72 -1.386,1.626 0.357,0.366 -0.24,1.44 C 0.586,-1.456 -0.208,-0.636 0,0"
                 style="fill:#6a7abb;fill-opacity:1;fill-rule:evenodd;stroke:none"
                 id="path1572"
                 inkscape:connector-curvature="0" />
            </g>
            <g
               transform="translate(241.2002,426.3604)"
               id="g1578">
              <path
                 d="m 0,0 c -0.25,-0.761 0.452,-1.825 -0.24,-2.64 0.343,0.057 0.405,0.395 0.72,0.48 C 0.349,-2.509 0.76,-3.4 0.24,-3.36 0.203,-3.078 0.281,-2.679 0,-2.64 -0.545,-2.999 0.571,-4.468 0,-4.8 c 0.001,0.133 -0.194,0.272 -0.24,0 0.319,-0.588 0.893,0.264 0.96,-0.24 C 0.623,-5.502 -0.21,-5.229 0,-6 c 0.45,-0.058 -0.136,-0.396 0.24,-0.48 0.116,0.283 0.256,0.544 0.48,0.72 0.624,-0.631 -0.388,-0.189 -0.24,-0.96 -3.779,-0.328 -8.26,-1.145 -12.24,-0.48 -0.125,0.49 -0.387,0.981 0,1.68 -1.142,0.168 0.62,1.409 -0.72,2.16 1.091,1.016 -0.627,0.959 0.72,1.68 -0.437,0.46 -0.182,0.237 -0.72,1.92 h 1.44 c 2.38,0.06 4.217,-0.423 6.72,-0.24 0.259,-0.397 2.141,-0.397 2.4,0 z"
                 style="fill:#699cd3;fill-opacity:1;fill-rule:evenodd;stroke:none"
                 id="path1576"
                 inkscape:connector-curvature="0" />
            </g>
            <g
               transform="translate(204.7202,433.3203)"
               id="g1582">
              <path
                 d="m 0,0 c 3.687,-1.674 7.9,-2.819 11.28,-4.8 0.524,-0.515 -0.578,-2.528 0.48,-2.88 0.762,-0.201 -0.426,-0.317 -0.72,-0.24 0.158,-0.322 0.513,-0.447 0.96,-0.48 -0.492,-0.597 -0.083,-1.018 0,-2.4 -0.454,0.027 -0.167,0.793 -0.72,0.72 0.215,-0.212 0.373,-1.67 0.72,-0.96 0.027,-0.843 -0.613,-0.431 0,-1.44 -4.191,0.929 -8.276,1.963 -11.76,3.6 0.057,0.45 0.395,-0.136 0.48,0.24 -0.245,0.234 -0.486,0.474 -0.72,0.72 0.52,0.697 0.321,0.622 0.48,1.68 -0.413,-0.013 -0.615,0.185 -0.72,0.48 0.524,0.153 0.763,-0.68 0.72,0.24 0.073,0.75 -0.693,-0.61 -0.72,0.24 0.962,0.376 -0.573,0.903 0.48,0.96 -0.269,0.05 -0.374,0.266 -0.48,0.48 0.971,-0.384 -0.211,2.407 0.48,2.4 -0.307,-0.013 -0.332,-0.308 -0.72,-0.24 v 0.72 c 0.282,0.038 0.681,-0.041 0.72,0.24 C -0.559,-0.885 -0.147,-0.224 0,0"
                 style="fill:#6989c5;fill-opacity:1;fill-rule:evenodd;stroke:none"
                 id="path1580"
                 inkscape:connector-curvature="0" />
            </g>
            <g
               transform="translate(216.7202,420.8403)"
               id="g1586">
              <path
                 d="M 0,0 C -0.613,1.009 0.027,0.597 0,1.44 -0.347,0.73 -0.505,2.188 -0.72,2.4 -0.167,2.473 -0.454,1.707 0,1.68 -0.083,3.062 -0.492,3.483 0,4.08 -0.447,4.113 -0.802,4.238 -0.96,4.56 -0.666,4.483 0.522,4.599 -0.24,4.8 -1.298,5.152 -0.196,7.165 -0.72,7.68 2.325,6.165 7.036,6.316 11.04,5.76 H 12 C 12.538,4.077 12.283,4.3 12.72,3.84 11.373,3.119 13.091,3.176 12,2.16 13.34,1.409 11.578,0.168 12.72,0 12.333,-0.699 12.595,-1.19 12.72,-1.68 7.975,-1.625 3.896,-0.904 0,0"
                 style="fill:#6993cb;fill-opacity:1;fill-rule:evenodd;stroke:none"
                 id="path1584"
                 inkscape:connector-curvature="0" />
            </g>
            <g
               transform="translate(169.6802,422.7603)"
               id="g1590">
              <path
                 d="M 0,0 C 1.205,-0.315 2.05,-0.99 3.12,-1.44 2.422,-1.57 0.828,-0.538 0,0"
                 style="fill:#8c94b7;fill-opacity:1;fill-rule:evenodd;stroke:none"
                 id="path1588"
                 inkscape:connector-curvature="0" />
            </g>
            <g
               transform="translate(179.7603,416.7603)"
               id="g1594">
              <path
                 d="M 0,0 C 0.644,-0.316 1.275,-0.645 1.92,-0.96 2.114,-1.006 2.159,-1.201 2.4,-1.2 1.955,-1.394 0.445,-0.603 0,0"
                 style="fill:#8c94b7;fill-opacity:1;fill-rule:evenodd;stroke:none"
                 id="path1592"
                 inkscape:connector-curvature="0" />
            </g>
            <g
               transform="translate(175.6802,424.2002)"
               id="g1598">
              <path
                 d="M 0,0 C 1.472,-0.607 3.007,-1.153 4.08,-2.16 2.749,-1.412 1.198,-0.882 0,0"
                 style="fill:#8c94b7;fill-opacity:1;fill-rule:evenodd;stroke:none"
                 id="path1596"
                 inkscape:connector-curvature="0" />
            </g>
            <g
               transform="translate(163.2002,428.52)"
               id="g1602">
              <path
                 d="m 0,0 c -0.067,-0.429 0.227,-0.492 0.24,-0.24 0.31,-0.021 0.014,-1.431 -0.72,-1.2 0.41,-0.23 0.526,-0.754 0.72,-1.2 -3.773,1.187 -6.732,3.188 -10.8,4.08 C -7.134,1.825 -3.014,0.828 0,0"
                 style="fill:#6763ad;fill-opacity:1;fill-rule:evenodd;stroke:none"
                 id="path1600"
                 inkscape:connector-curvature="0" />
            </g>
            <g
               transform="translate(163.2002,428.52)"
               id="g1606">
              <path
                 d="M 0,0 C 3.589,-0.65 6.516,-1.964 9.6,-3.12 9.705,-3.945 9.505,-4.465 9.36,-5.04 9.957,-5.28 9.793,-6.169 9.84,-7.2 H 9.6 c -1.07,0.45 -1.915,1.125 -3.12,1.44 -1.918,1.201 -4.39,1.85 -6.24,3.12 -0.194,0.446 -0.31,0.97 -0.72,1.2 0.734,-0.231 1.03,1.179 0.72,1.2 C 0.227,-0.492 -0.067,-0.429 0,0"
                 style="fill:#686ab1;fill-opacity:1;fill-rule:evenodd;stroke:none"
                 id="path1604"
                 inkscape:connector-curvature="0" />
            </g>
            <g
               transform="translate(172.8003,425.4004)"
               id="g1610">
              <path
                 d="M 0,0 C 0.933,-0.427 1.724,-0.996 2.88,-1.2 4.078,-2.083 5.628,-2.612 6.96,-3.36 7.485,-3.715 8.252,-3.828 8.64,-4.32 8.552,-4.729 8.827,-4.773 9.12,-4.8 8.743,-4.983 8.761,-5.562 8.16,-5.52 8.681,-5.719 8.694,-6.426 9.36,-6.48 9.151,-6.832 9,-7.241 8.4,-7.2 8.471,-7.76 9.049,-7.76 9.12,-7.2 9.576,-7.224 8.971,-8.137 8.64,-8.16 9.543,-8.042 8.401,-8.98 8.88,-9.6 8.235,-9.285 7.604,-8.956 6.96,-8.64 4.463,-7.377 2.18,-5.9 0.24,-4.08 0.193,-3.049 0.356,-2.161 -0.24,-1.92 -0.095,-1.345 0.105,-0.825 0,0"
                 style="fill:#6871b5;fill-opacity:1;fill-rule:evenodd;stroke:none"
                 id="path1608"
                 inkscape:connector-curvature="0" />
            </g>
            <g
               transform="translate(181.4404,421.0801)"
               id="g1614">
              <path
                 d="M 0,0 C 2.499,-0.941 5.044,-1.835 7.2,-3.12 6.922,-3.48 6.357,-4.13 7.2,-4.32 6.623,-5.566 6.997,-4.782 7.44,-6 7.333,-6.349 7.229,-5.976 6.96,-6 6.922,-6.677 7.638,-6.602 7.92,-6.96 c -0.105,-0.356 -0.307,0.095 -0.72,0 0.787,-0.697 0.152,-1.579 0,-2.16 0.451,-0.584 0.871,0.471 0.48,-0.72 -2.476,1.285 -4.506,3.015 -6.96,4.32 -0.241,-0.001 -0.286,0.194 -0.48,0.24 -0.479,0.62 0.663,1.559 -0.24,1.44 0.331,0.023 0.936,0.937 0.48,0.96 -0.071,-0.56 -0.649,-0.56 -0.72,0 0.6,-0.04 0.751,0.369 0.96,0.72 -0.666,0.054 -0.679,0.761 -1.2,0.96 0.601,-0.041 0.583,0.537 0.96,0.72 C 0.187,-0.453 -0.088,-0.408 0,0"
                 style="fill:#6975b8;fill-opacity:1;fill-rule:evenodd;stroke:none"
                 id="path1612"
                 inkscape:connector-curvature="0" />
            </g>
            <g
               transform="translate(126.2402,417.2402)"
               id="g1618">
              <path
                 d="m 0,0 c -2.713,1.207 -5.68,2.16 -8.88,2.88 1.993,2.327 5.511,3.129 9.6,3.36 C 0.157,5.597 0.715,4.38 0,5.28 -0.576,4.274 0.321,4.852 0.72,4.32 0.361,4.279 -0.166,4.406 -0.24,4.08 0.859,3.923 -0.062,3.137 0.72,2.88 0.375,2.746 0.134,2.506 0,2.16 0.8,1.783 0.645,0.533 0.48,0.24 0.422,0.5 0.085,0.816 0,0.48 0.29,0.429 0.147,0.213 0,0"
                 style="fill:#6751a2;fill-opacity:1;fill-rule:evenodd;stroke:none"
                 id="path1616"
                 inkscape:connector-curvature="0" />
            </g>
            <g
               transform="translate(162.96,408.1201)"
               id="g1622">
              <path
                 d="M 0,0 C 1.023,-0.657 1.617,-1.743 2.64,-2.4 V -2.64 C 1.66,-1.86 0.78,-0.98 0,0"
                 style="fill:#bbbecc;fill-opacity:1;fill-rule:evenodd;stroke:none"
                 id="path1620"
                 inkscape:connector-curvature="0" />
            </g>
            <g
               transform="translate(169.4404,401.6401)"
               id="g1626">
              <path
                 d="M 0,0 C -1.24,1.32 -2.417,2.703 -3.84,3.84 V 4.08 C -2.477,2.804 -0.973,1.667 0,0"
                 style="fill:#8c94b7;fill-opacity:1;fill-rule:evenodd;stroke:none"
                 id="path1624"
                 inkscape:connector-curvature="0" />
            </g>
            <g
               transform="translate(189.1201,411.2402)"
               id="g1630">
              <path
                 d="m 0,0 c 0.392,1.19 -0.029,0.136 -0.48,0.72 0.152,0.581 0.788,1.463 0,2.16 0.413,0.095 0.615,-0.356 0.72,0 -0.282,0.358 -0.997,0.283 -0.96,0.96 0.269,0.024 0.374,-0.349 0.48,0 -0.443,1.218 -0.817,0.433 -0.24,1.68 -0.842,0.189 -0.277,0.839 0,1.2 C 2.221,5.421 4.542,3.741 7.68,2.88 8.197,2.677 7.59,1.35 8.16,1.2 7.984,0.772 7.724,1.166 7.44,1.2 7.8,-0.348 8.61,-1.131 7.68,-2.4 8.347,-1.899 8.01,-3.442 7.92,-3.84 5.276,-2.564 2.363,-1.557 0,0"
                 style="fill:#6a7abb;fill-opacity:1;fill-rule:evenodd;stroke:none"
                 id="path1628"
                 inkscape:connector-curvature="0" />
            </g>
            <g
               transform="translate(258,397.5601)"
               id="g1634">
              <path
                 d="M 0,0 C -1.03,1.771 0.645,1.255 -0.72,2.64 0.761,2.115 -1.501,4.853 -0.24,6 -0.433,5.873 -0.629,5.75 -0.96,5.76 c -0.286,0.633 1.154,0.619 0,0.72 0.039,0.281 0.438,0.203 0.72,0.24 -1.177,0.575 -0.02,2.518 -0.48,3.12 3.887,1.353 7.626,2.939 11.76,5.52 3.465,2.163 7.112,6.42 10.8,6.48 1.787,0.029 3.715,-0.71 4.08,-2.64 V 16.8 C 21.924,6.557 12.031,2.209 0,0"
                 style="fill:#6ab3e3;fill-opacity:1;fill-rule:evenodd;stroke:none"
                 id="path1632"
                 inkscape:connector-curvature="0" />
            </g>
            <g
               transform="translate(251.04,406.6802)"
               id="g1638">
              <path
                 d="M 0,0 C 2.456,-0.135 4.133,0.507 6.24,0.72 6.7,0.118 5.542,-1.825 6.72,-2.4 6.438,-2.438 6.039,-2.359 6,-2.64 7.154,-2.741 5.714,-2.727 6,-3.36 6.331,-3.37 6.527,-3.247 6.72,-3.12 5.458,-4.268 7.721,-7.005 6.24,-6.48 7.604,-7.865 5.93,-7.349 6.96,-9.12 2.021,-9.542 -2.134,-10.746 -6.96,-11.28 h -0.96 c -0.033,0.447 -0.158,0.802 -0.48,0.96 0.156,0.244 0.552,0.248 0.48,0.72 -0.07,0.847 -0.649,-0.847 -0.72,0 -0.134,0.427 0.807,1.049 -0.24,1.92 0.558,0.474 0.643,0.474 1.2,0 -0.531,0.557 -0.212,0.642 -0.48,1.2 -0.273,-1.125 -0.665,0.75 0.24,0.72 0.119,0.754 -0.827,0.634 -0.24,1.2 -0.345,-0.531 -0.586,0.302 -0.72,-0.24 -0.652,0.219 0.64,0.446 0.24,1.2 0.315,-0.288 0.378,-0.093 0.72,0 -0.163,0.185 -0.797,0.365 -0.96,-0.24 -0.14,0.461 -0.231,1.127 0,1.68 0.273,-0.046 0.133,-0.241 0,-0.24 0.074,-0.326 0.601,-0.199 0.96,-0.24 -0.534,0.346 -0.697,1.063 -1.44,1.2 0.294,0.727 0.916,-0.169 1.2,-0.24 -0.102,0.458 -0.686,0.434 -0.48,1.2 -0.499,-0.269 -0.508,-0.259 -0.24,0.24 h 0.24 4.08 1.2 C -2.314,-0.085 -0.647,-0.553 0,0"
                 style="fill:#69a7da;fill-opacity:1;fill-rule:evenodd;stroke:none"
                 id="path1636"
                 inkscape:connector-curvature="0" />
            </g>
            <g
               transform="translate(182.4004,394.9204)"
               id="g1642">
              <path
                 d="m 0,0 c -3.417,2.342 -6.271,5.25 -8.88,8.4 0.929,0.473 0.102,1.963 0.48,2.88 C -4.645,10.236 -2.749,7.332 0.48,5.76 0.434,5.565 0.239,5.521 0.24,5.28 0.444,5.236 0.466,5.374 0.48,5.52 0.856,5.435 0.27,5.097 0.72,5.04 0.36,4.97 0.291,4.719 -0.24,4.32 0.148,4.278 0.058,3.868 0.96,3.84 0.657,3.795 0.238,2.789 0.72,3.36 1.322,3.257 0.489,2.674 0,2.88 0.054,2.534 0.716,2.796 0.72,2.4 0.761,1.388 0.351,2.404 0,2.4 0.055,1.458 0.392,2.025 1.2,1.2 1.115,0.824 0.777,1.41 0.72,0.96 0.371,1.066 0.744,1.17 0.72,1.44 0.525,1.394 0.48,1.199 0.24,1.2 0.345,0.905 0.547,0.707 0.96,0.72 1.113,0.196 0.28,-0.044 1.2,0 1.138,-0.562 0.146,-0.139 0,0"
                 style="fill:#6871b5;fill-opacity:1;fill-rule:evenodd;stroke:none"
                 id="path1640"
                 inkscape:connector-curvature="0" />
            </g>
            <g
               transform="translate(190.0801,389.8804)"
               id="g1646">
              <path
                 d="m 0,0 c -2.285,1.955 -5.581,2.899 -7.68,5.04 0.146,-0.139 1.138,-0.562 1.2,0 -0.92,-0.044 -0.087,0.196 -0.24,0.72 -0.413,-0.013 -0.615,0.185 -0.72,0.48 0.241,-0.001 0.286,0.194 0.48,0.24 0.024,-0.27 -0.349,-0.374 0,-0.48 0.058,0.45 0.396,-0.136 0.48,0.24 -0.808,0.825 -1.145,0.259 -1.2,1.2 0.351,0.004 0.761,-1.012 0.72,0 -0.003,0.396 -0.665,0.134 -0.72,0.48 0.49,-0.206 1.323,0.377 0.72,0.48 -0.481,-0.571 -0.062,0.435 0.24,0.48 -0.902,0.028 -0.812,0.438 -1.2,0.48 0.531,0.399 0.601,0.65 0.96,0.72 -0.45,0.057 0.136,0.395 -0.24,0.48 -0.013,-0.146 -0.036,-0.284 -0.24,-0.24 0,0.241 0.194,0.285 0.24,0.48 C -5.001,9.479 -2.561,8.399 -0.24,7.2 -0.005,6.653 -0.375,6.27 -0.48,5.76 -0.244,5.436 0.161,5.28 0.48,5.04 0.422,4.618 0.067,4.493 -0.48,4.56 0.189,3.693 0.858,3.632 -0.24,2.64 -0.201,2.358 0.198,2.438 0.48,2.4 0.414,1.906 -0.414,2.174 -0.48,1.68 -0.441,1.398 -0.042,1.478 0.24,1.44 0.281,0.776 -0.128,0.616 -0.48,0.96 -0.346,0.614 -0.105,0.374 0.24,0.24 0.284,0.036 0.146,0.013 0,0"
                 style="fill:#6975b8;fill-opacity:1;fill-rule:evenodd;stroke:none"
                 id="path1644"
                 inkscape:connector-curvature="0" />
            </g>
            <g
               transform="translate(163.6802,412.6802)"
               id="g1650">
              <path
                 d="M 0,0 C 0.482,0.489 -0.106,0.471 -0.24,0.96 0.766,-0.034 1.914,-0.886 3.84,-0.96 4.902,-3.897 9.445,-3.355 10.32,-6.48 9.942,-7.397 10.77,-8.887 9.84,-9.36 5.455,-7.345 2.535,-3.865 0,0"
                 style="fill:#686ab1;fill-opacity:1;fill-rule:evenodd;stroke:none"
                 id="path1648"
                 inkscape:connector-curvature="0" />
            </g>
            <g
               transform="translate(163.6802,412.6802)"
               id="g1654">
              <path
                 d="M 0,0 C -1.851,2.389 -6.025,2.455 -7.44,5.28 -4.695,4.185 -1.676,3.364 -0.24,0.96 -0.106,0.471 0.482,0.489 0,0"
                 style="fill:#6763ad;fill-opacity:1;fill-rule:evenodd;stroke:none"
                 id="path1652"
                 inkscape:connector-curvature="0" />
            </g>
            <g
               transform="translate(196.8003,414.1201)"
               id="g1658">
              <path
                 d="M 0,0 C 3.685,-0.476 6.901,-1.419 9.36,-3.12 8.967,-3.666 8.412,-5.304 9.6,-5.52 8.359,-7.736 10.613,-8.089 9.12,-9.36 c 0.448,-0.578 0.992,-0.795 0.48,-1.44 -3.16,1.321 -5.966,2.994 -9.36,4.08 0.09,0.398 0.427,1.941 -0.24,1.44 0.93,1.269 0.12,2.052 -0.24,3.6 0.283,-0.034 0.544,-0.427 0.72,0 C -0.09,-1.53 0.517,-0.203 0,0"
                 style="fill:#6a81c0;fill-opacity:1;fill-rule:evenodd;stroke:none"
                 id="path1656"
                 inkscape:connector-curvature="0" />
            </g>
            <g
               transform="translate(206.1602,411)"
               id="g1662">
              <path
                 d="m 0,0 c 4.432,0.032 6.715,-2.085 11.04,-2.16 0.039,-0.279 -0.053,-0.427 -0.24,-0.48 0.135,-0.695 0.374,0.369 0.72,0.24 0.605,-0.242 -0.837,-0.414 -0.72,-0.96 0.943,0.43 0.784,-0.369 0.72,-1.2 -0.368,0.003 -0.789,0.655 0,0.48 -0.045,0.195 -0.241,0.239 -0.24,0.48 -0.769,-0.393 -0.208,-1.236 0.24,-1.68 -0.338,-0.356 -0.766,-0.516 0.24,-0.48 -0.039,-0.281 -0.438,-0.202 -0.72,-0.24 0.134,-0.345 0.375,-0.585 0.72,-0.72 -0.176,-0.427 -0.436,-0.034 -0.72,0 0.524,-0.516 0.484,-1.596 0.96,-2.16 -0.315,0.085 -0.377,0.423 -0.72,0.48 -0.486,-0.769 0.949,-0.75 0.24,-0.96 0.356,-0.131 0.374,-0.148 0.72,-0.72 -0.135,-0.695 -0.374,0.369 -0.72,0.24 -0.65,-0.217 0.549,-0.536 0.48,-0.96 0.012,-0.49 -1.045,0.883 -0.48,-0.24 -3.842,1.039 -8.764,0.996 -11.28,3.36 0.512,0.645 -0.032,0.862 -0.48,1.44 C 1.253,-4.969 -1,-4.616 0.24,-2.4 -0.948,-2.184 -0.393,-0.546 0,0"
                 style="fill:#6989c5;fill-opacity:1;fill-rule:evenodd;stroke:none"
                 id="path1660"
                 inkscape:connector-curvature="0" />
            </g>
            <g
               transform="translate(217.6802,399.96)"
               id="g1666">
              <path
                 d="M 0,0 C -0.565,1.123 0.492,-0.25 0.48,0.24 0.549,0.664 -0.65,0.983 0,1.2 0.346,1.329 0.585,0.265 0.72,0.96 0.374,1.532 0.356,1.549 0,1.68 0.709,1.89 -0.726,1.871 -0.24,2.64 0.103,2.583 0.165,2.245 0.48,2.16 0.004,2.724 0.044,3.804 -0.48,4.32 -0.196,4.286 0.064,3.893 0.24,4.32 -0.105,4.455 -0.346,4.695 -0.48,5.04 -0.198,5.078 0.201,4.999 0.24,5.28 -0.766,5.244 -0.338,5.404 0,5.76 -0.448,6.204 -1.009,7.047 -0.24,7.44 -0.241,7.199 -0.045,7.155 0,6.96 -0.789,7.135 -0.368,6.483 0,6.48 0.064,7.311 0.223,8.11 -0.72,7.68 -0.837,8.226 0.605,8.398 0,8.64 -0.346,8.769 -0.585,7.705 -0.72,8.4 -0.533,8.453 -0.441,8.601 -0.48,8.88 4.337,8.657 7.64,6.92 12.48,6.72 12.627,6.497 13.039,5.835 12.24,6 12.247,5.767 12.534,5.814 12.72,5.76 12.632,4.899 12.076,4.881 12.48,4.08 c 0.233,0.007 0.187,0.294 0.24,0.48 -0.143,-0.99 0.397,-2.139 -0.24,-2.4 0.645,-0.408 0.425,-1.079 0,-1.92 0.134,-0.542 0.374,0.291 0.72,-0.24 -0.039,-0.281 -0.438,-0.202 -0.72,-0.24 0.777,-1.09 0.433,-1.481 0.48,-2.4 0.295,0.268 0.493,0.209 0.48,-0.24 C 8.789,-2.09 4.31,-1.13 0,0"
                 style="fill:#6993cb;fill-opacity:1;fill-rule:evenodd;stroke:none"
                 id="path1664"
                 inkscape:connector-curvature="0" />
            </g>
            <g
               transform="translate(230.1602,406.6802)"
               id="g1670">
              <path
                 d="m 0,0 c 0.585,-0.534 1.714,-0.526 2.88,-0.48 0.728,-0.399 3.112,-0.399 3.84,0 1.987,-0.146 3.494,0.186 5.28,0.24 -0.269,-0.499 -0.259,-0.509 0.24,-0.24 -0.206,-0.766 0.378,-0.742 0.48,-1.2 -0.284,0.071 -0.907,0.967 -1.2,0.24 0.743,-0.137 0.906,-0.854 1.44,-1.2 -0.359,0.041 -0.886,-0.086 -0.96,0.24 0.133,-10e-4 0.272,0.194 0,0.24 -0.231,-0.553 -0.14,-1.219 0,-1.68 0.163,0.605 0.797,0.425 0.96,0.24 -0.342,-0.093 -0.405,-0.288 -0.72,0 0.4,-0.754 -0.892,-0.981 -0.24,-1.2 0.134,0.542 0.375,-0.291 0.72,0.24 -0.587,-0.566 0.359,-0.446 0.24,-1.2 -0.905,0.03 -0.513,-1.845 -0.24,-0.72 0.268,-0.558 -0.052,-0.643 0.48,-1.2 -0.557,0.474 -0.642,0.474 -1.2,0 1.047,-0.871 0.106,-1.493 0.24,-1.92 0.071,-0.847 0.65,0.847 0.72,0 0.072,-0.472 -0.324,-0.476 -0.48,-0.72 0.322,-0.158 0.447,-0.513 0.48,-0.96 h -2.4 c -3.371,0.389 -6.497,1.024 -9.6,1.68 0.013,0.449 -0.185,0.508 -0.48,0.24 -0.047,0.919 0.297,1.31 -0.48,2.4 0.282,0.038 0.681,-0.041 0.72,0.24 -0.345,0.531 -0.586,-0.302 -0.72,0.24 0.425,0.84 0.646,1.512 0,1.92 0.637,0.261 0.097,1.41 0.24,2.4 C 0.187,-2.346 0.233,-2.633 0,-2.64 c -0.404,0.801 0.152,0.819 0.24,1.68 -0.186,0.054 -0.473,0.006 -0.48,0.24 C 0.559,-0.885 0.147,-0.224 0,0"
                 style="fill:#699cd3;fill-opacity:1;fill-rule:evenodd;stroke:none"
                 id="path1668"
                 inkscape:connector-curvature="0" />
            </g>
            <g
               transform="translate(184.8003,375.96)"
               id="g1674">
              <path
                 d="M 0,0 C 1.094,-0.346 2.055,-0.825 2.88,-1.44 1.786,-1.094 0.825,-0.615 0,0"
                 style="fill:#8c94b7;fill-opacity:1;fill-rule:evenodd;stroke:none"
                 id="path1672"
                 inkscape:connector-curvature="0" />
            </g>
            <g
               transform="translate(178.3203,379.0801)"
               id="g1678">
              <path
                 d="M 0,0 C 1.073,-0.13 3.247,-1.23 4.32,-2.16 2.879,-1.44 1.44,-0.72 0,0"
                 style="fill:#8c94b7;fill-opacity:1;fill-rule:evenodd;stroke:none"
                 id="path1676"
                 inkscape:connector-curvature="0" />
            </g>
            <g
               transform="translate(175.4404,380.52)"
               id="g1682">
              <path
                 d="m 0,0 c -3.288,3.513 -6.358,7.242 -9.84,10.56 -4.337,4.143 -5.295,11.665 -11.04,14.4 4.031,-9.408 5.145,-21.734 11.52,-28.8 3.612,-2.707 5.773,-6.867 10.32,-8.64 2.396,-1.523 5.177,-2.663 8.4,-3.36 2.045,-0.569 4.945,-0.653 6.96,0 2.345,0.695 4.123,1.956 4.32,4.8 -1.655,0.746 -2.636,2.165 -4.32,2.88 -1.11,0.651 -3.555,-0.035 -3.36,1.92 -0.283,0.038 -0.682,-0.041 -0.72,0.24 -0.825,0.615 -1.786,1.094 -2.88,1.44 H 9.12 C 8.476,-4.244 7.844,-3.916 7.2,-3.6 6.126,-2.67 3.953,-1.57 2.88,-1.44 1.803,-1.076 1.156,-0.284 0,0 m 13.92,-19.2 c -5.094,0.238 -9.703,2.346 -13.44,4.32 -1.747,0.922 -3.847,1.579 -5.04,2.4 -3.084,2.123 -4.068,6.459 -7.68,7.92 -1.539,2.542 -3.121,5.039 -5.04,7.2 0.615,2.934 -1.889,4.533 -2.88,7.44 -1.673,4.906 -1.264,10.62 -3.84,14.16 -1.083,1.489 -2.817,1.706 -4.08,2.88 -0.343,1.405 -0.025,2.469 0.48,3.6 6.503,-0.376 9.557,-4.203 13.68,-6.96 7.425,-14.494 17.136,-26.703 36,-29.76 1.178,-2.513 3.499,-5.125 2.4,-9.12 -2.03,-2.05 -4.714,-3.446 -8.16,-4.08 z"
                 style="fill:#8b98c7;fill-opacity:1;fill-rule:evenodd;stroke:none"
                 id="path1680"
                 inkscape:connector-curvature="0" />
            </g>
            <g
               transform="translate(165.6001,391.0801)"
               id="g1686">
              <path
                 d="M 0,0 C -0.2,-0.36 0.356,-0.884 -0.48,-1.92 -0.422,-2.288 -0.084,-1.955 0,-1.68 0.362,-1.889 -0.066,-2.039 0.24,-2.64 0,-2.641 -0.045,-2.445 -0.24,-2.4 c 0.635,-0.696 0.016,-1.153 0.72,-1.68 -1.284,-0.848 0.24,-0.281 -0.72,-1.2 0.778,-0.17 0.505,-1.439 0.24,-2.4 0.099,-0.409 0.31,0.051 0.72,0 C 0.474,-8.237 0.719,-10.008 0,-9.36 c 0.402,-0.265 1.086,-2.901 0.24,-2.16 -0.041,-0.601 0.369,-0.751 0.72,-0.96 0.074,-0.553 -0.693,-0.267 -0.72,-0.72 1.176,-0.348 -0.691,-0.614 0.72,-1.2 -0.051,-0.29 -0.266,-0.147 -0.48,0 C -5.895,-7.334 -7.008,4.992 -11.04,14.4 -5.295,11.665 -4.337,4.143 0,0"
                 style="fill:#6763ad;fill-opacity:1;fill-rule:evenodd;stroke:none"
                 id="path1684"
                 inkscape:connector-curvature="0" />
            </g>
            <g
               transform="translate(165.6001,391.0801)"
               id="g1690">
              <path
                 d="m 0,0 c 3.482,-3.318 6.553,-7.047 9.84,-10.56 0.021,-0.34 0.04,-0.679 -0.24,-0.72 0.409,-0.151 0.395,-0.725 0.72,-0.96 -0.98,-1.747 0.29,-3.249 -0.48,-4.08 0.059,-0.302 0.477,-0.242 0.48,0 0.564,-0.003 -0.088,-0.655 -0.48,-0.48 0.623,-1.16 0.981,-1.647 0,-2.16 0.682,-0.64 0.299,-0.26 0.96,-0.72 -0.334,-0.305 -0.104,-1.175 -0.72,-1.2 0.085,-0.336 0.422,-0.02 0.48,0.24 0.376,-0.085 -0.21,-0.423 0.24,-0.48 -0.007,-0.234 -0.294,-0.186 -0.48,-0.24 -0.044,-0.523 0.197,-0.764 0.72,-0.72 -0.106,-0.213 -0.21,-0.429 -0.48,-0.48 0.136,-0.224 0.668,-0.363 0.24,-0.48 -4.547,1.773 -6.707,5.933 -10.32,8.64 0.214,-0.147 0.429,-0.29 0.48,0 -1.411,0.586 0.456,0.852 -0.72,1.2 0.027,0.453 0.794,0.167 0.72,0.72 -0.351,0.209 -0.761,0.359 -0.72,0.96 0.846,-0.741 0.162,1.895 -0.24,2.16 0.719,-0.648 0.474,1.123 0.72,1.68 -0.41,0.051 -0.621,-0.409 -0.72,0 0.265,0.961 0.538,2.23 -0.24,2.4 0.96,0.919 -0.564,0.352 0.72,1.2 -0.704,0.527 -0.085,0.984 -0.72,1.68 C -0.045,-2.445 0,-2.641 0.24,-2.64 -0.066,-2.039 0.362,-1.889 0,-1.68 -0.084,-1.955 -0.422,-2.288 -0.48,-1.92 0.356,-0.884 -0.2,-0.36 0,0"
                 style="fill:#686ab1;fill-opacity:1;fill-rule:evenodd;stroke:none"
                 id="path1688"
                 inkscape:connector-curvature="0" />
            </g>
            <g
               transform="translate(189.8403,397.0801)"
               id="g1694">
              <path
                 d="M 0,0 C 2.562,-1.118 5.06,-2.3 7.68,-3.36 7.814,-3.706 8.054,-3.945 8.4,-4.08 8.297,-4.537 7.883,-4.683 7.92,-5.28 7.923,-5.844 8.575,-5.192 8.4,-4.8 8.112,-5.822 8.757,-6.711 8.16,-7.68 9.041,-9.641 8.739,-8.979 8.4,-12 c -3.279,1.041 -5.714,2.927 -8.16,4.8 0.146,0.013 0.284,0.036 0.24,0.24 -0.346,0.134 -0.586,0.375 -0.72,0.72 0.351,-0.344 0.761,-0.184 0.72,0.48 -0.283,0.038 -0.681,-0.041 -0.72,0.24 0.066,0.494 0.894,0.226 0.96,0.72 -0.282,0.038 -0.681,-0.041 -0.72,0.24 1.098,0.993 0.429,1.053 -0.24,1.92 0.547,-0.067 0.902,0.058 0.96,0.48 -0.32,0.241 -0.724,0.396 -0.96,0.72 C -0.135,-0.93 0.234,-0.546 0,0"
                 style="fill:#6a7abb;fill-opacity:1;fill-rule:evenodd;stroke:none"
                 id="path1692"
                 inkscape:connector-curvature="0" />
            </g>
            <g
               transform="translate(197.52,393.7202)"
               id="g1698">
              <path
                 d="m 0,0 c 2.875,-1.444 6.171,-2.469 9.6,-3.36 0.442,-0.438 0.128,-1.346 -0.24,-1.68 0.003,-0.564 0.655,0.088 0.48,0.48 -0.048,-0.894 0.327,-2.225 -0.24,-3.36 1.465,0.096 -0.543,-0.956 0.72,-1.44 -0.866,-0.605 0.601,-1.705 -0.48,-2.4 0.291,0.476 0.827,-0.06 0.24,-0.24 0.614,-0.105 0.14,-0.229 0.48,-1.2 -0.279,0.039 -0.427,-0.053 -0.48,-0.24 -3.074,1.646 -5.641,3.799 -9.36,4.8 0.34,3.021 0.641,2.359 -0.24,4.32 0.597,0.968 -0.048,1.858 0.24,2.88 0.175,-0.393 -0.477,-1.044 -0.48,-0.48 -0.037,0.597 0.377,0.743 0.48,1.2 C 0.375,-0.585 0.135,-0.346 0,0"
                 style="fill:#6a81c0;fill-opacity:1;fill-rule:evenodd;stroke:none"
                 id="path1696"
                 inkscape:connector-curvature="0" />
            </g>
            <g
               transform="translate(207.1201,390.3604)"
               id="g1702">
              <path
                 d="m 0,0 c 3.908,-0.973 7.84,-1.92 11.52,-3.12 -0.277,-1.553 0.132,-2.324 0.48,-3.6 -0.193,0.127 -0.39,0.25 -0.72,0.24 1.093,-2.118 0.978,-2.912 0.48,-5.28 1.436,1.001 -0.48,-1.628 0.72,-1.2 0.587,-0.298 -0.719,-0.698 -0.72,-1.2 -3.324,1.796 -7.957,2.283 -11.28,4.08 0.053,0.187 0.201,0.279 0.48,0.24 -0.34,0.97 0.134,1.095 -0.48,1.2 0.587,0.18 0.051,0.716 -0.24,0.24 1.081,0.695 -0.386,1.795 0.48,2.4 -1.263,0.484 0.745,1.536 -0.72,1.44 0.567,1.135 0.191,2.466 0.24,3.36 C 0.415,-1.592 -0.237,-2.244 -0.24,-1.68 0.127,-1.346 0.442,-0.438 0,0"
                 style="fill:#6989c5;fill-opacity:1;fill-rule:evenodd;stroke:none"
                 id="path1700"
                 inkscape:connector-curvature="0" />
            </g>
            <g
               transform="translate(183.8403,375.7202)"
               id="g1706">
              <path
                 d="M 0,0 C 0.146,-0.014 0.284,-0.036 0.24,-0.24 -0.029,-0.291 -0.134,-0.506 -0.24,-0.72 0.213,-0.747 -0.074,-1.514 0.48,-1.44 0.655,-0.785 0.003,-0.957 0,-0.48 0.282,-0.442 0.681,-0.521 0.72,-0.24 0.374,-0.368 0.134,0.695 0,0 M -8.4,4.8 C -7.244,4.516 -6.597,3.724 -5.52,3.36 -4.08,2.64 -2.641,1.919 -1.2,1.2 -0.556,0.884 0.076,0.556 0.72,0.24 0.942,-0.777 0.956,-1.159 0.24,-1.92 c 0.355,0.391 0.954,-1.426 0,-1.44 0.597,-0.438 0.57,0.169 0.72,-0.48 -0.106,-0.349 -0.211,0.025 -0.48,0 C 1.079,-4.689 0.189,-4.85 1.44,-5.52 1.306,-6.062 1.065,-5.229 0.72,-5.76 0.896,-5.984 1.156,-6.124 1.44,-6.24 1.392,-6.562 0.443,-6.687 1.44,-6.72 0.722,-7.179 1.265,-7.408 0.96,-8.16 c -0.261,0.059 -0.163,0.477 -0.48,0.48 -0.399,0.043 0.764,-1.599 0.72,-1.2 0.457,-0.167 -0.325,-1.093 -0.72,-1.2 0.208,-0.709 0.359,0.557 0.96,0.24 -0.103,-0.458 -0.686,-0.434 -0.48,-1.2 -3.223,0.697 -6.004,1.836 -8.4,3.36 0.427,0.117 -0.104,0.256 -0.24,0.48 0.269,0.051 0.373,0.266 0.48,0.48 -0.524,-0.044 -0.764,0.197 -0.72,0.72 0.186,0.054 0.473,0.006 0.48,0.24 -0.45,0.057 0.136,0.395 -0.24,0.48 -0.058,-0.261 -0.395,-0.576 -0.48,-0.24 0.616,0.024 0.386,0.895 0.72,1.2 -0.661,0.46 -0.278,0.08 -0.96,0.72 0.981,0.513 0.623,0.999 0,2.16 0.392,-0.175 1.044,0.477 0.48,0.48 -0.003,-0.242 -0.421,-0.302 -0.48,0 0.77,0.831 -0.5,2.333 0.48,4.08 -0.325,0.235 -0.311,0.809 -0.72,0.96 0.28,0.041 0.261,0.379 0.24,0.72"
                 style="fill:#6871b5;fill-opacity:1;fill-rule:evenodd;stroke:none"
                 id="path1704"
                 inkscape:connector-curvature="0" />
            </g>
            <g
               transform="translate(218.6401,387.2402)"
               id="g1710">
              <path
                 d="m 0,0 c 3.54,-1.02 7.936,-1.185 12.48,-1.2 0.256,-0.224 0.075,-0.885 0.72,-0.72 -0.166,-0.194 -0.373,-0.658 0,-0.72 -0.106,-0.349 -0.211,0.024 -0.48,0 0.49,-0.57 -0.497,-1.117 0.48,-1.2 -1.183,-1.057 1.048,-1.992 -0.48,-2.16 0.105,-0.295 0.307,-0.493 0.72,-0.48 -0.262,-0.087 -1.004,-1.051 0,-0.96 -0.304,-0.481 -0.814,-1.116 0,-1.2 -0.946,-0.631 0.595,-3.548 -0.24,-2.64 -0.575,-0.436 0.871,-0.873 0.48,-1.92 -4.691,0.51 -8.626,1.774 -13.44,2.16 0.001,0.502 1.307,0.902 0.72,1.2 -1.2,-0.428 0.716,2.201 -0.72,1.2 0.498,2.369 0.613,3.162 -0.48,5.28 C 0.09,-3.35 0.287,-3.473 0.48,-3.6 0.132,-2.324 -0.277,-1.553 0,0"
                 style="fill:#6993cb;fill-opacity:1;fill-rule:evenodd;stroke:none"
                 id="path1708"
                 inkscape:connector-curvature="0" />
            </g>
            <g
               transform="translate(231.1201,386.04)"
               id="g1714">
              <path
                 d="M 0,0 H 0.24 C 0.808,-0.552 2.394,-0.086 3.36,-0.24 H 7.44 C 8.406,-0.086 9.992,-0.552 10.56,0 h 2.16 c -0.243,-0.795 0.137,-1.041 -0.72,-1.44 0.216,0.014 0.58,-0.536 0.72,-0.24 0.015,-0.483 0.394,-1.321 -0.72,-0.72 -0.035,-0.319 0.807,-0.893 0.24,-0.96 0.135,-0.542 0.374,0.291 0.72,-0.24 0.026,-0.786 0.147,-1.133 -0.72,-1.92 0.777,-0.296 0.183,0.777 0.96,0.48 -0.147,-0.213 -0.29,-0.429 0,-0.48 -0.24,-0.33 -0.396,0.103 -0.72,-0.48 0.359,-0.07 0.43,-0.32 0.96,-0.72 -0.248,-1.78 -0.261,-0.882 -0.48,0.24 -1.128,-0.492 0.368,-1.066 -0.24,-1.92 0.553,0.477 0.267,-0.06 0.72,-0.24 -0.07,-0.5 -0.649,0.356 -0.72,-0.48 -0.128,-0.499 0.935,-0.508 0.24,-0.24 0.95,0.456 -0.564,-1.193 0.72,-1.2 -3.657,-0.983 -7.67,-1.61 -12.48,-1.44 0.391,1.047 -1.054,1.484 -0.48,1.92 0.835,-0.908 -0.706,2.01 0.24,2.64 -0.814,0.085 -0.304,0.719 0,1.2 -1.004,-0.091 -0.262,0.873 0,0.96 -0.413,-0.013 -0.615,0.185 -0.72,0.48 1.528,0.169 -0.703,1.103 0.48,2.16 -0.977,0.083 0.01,0.63 -0.48,1.2 0.269,0.024 0.374,-0.349 0.48,0 -0.373,0.063 -0.166,0.526 0,0.72 C 0.075,-0.885 0.256,-0.224 0,0"
                 style="fill:#699cd3;fill-opacity:1;fill-rule:evenodd;stroke:none"
                 id="path1712"
                 inkscape:connector-curvature="0" />
            </g>
            <g
               transform="translate(243.8403,386.04)"
               id="g1718">
              <path
                 d="m 0,0 c 4.199,0.206 7.971,-0.593 8.64,-3.36 1.131,-4.676 -4.114,-5.901 -7.68,-7.2 -1.284,0.007 0.23,1.656 -0.72,1.2 C 0.935,-9.628 -0.128,-9.619 0,-9.12 0.07,-8.284 0.649,-9.14 0.72,-8.64 0.267,-8.46 0.553,-7.923 0,-8.4 c 0.608,0.854 -0.889,1.428 0.24,1.92 0.219,-1.122 0.232,-2.02 0.48,-0.24 -0.531,0.4 -0.601,0.65 -0.96,0.72 0.324,0.583 0.48,0.15 0.72,0.48 -0.29,0.051 -0.147,0.267 0,0.48 -0.777,0.297 -0.184,-0.776 -0.96,-0.48 0.867,0.787 0.746,1.134 0.72,1.92 -0.346,0.531 -0.586,-0.302 -0.72,0.24 0.567,0.067 -0.275,0.641 -0.24,0.96 1.114,-0.601 0.735,0.237 0.72,0.72 -0.141,-0.296 -0.504,0.254 -0.72,0.24 C 0.137,-1.041 -0.244,-0.795 0,0"
                 style="fill:#69a7da;fill-opacity:1;fill-rule:evenodd;stroke:none"
                 id="path1716"
                 inkscape:connector-curvature="0" />
            </g>
            <g
               transform="translate(184.5601,375.48)"
               id="g1722">
              <path
                 d="m 0,0 c -0.039,-0.281 -0.438,-0.202 -0.72,-0.24 0.003,-0.477 0.655,-0.305 0.48,-0.96 -0.553,-0.073 -0.266,0.694 -0.72,0.72 0.106,0.214 0.211,0.43 0.48,0.48 0.044,0.205 -0.094,0.227 -0.24,0.24 C -0.585,0.936 -0.346,-0.128 0,0"
                 style="fill:#6975b8;fill-opacity:1;fill-rule:evenodd;stroke:none"
                 id="path1720"
                 inkscape:connector-curvature="0" />
            </g>
            <g
               transform="translate(184.8003,364.6802)"
               id="g1726">
              <path
                 d="M 0,0 C -0.206,0.766 0.377,0.742 0.48,1.2 -0.121,1.517 -0.271,0.251 -0.48,0.96 -0.085,1.067 0.697,1.993 0.24,2.16 0.284,1.761 -0.879,3.403 -0.48,3.36 -0.163,3.357 -0.261,2.939 0,2.88 0.305,3.632 -0.238,3.861 0.48,4.32 -0.517,4.353 0.432,4.478 0.48,4.8 0.196,4.917 -0.064,5.056 -0.24,5.28 0.105,5.811 0.346,4.978 0.48,5.52 -0.771,6.19 0.119,6.351 -0.48,7.2 c 0.269,0.025 0.374,-0.349 0.48,0 -0.15,0.649 -0.123,0.042 -0.72,0.48 0.954,0.014 0.355,1.831 0,1.44 0.716,0.761 0.702,1.143 0.48,2.16 H 0 C 0.825,10.665 1.786,10.186 2.88,9.84 2.918,9.559 3.317,9.638 3.6,9.6 3.405,7.645 5.85,8.331 6.96,7.68 V 7.2 C 6.756,7.156 6.733,7.293 6.72,7.44 6.232,7.514 6.769,6.747 6.96,6.72 5.663,6.655 7.306,6.199 6,5.76 6.158,5.438 6.513,5.313 6.96,5.28 6.517,4.839 5.79,4.453 6.96,4.8 6.627,4.653 6.924,3.876 6.48,3.84 6.55,2.993 7.129,4.687 7.2,3.84 7.787,3.562 6.48,3.953 6.48,3.12 7.295,3.7 6.715,2.745 6.24,2.64 6.563,2.243 6.854,1.813 7.44,1.68 6.74,1.216 7.242,0.463 6.96,0 4.945,-0.653 2.045,-0.569 0,0"
                 style="fill:#6975b8;fill-opacity:1;fill-rule:evenodd;stroke:none"
                 id="path1724"
                 inkscape:connector-curvature="0" />
            </g>
            <g
               transform="translate(191.7603,364.6802)"
               id="g1730">
              <path
                 d="m 0,0 c 0.282,0.463 -0.22,1.216 0.48,1.68 -0.586,0.133 -0.877,0.563 -1.2,0.96 0.475,0.105 1.055,1.06 0.24,0.48 0.001,0.833 1.307,0.442 0.72,0.72 -0.071,0.847 -0.65,-0.847 -0.72,0 C -0.036,3.876 -0.333,4.653 0,4.8 -1.17,4.453 -0.443,4.839 0,5.28 -0.447,5.313 -0.802,5.438 -0.96,5.76 0.346,6.199 -1.297,6.655 0,6.72 -0.191,6.747 -0.728,7.514 -0.24,7.44 -0.227,7.293 -0.204,7.156 0,7.2 V 7.68 C 1.684,6.964 2.666,5.545 4.32,4.8 4.124,1.956 2.345,0.695 0,0"
                 style="fill:#6a7abb;fill-opacity:1;fill-rule:evenodd;stroke:none"
                 id="path1728"
                 inkscape:connector-curvature="0" />
            </g>
            <g
               transform="translate(152.6401,451.5601)"
               id="g1734">
              <path
                 d="M 0,0 C 1.682,-0.158 3.997,0.317 5.28,-0.24 3.598,-0.082 1.283,-0.557 0,0"
                 style="fill:#9ba3b9;fill-opacity:1;fill-rule:evenodd;stroke:none"
                 id="path1732"
                 inkscape:connector-curvature="0" />
            </g>
            <g
               transform="translate(136.5601,437.8804)"
               id="g1738">
              <path
                 d="M 0,0 C 1.363,-0.157 3.356,0.315 4.32,-0.24 2.957,-0.083 0.964,-0.556 0,0"
                 style="fill:#bbbecc;fill-opacity:1;fill-rule:evenodd;stroke:none"
                 id="path1736"
                 inkscape:connector-curvature="0" />
            </g>
            <g
               transform="translate(230.1602,426.6001)"
               id="g1742">
              <path
                 d="m 0,0 c -0.259,0.397 -2.141,0.397 -2.4,0 -4.004,0.556 -8.715,0.405 -11.76,1.92 -3.38,1.981 -7.593,3.126 -11.28,4.8 -3.349,1.212 -6.49,2.63 -9.36,4.32 -3.955,0.285 -5.535,2.945 -8.88,3.84 -1.895,1.306 -4.517,1.883 -6.72,2.88 -2.69,0.83 -5.533,1.507 -8.4,2.16 -2.928,0.832 -5.718,1.802 -9.12,2.16 -2.693,0.108 -5.328,0.273 -7.92,0.48 -0.492,0.398 -2.628,0.398 -3.12,0 -1.873,0.208 -3.854,0.306 -5.76,0.48 -1.629,-0.029 -2.784,0.416 -4.56,0.24 -0.571,0.399 -2.789,0.399 -3.36,0 -5.028,-0.092 -8.96,-1.28 -13.2,-2.16 -2.35,-0.429 -4.87,-0.143 -6.72,-0.48 -9.678,-1.76 -20.562,-9.788 -25.68,-15.84 -2.431,-2.874 -3.795,-7.295 -3.36,-12.24 0.898,-10.206 6.578,-15.586 14.64,-19.2 3.622,-1.623 7.623,-3.686 11.28,-4.08 5.037,-0.543 10.363,1.482 13.92,2.64 5.491,1.703 11.966,8.062 11.52,14.16 -0.435,5.95 -7.174,10.331 -12.96,10.8 -4.089,-0.231 -7.607,-1.033 -9.6,-3.36 3.2,-0.72 6.167,-1.673 8.88,-2.88 5.616,-0.484 5.327,-10.314 0.72,-11.76 -1.616,-0.463 -3.261,-0.899 -5.28,-0.96 -0.414,0.398 -2.466,0.398 -2.88,0 -9.542,1.018 -15.544,5.576 -19.92,11.76 v 0.96 c 0.399,1.125 0.399,3.915 0,5.04 -0.039,5.906 2.795,7.879 6.72,10.08 5.374,3.014 13.66,5.951 19.44,6.72 4.505,0.775 9.454,1.105 14.88,0.96 0.259,-0.397 2.141,-0.397 2.4,0 1.097,-0.103 2.035,-0.365 3.36,-0.24 5.792,-0.848 11.556,-1.724 17.04,-2.88 3.316,-0.684 6.66,-1.34 9.84,-2.16 2.49,-1.11 5.093,-2.108 8.16,-2.64 2.19,-0.61 4.665,-0.935 6.96,-1.44 2.737,-1.103 5.118,-2.562 8.16,-3.36 3.205,-0.795 6.105,-1.895 9.12,-2.88 3.484,-1.636 7.569,-2.671 11.76,-3.6 3.896,-0.904 7.975,-1.625 12.72,-1.68 3.98,-0.664 8.461,0.152 12.24,0.48 5.77,1.19 11.187,2.733 14.88,6 0.928,0.032 0.947,0.974 1.68,1.2 0.464,-0.133 2.293,1.696 2.16,2.16 2.76,3.54 5.29,7.124 5.76,12.48 0.841,9.574 -6.18,15.803 -12,19.44 -2.637,1.123 -5.467,2.053 -9.12,2.16 -0.492,0.398 -2.628,0.398 -3.12,0 -1.366,0.167 -1.993,-0.407 -3.36,-0.24 -1.881,0.084 -5.65,-2.768 -6,-4.56 -0.391,-2 0.62,-4.41 2.4,-4.56 1.958,-0.164 2.059,2.337 5.04,1.68 4.995,0.595 6.779,-2.021 10.8,-2.4 1.381,-0.859 2.351,-2.129 3.6,-3.12 C 28.214,19.615 29.356,10.897 24.96,6.96 23.07,1.891 17.403,0.597 11.04,0 V -0.24 H 9.12 6.72 C 4.217,-0.422 2.38,0.06 0,0 m 8.4,39.6 h 7.44 c 6.506,-1.174 11.808,-3.552 15.84,-7.2 0.699,-0.9 1.5,-1.7 2.4,-2.4 2.477,-2.163 3.457,-5.823 4.32,-9.6 V 14.64 C 35.595,-1.995 22.48,-8.32 4.8,-10.08 H 1.44 c -1.831,0.33 -3.485,0.835 -5.76,0.72 -0.885,0.555 -2.796,0.084 -4.08,0.24 -8.065,-0.004 -14.459,4.049 -21.12,6.48 -4.547,1.66 -9.46,2.831 -14.16,4.32 -13.764,4.362 -28.258,8.91 -45.6,9.36 -0.964,0.556 -2.957,0.084 -4.32,0.24 h -0.96 c -1.204,-0.156 -3.035,0.315 -3.84,-0.24 -12.458,-0.102 -19.89,-5.23 -27.84,-9.84 -6.867,-11.088 3.971,-19.713 13.92,-20.88 0.492,-0.398 2.628,-0.398 3.12,0 3.839,0.261 5.987,2.245 5.76,5.04 -0.259,3.191 -5.732,5 -9.36,5.28 -2.632,0.203 -7.434,-1.384 -7.44,2.16 -0.004,2.208 2.455,2.138 4.56,3.36 1.808,1.05 3.381,2.69 4.8,3.12 7.336,2.224 17.186,-1.73 20.16,-5.28 0.828,-0.988 1.305,-3.025 2.16,-4.8 2.468,-5.12 1.193,-8.134 -2.16,-12.48 -3.997,-5.181 -11.136,-7.67 -18.72,-9.36 -7.295,-1.626 -15.464,1.67 -20.64,4.56 -7.169,4.003 -12.87,11.294 -14.88,19.68 v 6.48 c 0.325,2.957 2.107,5.159 3.6,7.2 0.72,0.984 1.004,2.444 1.44,2.88 0.711,0.711 2.301,1.121 3.36,2.16 1.04,1.02 1.886,2.179 2.88,2.88 1.164,0.821 2.327,1.401 3.36,2.4 2.789,2.697 7.313,4.758 11.04,6 2.488,0.83 5.434,1.714 7.92,2.16 10.51,1.885 22.356,3.038 33.84,1.2 1.283,-0.557 3.598,-0.082 5.28,-0.24 6.722,-0.854 12.168,-0.72 17.28,-2.4 1.113,-0.366 2.256,-1.375 3.84,-1.92 1.215,-0.418 2.85,-0.489 4.08,-0.96 4.298,-1.647 8.904,-5.259 14.4,-7.44 C -21.524,7.589 -12.973,3.241 1.2,2.16 7.946,1.646 15.587,1.857 19.68,5.04 c 1.903,1.481 4.326,5.546 4.56,8.16 0.55,6.151 -4.471,10.766 -9.12,11.28 -3.542,0.392 -5.309,-1.72 -7.68,-1.68 -1.737,0.03 -4.629,1.69 -6,2.64 -7.269,5.039 -0.463,13.816 6.96,14.16"
                 style="fill:#8b98c7;fill-opacity:1;fill-rule:evenodd;stroke:none"
                 id="path1740"
                 inkscape:connector-curvature="0" />
            </g>
            <g
               transform="translate(227.7603,426.6001)"
               id="g1746">
              <path
                 d="M 0,0 C 0.259,0.397 2.141,0.397 2.4,0 H 0.96 Z"
                 style="fill:#9ba3b9;fill-opacity:1;fill-rule:evenodd;stroke:none"
                 id="path1744"
                 inkscape:connector-curvature="0" />
            </g>
            <g
               transform="translate(231.6001,416.52)"
               id="g1750">
              <path
                 d="M 0,0 H 3.36 C 2.79,-0.398 0.571,-0.398 0,0"
                 style="fill:#9ba3b9;fill-opacity:1;fill-rule:evenodd;stroke:none"
                 id="path1748"
                 inkscape:connector-curvature="0" />
            </g>
            <g
               transform="translate(283.9204,416.7603)"
               id="g1754">
              <path
                 d="M 0,0 C 0.397,-0.259 0.397,-2.141 0,-2.4 Z"
                 style="fill:#90b1d4;fill-opacity:1;fill-rule:evenodd;stroke:none"
                 id="path1752"
                 inkscape:connector-curvature="0" />
            </g>
            <g
               transform="translate(117.8403,406.9204)"
               id="g1758">
              <path
                 d="M 0,0 H 3.12 C 2.627,-0.398 0.492,-0.398 0,0"
                 style="fill:#bbbecc;fill-opacity:1;fill-rule:evenodd;stroke:none"
                 id="path1756"
                 inkscape:connector-curvature="0" />
            </g>
            <g
               transform="translate(247.6802,406.4404)"
               id="g1762">
              <path
                 d="M 0,0 C 0.647,0.553 2.315,0.085 3.36,0.24 2.713,-0.313 1.045,0.155 0,0"
                 style="fill:#9ba3b9;fill-opacity:1;fill-rule:evenodd;stroke:none"
                 id="path1760"
                 inkscape:connector-curvature="0" />
            </g>
            <g
               transform="translate(197.04,407.4004)"
               id="g1766">
              <path
                 d="m 0,0 c 3.395,-1.086 6.2,-2.76 9.36,-4.08 2.516,-2.364 7.438,-2.322 11.28,-3.36 4.31,-1.13 8.789,-2.091 13.44,-2.88 3.104,-0.657 6.23,-1.291 9.6,-1.68 0.571,-0.398 2.789,-0.398 3.36,0 4.826,0.534 8.981,1.738 13.92,2.16 12.031,2.209 21.924,6.556 25.92,16.8 0.397,0.259 0.397,2.141 0,2.4 C 86.515,11.29 84.587,12.029 82.8,12 79.112,11.94 75.465,7.683 72,5.52 67.866,2.938 64.126,1.353 60.24,0 58.133,-0.213 56.456,-0.855 54,-0.72 52.955,-0.875 51.287,-0.407 50.64,-0.96 h -1.2 c -0.808,0.398 -3.272,0.398 -4.08,0 H 45.12 C 43.334,-1.014 41.827,-1.347 39.84,-1.2 H 36 C 34.834,-1.247 33.706,-1.254 33.12,-0.72 28.28,-0.52 24.977,1.217 20.16,1.44 15.835,1.515 13.552,3.632 9.12,3.6 6.661,5.301 3.445,6.244 -0.24,6.72 c -3.138,0.861 -5.459,2.541 -8.16,3.84 -2.155,1.284 -4.701,2.179 -7.2,3.12 -0.388,0.492 -1.155,0.605 -1.68,0.96 -1.073,1.007 -2.608,1.552 -4.08,2.16 -1.156,0.204 -1.947,0.773 -2.88,1.2 -3.084,1.156 -6.01,2.469 -9.6,3.12 -3.014,0.827 -7.134,1.825 -10.56,1.44 4.068,-0.892 7.027,-2.893 10.8,-4.08 1.85,-1.271 4.322,-1.919 6.24,-3.12 0.828,-0.538 2.422,-1.57 3.12,-1.44 H -24 c 1.94,-1.82 4.224,-3.297 6.72,-4.56 0.445,-0.603 1.955,-1.394 2.4,-1.2 2.455,-1.306 4.484,-3.035 6.96,-4.32 C -5.557,2.283 -2.644,1.276 0,0 m 42.96,-14.16 c -2.359,0.061 -5.59,0.824 -8.4,1.44 -2.884,0.632 -5.687,0.555 -8.16,0.96 -1.374,0.225 -2.561,1.135 -3.84,1.44 -3.612,0.861 -6.955,1.126 -10.08,2.16 -2.923,0.967 -5.907,2.08 -8.64,3.36 -1.455,0.681 -2.748,2.097 -4.32,2.64 -1.581,0.546 -3.343,0.401 -4.8,0.96 -3.492,1.339 -6.921,4.013 -10.32,6 -3.331,1.948 -6.565,4.379 -9.84,6.24 -3.984,2.264 -8.847,4.008 -13.44,6 -4.694,2.036 -9.53,4.031 -14.4,4.8 -2.121,0.335 -5.297,-0.925 -6.48,2.4 1.104,1.134 2.758,0.831 4.08,1.2 7.768,2.164 16.337,0.572 23.76,-1.92 3.95,-1.326 8.288,-2.512 11.76,-4.08 2.171,-0.981 4.076,-2.616 6.24,-3.6 C 1.497,8.833 18.461,2.455 39.6,0.96 c 0.65,-0.399 2.951,-0.399 3.6,0 2.406,0.234 4.79,0.49 7.2,0.72 0.887,-0.399 3.433,-0.399 4.32,0 6.162,0.613 10.729,2.51 15.84,5.76 4.054,2.578 7.844,7.842 13.2,7.44 3.094,-0.233 4.541,-2.668 6.24,-4.8 V 6.96 C 83.596,-8.156 65.641,-11.721 46.56,-14.16 Z"
                 style="fill:#8b98c7;fill-opacity:1;fill-rule:evenodd;stroke:none"
                 id="path1764"
                 inkscape:connector-curvature="0" />
            </g>
            <g
               transform="translate(240.7202,395.4004)"
               id="g1770">
              <path
                 d="M 0,0 H 2.4 3.36 C 2.789,-0.398 0.571,-0.398 0,0"
                 style="fill:#9ba3b9;fill-opacity:1;fill-rule:evenodd;stroke:none"
                 id="path1768"
                 inkscape:connector-curvature="0" />
            </g>
            <g
               transform="translate(240,393.2402)"
               id="g1774">
              <path
                 d="M 0,0 H 3.6 C 2.951,-0.398 0.65,-0.398 0,0"
                 style="fill:#9ba3b9;fill-opacity:1;fill-rule:evenodd;stroke:none"
                 id="path1772"
                 inkscape:connector-curvature="0" />
            </g>
            <g
               transform="translate(231.1201,388.4404)"
               id="g1778">
              <path
                 d="M 0,0 C 1.045,-0.155 2.713,0.313 3.36,-0.24 2.315,-0.085 0.647,-0.553 0,0"
                 style="fill:#bbbecc;fill-opacity:1;fill-rule:evenodd;stroke:none"
                 id="path1776"
                 inkscape:connector-curvature="0" />
            </g>
            <g
               transform="translate(240,388.2002)"
               id="g1782">
              <path
                 d="M 0,0 C 1.284,-0.156 3.195,0.315 4.08,-0.24 H 0 Z"
                 style="fill:#9ba3b9;fill-opacity:1;fill-rule:evenodd;stroke:none"
                 id="path1780"
                 inkscape:connector-curvature="0" />
            </g>
            <g
               transform="translate(207.6001,380.2803)"
               id="g1786">
              <path
                 d="m 0,0 c 3.323,-1.797 7.956,-2.284 11.28,-4.08 4.814,-0.386 8.749,-1.65 13.44,-2.16 4.81,-0.17 8.823,0.457 12.48,1.44 3.566,1.299 8.811,2.524 7.68,7.2 -0.669,2.767 -4.441,3.566 -8.64,3.36 h -2.16 -3.12 -4.08 -3.12 -0.24 c -4.544,0.015 -8.94,0.18 -12.48,1.2 -3.68,1.2 -7.612,2.147 -11.52,3.12 -3.429,0.891 -6.725,1.916 -9.6,3.36 -2.62,1.06 -5.118,2.242 -7.68,3.36 -2.321,1.199 -4.761,2.279 -6.96,3.6 -3.228,1.572 -5.124,4.476 -8.88,5.52 -0.875,3.125 -5.418,2.582 -6.48,5.52 -1.926,0.074 -3.074,0.926 -4.08,1.92 -1.436,2.404 -4.455,3.224 -7.2,4.32 1.415,-2.825 5.589,-2.891 7.44,-5.28 2.535,-3.865 5.455,-7.345 9.84,-9.36 2.61,-3.15 5.463,-6.058 8.88,-8.4 2.099,-2.141 5.395,-3.085 7.68,-5.04 2.446,-1.873 4.881,-3.76 8.16,-4.8 C -5.641,3.799 -3.074,1.646 0,0 m -44.64,27.84 c -2.649,4.311 -7.745,6.175 -11.76,9.12 -3.909,0.178 -8.896,1.27 -6.96,5.76 0.598,0.202 1.286,0.314 2.16,0.24 h 3.6 c 12.181,-1.689 21.372,-11.807 30,-17.52 6.898,-4.568 14.097,-8.794 23.28,-11.52 C -2.883,13.493 -1.413,12.966 0,12.48 6.296,10.313 14.618,8.464 23.52,8.16 24.167,7.607 25.835,8.075 26.88,7.92 h 2.64 C 30.009,7.369 31.513,7.833 32.4,7.68 h 4.08 C 41.577,7.656 46.754,7.714 48.72,4.56 48.896,2.464 48.329,1.111 48.48,-0.96 45.883,-3.003 42.52,-4.279 40.32,-6.72 33.961,-6.881 27.189,-9.842 21.36,-8.4 c -1.163,0.288 -2.285,1.067 -3.6,1.44 -4.586,1.3 -10.041,1.371 -13.44,2.88 -1.4,0.622 -2.466,1.823 -3.84,2.4 -3.476,1.46 -6.946,2.172 -10.32,3.84 -3.171,1.568 -6.646,2.687 -9.6,4.32 -1.946,1.075 -4.196,3.133 -6.24,4.56 -2.13,1.487 -3.627,3.609 -5.52,5.04 -1.021,0.772 -2.057,1.034 -3.12,1.92 -0.958,0.798 -1.743,1.532 -2.88,1.92 -0.157,0.643 -0.687,0.913 -0.96,1.44 -0.972,1.667 -2.476,2.804 -3.84,4.08 -1.023,0.657 -1.617,1.743 -2.64,2.4"
                 style="fill:#8b98c7;fill-opacity:1;fill-rule:evenodd;stroke:none"
                 id="path1784"
                 inkscape:connector-curvature="0" />
            </g>
            <path
               d="m 189.36,361.32 h 2.4 v -0.24 h -2.4 z"
               style="fill:#9ba3b9;fill-opacity:1;fill-rule:evenodd;stroke:none"
               id="path1788"
               inkscape:connector-curvature="0" />
            <g
               transform="translate(268.5601,447)"
               id="g1792">
              <path
                 d="M 0,0 C 0.399,-1.364 0.399,-4.396 0,-5.76 Z"
                 style="fill:#8c94b7;fill-opacity:1;fill-rule:evenodd;stroke:none"
                 id="path1790"
                 inkscape:connector-curvature="0" />
            </g>
            <g
               transform="translate(131.7603,437.6401)"
               id="g1796">
              <path
                 d="M 0,0 C 0.805,0.555 2.636,0.084 3.84,0.24 3.035,-0.314 1.204,0.156 0,0"
                 style="fill:#bbbecc;fill-opacity:1;fill-rule:evenodd;stroke:none"
                 id="path1794"
                 inkscape:connector-curvature="0" />
            </g>
            <g
               transform="translate(146.4004,423.2402)"
               id="g1800">
              <path
                 d="M 0,0 C 0.649,0.398 2.95,0.398 3.6,0 Z"
                 style="fill:#9ba3b9;fill-opacity:1;fill-rule:evenodd;stroke:none"
                 id="path1798"
                 inkscape:connector-curvature="0" />
            </g>
            <g
               transform="translate(221.7603,417.48)"
               id="g1804">
              <path
                 d="M 0,0 C 1.284,-0.156 3.195,0.315 4.08,-0.24 2.796,-0.083 0.885,-0.555 0,0"
                 style="fill:#9ba3b9;fill-opacity:1;fill-rule:evenodd;stroke:none"
                 id="path1802"
                 inkscape:connector-curvature="0" />
            </g>
            <g
               transform="translate(247.4404,409.0801)"
               id="g1808">
              <path
                 d="M 0,0 H 4.32 C 3.433,-0.399 0.887,-0.399 0,0"
                 style="fill:#bbbecc;fill-opacity:1;fill-rule:evenodd;stroke:none"
                 id="path1806"
                 inkscape:connector-curvature="0" />
            </g>
          </g>
        </g>
      </g>
    </g>
  </g>
</svg>
